<svg width="731" height="112" viewBox="0 0 731 112" fill="none" xmlns="http://www.w3.org/2000/svg">
<g clip-path="url(#clip0_2003_80)">
<path d="M1 24C1 10.7452 11.7452 0 25 0H707C720.255 0 731 10.7452 731 24V126H1V24Z" fill="url(#paint0_linear_2003_80)"/>
<path d="M170.368 85.232C170.752 85.232 170.965 85.2747 171.008 85.36C171.093 85.4027 171.136 85.616 171.136 86C171.136 86.5973 171.072 87.28 170.944 88.048C170.859 88.816 170.773 89.8613 170.688 91.184C170.603 92.5067 170.56 94.384 170.56 96.816C170.56 96.9867 170.432 97.072 170.176 97.072C169.92 97.072 169.792 96.9867 169.792 96.816C169.792 93.1893 168.896 90.48 167.104 88.688C165.355 86.896 162.56 86 158.72 86H139.904C137.941 86 136.277 86.32 134.912 86.96C133.547 87.6427 132.501 88.7733 131.776 90.352C131.051 91.9307 130.688 94.0853 130.688 96.816C130.688 96.9867 130.56 97.072 130.304 97.072C130.048 97.072 129.92 96.9867 129.92 96.816C129.92 95.024 129.877 93.5307 129.792 92.336C129.707 91.1413 129.6 90.1387 129.472 89.328C129.387 88.56 129.301 87.8987 129.216 87.344C129.131 86.832 129.088 86.32 129.088 85.808C129.088 85.4667 129.109 85.2533 129.152 85.168C129.237 85.0827 129.451 85.04 129.792 85.04C131.584 85.04 133.184 84.464 134.592 83.312C136.043 82.1173 137.323 80.5387 138.432 78.576C139.584 76.5707 140.565 74.3733 141.376 71.984C142.229 69.552 142.912 67.0987 143.424 64.624C143.979 62.1067 144.384 59.7387 144.64 57.52C144.896 55.3013 145.024 53.424 145.024 51.888C145.024 50.864 144.853 49.968 144.512 49.2C144.213 48.432 143.573 47.8347 142.592 47.408C141.653 46.9813 140.245 46.768 138.368 46.768C138.283 46.768 138.24 46.64 138.24 46.384C138.24 46.128 138.283 46 138.368 46C138.624 46 139.349 46 140.544 46C141.739 46 143.232 46 145.024 46C146.859 46 148.821 46 150.912 46C153.003 46 155.093 46 157.184 46C159.275 46 161.195 46 162.944 46C164.693 46 166.123 46 167.232 46C168.384 46 169.045 46 169.216 46C169.301 46 169.344 46.128 169.344 46.384C169.344 46.64 169.301 46.768 169.216 46.768C167.68 46.768 166.528 46.896 165.76 47.152C164.992 47.3653 164.459 47.792 164.16 48.432C163.904 49.0293 163.776 49.9467 163.776 51.184V80.816C163.776 81.8827 163.797 82.736 163.84 83.376C163.925 83.9733 164.16 84.4 164.544 84.656C164.928 84.912 165.568 85.0827 166.464 85.168C167.403 85.2107 168.704 85.232 170.368 85.232ZM158.72 80.688V51.312C158.72 50.032 158.656 49.136 158.528 48.624C158.4 48.0693 158.016 47.7493 157.376 47.664C156.779 47.536 155.755 47.472 154.304 47.472H150.976C149.739 47.472 148.864 47.664 148.352 48.048C147.84 48.3893 147.499 49.072 147.328 50.096C147.2 51.0773 147.051 52.5707 146.88 54.576C146.795 55.5147 146.624 56.816 146.368 58.48C146.112 60.144 145.771 62 145.344 64.048C144.96 66.096 144.469 68.208 143.872 70.384C143.275 72.5173 142.571 74.5867 141.76 76.592C140.949 78.5547 139.989 80.304 138.88 81.84C137.813 83.376 136.597 84.528 135.232 85.296L135.104 84.464H153.984C155.563 84.464 156.672 84.4213 157.312 84.336C157.995 84.2507 158.4 83.952 158.528 83.44C158.656 82.8853 158.72 81.968 158.72 80.688ZM196.174 86.768C193.102 86.768 190.307 86.2347 187.79 85.168C185.315 84.0587 183.182 82.544 181.39 80.624C179.641 78.704 178.275 76.5067 177.294 74.032C176.355 71.5147 175.886 68.848 175.886 66.032C175.886 62.576 176.547 59.5467 177.87 56.944C179.235 54.3413 181.027 52.1867 183.246 50.48C185.465 48.7307 187.897 47.4293 190.542 46.576C193.187 45.7227 195.811 45.296 198.414 45.296C201.571 45.296 204.387 45.872 206.862 47.024C209.379 48.1333 211.513 49.648 213.262 51.568C215.011 53.488 216.334 55.664 217.23 58.096C218.169 60.528 218.638 63.024 218.638 65.584C218.638 68.5707 218.041 71.344 216.846 73.904C215.651 76.464 214.009 78.704 211.918 80.624C209.87 82.544 207.481 84.0587 204.75 85.168C202.062 86.2347 199.203 86.768 196.174 86.768ZM198.414 85.36C201.102 85.36 203.534 84.6773 205.71 83.312C207.929 81.904 209.657 79.8773 210.894 77.232C212.174 74.544 212.814 71.2587 212.814 67.376C212.814 63.408 212.11 59.888 210.702 56.816C209.337 53.7013 207.374 51.2693 204.814 49.52C202.297 47.728 199.289 46.832 195.79 46.832C191.31 46.832 187.833 48.3467 185.358 51.376C182.926 54.4053 181.71 58.544 181.71 63.792C181.71 66.8213 182.094 69.6587 182.862 72.304C183.673 74.9067 184.825 77.1893 186.318 79.152C187.811 81.1147 189.582 82.6507 191.63 83.76C193.678 84.8267 195.939 85.36 198.414 85.36Z" fill="white"/>
<path d="M487.44 85.232C487.525 85.232 487.568 85.36 487.568 85.616C487.568 85.872 487.525 86 487.44 86C486.373 86 485.179 85.9787 483.856 85.936C482.533 85.8933 481.147 85.872 479.696 85.872C478.117 85.872 476.645 85.8933 475.28 85.936C473.915 85.9787 472.677 86 471.568 86C471.483 86 471.44 85.872 471.44 85.616C471.44 85.36 471.483 85.232 471.568 85.232C473.147 85.232 474.299 85.1253 475.024 84.912C475.792 84.6987 476.304 84.272 476.56 83.632C476.816 82.992 476.944 82.0533 476.944 80.816V51.632C476.944 50.3093 476.88 49.3707 476.752 48.816C476.624 48.2613 476.24 47.9413 475.6 47.856C475.003 47.728 473.979 47.664 472.528 47.664H459.408C457.829 47.664 456.699 47.728 456.016 47.856C455.376 47.984 454.971 48.3253 454.8 48.88C454.672 49.392 454.608 50.3093 454.608 51.632V80.816C454.608 82.0533 454.736 82.992 454.992 83.632C455.248 84.272 455.76 84.6987 456.528 84.912C457.296 85.1253 458.448 85.232 459.984 85.232C460.112 85.232 460.176 85.36 460.176 85.616C460.176 85.872 460.112 86 459.984 86C458.875 86 457.637 85.9787 456.272 85.936C454.949 85.8933 453.499 85.872 451.92 85.872C450.469 85.872 449.061 85.8933 447.696 85.936C446.373 85.9787 445.179 86 444.112 86C444.027 86 443.984 85.872 443.984 85.616C443.984 85.36 444.027 85.232 444.112 85.232C445.648 85.232 446.8 85.1253 447.568 84.912C448.379 84.6987 448.912 84.272 449.168 83.632C449.424 82.992 449.552 82.0533 449.552 80.816V51.952C449.552 50.1173 449.232 48.7947 448.592 47.984C447.952 47.1733 446.501 46.768 444.24 46.768C444.112 46.768 444.048 46.64 444.048 46.384C444.048 46.128 444.112 46 444.24 46C444.965 46 446.416 46.0213 448.592 46.064C450.811 46.1067 453.435 46.1493 456.464 46.192C459.536 46.192 462.736 46.192 466.064 46.192C468.709 46.192 471.227 46.192 473.616 46.192C476.048 46.1493 478.245 46.128 480.208 46.128C482.213 46.0853 483.856 46.064 485.136 46.064C486.416 46.0213 487.184 46 487.44 46C487.525 46 487.568 46.128 487.568 46.384C487.568 46.64 487.525 46.768 487.44 46.768C485.136 46.768 483.643 47.1733 482.96 47.984C482.32 48.7947 482 50.1173 482 51.952V80.816C482 82.0533 482.128 82.992 482.384 83.632C482.683 84.272 483.216 84.6987 483.984 84.912C484.752 85.1253 485.904 85.232 487.44 85.232ZM513.049 86.768C509.977 86.768 507.182 86.2347 504.665 85.168C502.19 84.0587 500.057 82.544 498.265 80.624C496.516 78.704 495.15 76.5067 494.169 74.032C493.23 71.5147 492.761 68.848 492.761 66.032C492.761 62.576 493.422 59.5467 494.745 56.944C496.11 54.3413 497.902 52.1867 500.121 50.48C502.34 48.7307 504.772 47.4293 507.417 46.576C510.062 45.7227 512.686 45.296 515.289 45.296C518.446 45.296 521.262 45.872 523.737 47.024C526.254 48.1333 528.388 49.648 530.137 51.568C531.886 53.488 533.209 55.664 534.105 58.096C535.044 60.528 535.513 63.024 535.513 65.584C535.513 68.5707 534.916 71.344 533.721 73.904C532.526 76.464 530.884 78.704 528.793 80.624C526.745 82.544 524.356 84.0587 521.625 85.168C518.937 86.2347 516.078 86.768 513.049 86.768ZM515.289 85.36C517.977 85.36 520.409 84.6773 522.585 83.312C524.804 81.904 526.532 79.8773 527.769 77.232C529.049 74.544 529.689 71.2587 529.689 67.376C529.689 63.408 528.985 59.888 527.577 56.816C526.212 53.7013 524.249 51.2693 521.689 49.52C519.172 47.728 516.164 46.832 512.665 46.832C508.185 46.832 504.708 48.3467 502.233 51.376C499.801 54.4053 498.585 58.544 498.585 63.792C498.585 66.8213 498.969 69.6587 499.737 72.304C500.548 74.9067 501.7 77.1893 503.193 79.152C504.686 81.1147 506.457 82.6507 508.505 83.76C510.553 84.8267 512.814 85.36 515.289 85.36ZM565.313 45.296C567.19 45.296 569.174 45.488 571.265 45.872C573.398 46.2133 575.105 46.704 576.385 47.344C576.726 47.5573 576.961 47.7493 577.089 47.92C577.217 48.0907 577.302 48.4107 577.345 48.88L578.049 56.56C578.049 56.688 577.942 56.7733 577.729 56.816C577.516 56.8587 577.388 56.7947 577.345 56.624C576.236 53.2533 574.401 50.7787 571.841 49.2C569.324 47.5787 566.316 46.768 562.817 46.768C559.66 46.768 556.929 47.4933 554.625 48.944C552.364 50.352 550.614 52.3573 549.377 54.96C548.182 57.52 547.585 60.528 547.585 63.984C547.585 66.9707 548.012 69.7867 548.865 72.432C549.761 75.0773 550.998 77.4027 552.577 79.408C554.156 81.3707 555.969 82.928 558.017 84.08C560.108 85.1893 562.348 85.744 564.737 85.744C567.638 85.744 570.22 84.8907 572.481 83.184C574.742 81.4773 576.556 78.832 577.921 75.248C577.964 75.0773 578.092 75.0133 578.305 75.056C578.561 75.0987 578.689 75.184 578.689 75.312L577.793 82.992C577.708 83.504 577.601 83.8453 577.473 84.016C577.388 84.144 577.153 84.2933 576.769 84.464C574.721 85.2747 572.694 85.8507 570.689 86.192C568.684 86.576 566.7 86.768 564.737 86.768C560.641 86.768 557.121 86.1493 554.177 84.912C551.276 83.632 548.908 81.968 547.073 79.92C545.238 77.8293 543.894 75.5467 543.041 73.072C542.188 70.5973 541.761 68.144 541.761 65.712C541.761 62.5973 542.401 59.8027 543.681 57.328C544.961 54.8533 546.71 52.72 548.929 50.928C551.148 49.136 553.665 47.7493 556.481 46.768C559.297 45.7867 562.241 45.296 565.313 45.296ZM585.278 86.768C584.339 86.768 583.55 86.5547 582.91 86.128C582.27 85.7013 581.95 85.04 581.95 84.144C581.95 83.248 582.227 82.6293 582.782 82.288C583.379 81.9467 584.062 81.776 584.83 81.776C585.043 81.776 585.256 81.776 585.47 81.776C585.726 81.776 585.96 81.776 586.174 81.776C587.667 81.776 589.011 81.1787 590.206 79.984C591.443 78.7467 592.51 77.104 593.406 75.056C594.344 73.008 595.112 70.704 595.71 68.144C596.35 65.584 596.819 62.96 597.118 60.272C597.416 57.584 597.566 55.024 597.566 52.592C597.566 51.3547 597.416 50.3093 597.118 49.456C596.819 48.56 596.222 47.8987 595.326 47.472C594.43 47.0027 593.086 46.768 591.294 46.768C591.166 46.768 591.102 46.64 591.102 46.384C591.102 46.128 591.166 46 591.294 46C591.55 46 592.275 46 593.47 46C594.707 46 596.222 46 598.014 46C599.848 46 601.811 46 603.902 46C606.035 46 608.147 46 610.238 46C612.371 46 614.334 46 616.126 46C617.918 46 619.368 46 620.478 46C621.63 46 622.291 46 622.462 46C622.547 46 622.59 46.128 622.59 46.384C622.59 46.64 622.547 46.768 622.462 46.768C620.926 46.768 619.752 46.896 618.942 47.152C618.174 47.3653 617.662 47.792 617.406 48.432C617.15 49.0293 617.022 49.9467 617.022 51.184V80.816C617.022 82.0533 617.15 82.992 617.406 83.632C617.662 84.272 618.174 84.6987 618.942 84.912C619.752 85.1253 620.926 85.232 622.462 85.232C622.547 85.232 622.59 85.36 622.59 85.616C622.59 85.872 622.547 86 622.462 86C621.395 86 620.2 85.9787 618.878 85.936C617.555 85.8933 616.147 85.872 614.654 85.872C613.118 85.872 611.667 85.8933 610.302 85.936C608.936 85.9787 607.699 86 606.59 86C606.504 86 606.462 85.872 606.462 85.616C606.462 85.36 606.504 85.232 606.59 85.232C608.168 85.232 609.342 85.1253 610.11 84.912C610.878 84.6987 611.368 84.272 611.582 83.632C611.838 82.992 611.966 82.0533 611.966 80.816V51.632C611.966 50.3093 611.902 49.3707 611.774 48.816C611.646 48.2613 611.262 47.9413 610.622 47.856C610.024 47.728 608.979 47.664 607.486 47.664H603.966C602.814 47.664 601.875 47.7707 601.15 47.984C600.467 48.1547 599.976 48.5813 599.678 49.264C599.379 49.9467 599.23 51.056 599.23 52.592C599.23 54.2987 599.144 56.3253 598.974 58.672C598.803 61.0187 598.504 63.472 598.078 66.032C597.694 68.592 597.16 71.088 596.478 73.52C595.838 75.952 594.984 78.192 593.918 80.24C592.894 82.2453 591.678 83.8453 590.27 85.04C588.862 86.192 587.198 86.768 585.278 86.768ZM654.704 86H627.44C627.312 86 627.248 85.872 627.248 85.616C627.248 85.36 627.312 85.232 627.44 85.232C628.89 85.232 629.978 85.1253 630.704 84.912C631.472 84.6987 631.984 84.272 632.24 83.632C632.496 82.992 632.624 82.0533 632.624 80.816V51.184C632.624 49.9467 632.496 49.0293 632.24 48.432C631.984 47.792 631.472 47.3653 630.704 47.152C629.978 46.896 628.89 46.768 627.44 46.768C627.312 46.768 627.248 46.64 627.248 46.384C627.248 46.128 627.312 46 627.44 46H653.552C653.978 46 654.192 46.192 654.192 46.576L654.32 54.64C654.32 54.768 654.192 54.8533 653.936 54.896C653.722 54.896 653.594 54.832 653.552 54.704C653.253 52.3573 652.421 50.5867 651.056 49.392C649.69 48.1547 647.898 47.536 645.68 47.536H642.416C641.136 47.536 640.154 47.6427 639.472 47.856C638.789 48.0693 638.32 48.4747 638.064 49.072C637.808 49.6267 637.68 50.416 637.68 51.44V80.56C637.68 81.584 637.786 82.3947 638 82.992C638.256 83.5467 638.704 83.952 639.344 84.208C639.984 84.4213 640.88 84.528 642.032 84.528H646.256C648.688 84.528 650.693 83.824 652.272 82.416C653.85 80.9653 654.938 78.9173 655.536 76.272C655.536 76.144 655.664 76.1013 655.92 76.144C656.176 76.1867 656.304 76.272 656.304 76.4C656.133 77.552 655.984 78.9387 655.856 80.56C655.728 82.1813 655.664 83.6747 655.664 85.04C655.664 85.68 655.344 86 654.704 86ZM651.12 71.28C651.12 69.4453 650.586 68.1013 649.52 67.248C648.496 66.352 646.832 65.904 644.528 65.904H635.248V64.432H644.72C646.896 64.432 648.496 64.0693 649.52 63.344C650.544 62.576 651.056 61.4027 651.056 59.824C651.056 59.7387 651.162 59.696 651.376 59.696C651.632 59.696 651.76 59.7387 651.76 59.824C651.76 61.1467 651.738 62.1707 651.696 62.896C651.696 63.6213 651.696 64.3893 651.696 65.2C651.696 66.1813 651.717 67.1627 651.76 68.144C651.845 69.1253 651.888 70.1707 651.888 71.28C651.888 71.3653 651.76 71.408 651.504 71.408C651.248 71.408 651.12 71.3653 651.12 71.28Z" fill="white"/>
</g>
<defs>
<linearGradient id="paint0_linear_2003_80" x1="366" y1="126" x2="366" y2="0" gradientUnits="userSpaceOnUse">
<stop stop-opacity="0"/>
<stop offset="1"/>
</linearGradient>
<clipPath id="clip0_2003_80">
<rect width="731" height="112" fill="white"/>
</clipPath>
</defs>
</svg>
