<svg width="1600" height="1048" viewBox="0 0 1600 1048" fill="none" xmlns="http://www.w3.org/2000/svg">
<g clip-path="url(#clip0_43_945)">
<rect width="1600" height="1048" fill="black"/>
<path fill-rule="evenodd" clip-rule="evenodd" d="M1600 131L1600 -1.52588e-05L0.000110618 0.000124618L-4.687e-06 77.3871C178.529 84.8868 357.903 67.2613 538.068 49.558C728.448 30.8511 919.711 12.0573 1111.79 22.7302C1335.93 35.1842 1441.16 67.4187 1534.13 95.8971C1556.3 102.689 1577.78 109.266 1600 115.312L1600 131Z" fill="white"/>
<path d="M1494.55 166.176C1357.63 109.876 1202.68 81.6105 1056.04 78.6981C1030.1 78.0092 1000.01 78.8653 974.259 79.9813C966.802 80.4999 947.206 81.7388 939.475 82.2389L904.96 85.5092C897.312 86.4546 878.43 88.8643 870.644 89.8365C847.833 93.2152 825.315 96.9572 802.933 101.473C789.481 103.985 771.936 108.386 758.475 111.236C771.842 107.987 789.312 103.288 802.568 100.558C831.743 94.1464 862.725 88.566 892.907 84.7206L904.343 83.1479L915.868 81.937C932.482 79.9316 957.012 78.0547 973.772 76.9597C981.176 76.659 1001.23 75.8355 1008.84 75.5364C1142.02 72.2274 1277.04 91.6093 1405.99 132.547C1436.08 142.415 1466 153.055 1494.63 166.207L1494.55 166.176Z" fill="url(#paint0_linear_43_945)"/>
<path d="M1438.35 119.533C1325.98 72.9714 1198.74 49.4033 1078.27 46.6841C1056.97 46.0604 1032.24 46.6969 1011.08 47.5565C1004.96 47.966 988.855 48.9403 982.502 49.334L954.139 51.9442C947.854 52.7039 932.337 54.6418 925.938 55.4232C907.19 58.1485 888.683 61.1729 870.285 64.8336C859.228 66.8677 844.805 70.4444 833.741 72.7562C844.729 70.116 859.091 66.2946 869.987 64.0808C893.969 58.8778 919.435 54.3617 944.239 51.2694L953.637 50.0027L963.108 49.0334C976.761 47.4227 996.918 45.9352 1010.69 45.0728C1016.77 44.8422 1033.25 44.2102 1039.5 43.9814C1148.93 41.559 1259.82 57.784 1365.67 91.7063C1390.37 99.8812 1414.93 108.69 1438.42 119.56L1438.35 119.533Z" fill="url(#paint1_linear_43_945)"/>
</g>
<defs>
<linearGradient id="paint0_linear_43_945" x1="1112.26" y1="197.841" x2="1144.61" y2="65.6949" gradientUnits="userSpaceOnUse">
<stop stop-color="#E8BF85"/>
<stop offset="0.55" stop-color="#F0D6AF"/>
<stop offset="1" stop-color="#A38150"/>
</linearGradient>
<linearGradient id="paint1_linear_43_945" x1="1124.21" y1="144.7" x2="1151.08" y2="36.2031" gradientUnits="userSpaceOnUse">
<stop stop-color="#E8BF85"/>
<stop offset="0.55" stop-color="#F0D6AF"/>
<stop offset="1" stop-color="#A38150"/>
</linearGradient>
<clipPath id="clip0_43_945">
<rect width="1600" height="1048" fill="white"/>
</clipPath>
</defs>
</svg>
