<svg width="375" height="1247" viewBox="0 0 375 1247" fill="none" xmlns="http://www.w3.org/2000/svg">
<g clip-path="url(#clip0_130_1271)">
<rect width="375" height="1247" fill="black"/>
<path fill-rule="evenodd" clip-rule="evenodd" d="M-96 58L-96 -1.85632L471 -1.85627L471 38.314C407.734 42.207 344.168 33.0579 280.322 23.8684C212.856 14.1579 145.078 4.40238 77.0077 9.94252C-2.42128 16.4072 -39.7125 33.1396 -72.6581 47.9222L-72.6581 47.9222C-80.515 51.4476 -88.1248 54.8621 -96 58Z" fill="white"/>
<path d="M-128.483 1187.96C-62.003 1175.22 10.1062 1176.11 76.2425 1187.25C87.9538 1189.14 101.396 1192.06 112.868 1194.71C116.172 1195.57 124.866 1197.76 128.295 1198.63L143.512 1202.96C146.864 1204.01 155.134 1206.65 158.547 1207.73C168.496 1211.11 178.282 1214.63 187.939 1218.47C193.76 1220.69 201.254 1224.08 207.049 1226.44C201.331 1223.91 193.897 1220.41 188.183 1218.11C175.643 1212.87 162.216 1207.85 148.996 1203.64L143.998 1201.99L138.927 1200.49C131.64 1198.22 120.786 1195.34 113.353 1193.45C110.053 1192.7 101.117 1190.65 97.7252 1189.87C38.1832 1177.19 -24.1864 1174.15 -85.7303 1180.92C-100.12 1182.64 -114.501 1184.71 -128.522 1187.97L-128.483 1187.96Z" fill="url(#paint0_linear_130_1271)"/>
<path d="M-82.0538 1202.79C-27.6835 1191.1 31.5623 1190.5 86.0914 1198.43C95.746 1199.76 106.841 1201.91 116.313 1203.88C119.042 1204.52 126.224 1206.16 129.057 1206.81L141.636 1210.08C144.409 1210.89 151.25 1212.9 154.073 1213.72C162.308 1216.32 170.411 1219.03 178.414 1222.01C183.237 1223.72 189.454 1226.36 194.258 1228.2C189.515 1226.23 183.344 1223.49 178.608 1221.7C168.211 1217.64 157.089 1213.75 146.153 1210.54L142.017 1209.28L137.824 1208.15C131.797 1206.42 122.828 1204.25 116.688 1202.83C113.964 1202.27 106.586 1200.76 103.786 1200.18C54.6442 1190.87 3.35856 1189.52 -47.0674 1196.22C-58.8555 1197.9 -70.6297 1199.86 -82.0856 1202.8L-82.0538 1202.79Z" fill="url(#paint1_linear_130_1271)"/>
<path fill-rule="evenodd" clip-rule="evenodd" d="M471 1187.14V1247H-96V1206.83C-32.7338 1202.94 30.8318 1212.09 94.6779 1221.28C162.144 1230.99 229.922 1240.74 297.992 1235.2C377.421 1228.74 414.712 1212 447.658 1197.22L447.658 1197.22C455.515 1193.7 463.125 1190.28 471 1187.14Z" fill="white"/>
</g>
<defs>
<linearGradient id="paint0_linear_130_1271" x1="40.4661" y1="1233.94" x2="37.7766" y2="1174.14" gradientUnits="userSpaceOnUse">
<stop stop-color="#E8BF85"/>
<stop offset="0.55" stop-color="#F0D6AF"/>
<stop offset="1" stop-color="#A38150"/>
</linearGradient>
<linearGradient id="paint1_linear_130_1271" x1="57.5679" y1="1237.43" x2="54.2539" y2="1188.37" gradientUnits="userSpaceOnUse">
<stop stop-color="#E8BF85"/>
<stop offset="0.55" stop-color="#F0D6AF"/>
<stop offset="1" stop-color="#A38150"/>
</linearGradient>
<clipPath id="clip0_130_1271">
<rect width="375" height="1247" fill="white"/>
</clipPath>
</defs>
</svg>
