<svg width="1600" height="528" viewBox="0 0 1600 528" fill="none" xmlns="http://www.w3.org/2000/svg">
<g clip-path="url(#clip0_2018_14)">
<g clip-path="url(#clip1_2018_14)">
<rect width="1600" height="1056" transform="translate(0 -528)" fill="black"/>
<path d="M26.3786 464.857C154.622 436.262 294.417 434.908 423.117 454.475C445.904 457.784 472.093 463.07 494.45 467.93C500.894 469.508 517.847 473.547 524.533 475.15L554.229 483.216C560.776 485.196 576.927 490.151 583.591 492.176C603.033 498.571 622.164 505.24 641.06 512.565C652.447 516.791 667.129 523.286 678.473 527.809C667.272 522.951 652.7 516.207 641.517 511.82C616.966 501.812 590.709 492.259 564.89 484.344L555.124 481.244L545.227 478.446C530.998 474.187 509.826 468.846 495.331 465.361C488.901 463.981 471.486 460.237 464.876 458.828C348.883 435.848 227.863 432.438 108.905 448.798C81.097 452.892 53.3227 457.686 26.3036 464.873L26.3786 464.857Z" fill="url(#paint0_linear_2018_14)"/>
<path d="M82.5646 432.535C187.869 408.756 302.719 407.331 408.497 423.121C427.225 425.788 448.753 430.073 467.131 434.016C472.429 435.298 486.365 438.578 491.862 439.881L516.276 446.441C521.659 448.053 534.939 452.089 540.418 453.737C556.405 458.948 572.136 464.384 587.676 470.361C597.04 473.807 609.116 479.111 618.445 482.802C609.232 478.835 597.246 473.327 588.05 469.747C567.858 461.58 546.266 453.789 525.037 447.344L517.008 444.819L508.87 442.543C497.171 439.075 479.765 434.734 467.85 431.903C462.564 430.784 448.248 427.746 442.814 426.603C347.469 407.982 248.034 405.451 150.334 419.158C127.496 422.583 104.687 426.583 82.503 432.549L82.5646 432.535Z" fill="url(#paint1_linear_2018_14)"/>
<path fill-rule="evenodd" clip-rule="evenodd" d="M1599.75 397.192V528.192H-0.25354L-0.253662 450.805C178.276 443.305 357.649 460.93 537.815 478.634C728.194 497.341 919.457 516.134 1111.54 505.462C1335.68 493.008 1440.91 460.773 1533.88 432.295C1556.05 425.503 1577.52 418.925 1599.75 412.88L1599.75 397.192Z" fill="white"/>
</g>
</g>
<defs>
<linearGradient id="paint0_linear_2018_14" x1="355.975" y1="550.205" x2="347.61" y2="429.745" gradientUnits="userSpaceOnUse">
<stop stop-color="#E8BF85"/>
<stop offset="0.55" stop-color="#F0D6AF"/>
<stop offset="1" stop-color="#A38150"/>
</linearGradient>
<linearGradient id="paint1_linear_2018_14" x1="353.532" y1="501.922" x2="346.39" y2="402.972" gradientUnits="userSpaceOnUse">
<stop stop-color="#E8BF85"/>
<stop offset="0.55" stop-color="#F0D6AF"/>
<stop offset="1" stop-color="#A38150"/>
</linearGradient>
<clipPath id="clip0_2018_14">
<rect width="1600" height="528" fill="white"/>
</clipPath>
<clipPath id="clip1_2018_14">
<rect width="1600" height="1056" fill="white" transform="translate(0 -528)"/>
</clipPath>
</defs>
</svg>
