<svg width="767" height="761" viewBox="0 0 767 761" fill="none" xmlns="http://www.w3.org/2000/svg">
<g clip-path="url(#clip0_130_1376)">
<rect width="767" height="761" fill="black"/>
<path fill-rule="evenodd" clip-rule="evenodd" d="M0 58L5.23281e-06 -1.85632L767 -1.85625L767 38.314C681.418 42.207 595.43 33.0579 509.064 23.8684C417.801 14.1579 326.114 4.40239 234.033 9.94253C126.587 16.4072 76.1421 33.1396 31.5755 47.9222L31.5754 47.9222C20.9471 51.4476 10.6531 54.8621 0 58Z" fill="white"/>
<path d="M361.372 724.618C298.446 699.677 227.441 687.07 160.389 685.643C148.53 685.314 134.781 685.662 123.015 686.128C119.609 686.349 110.659 686.876 107.128 687.089L91.3693 688.496C87.8789 688.905 79.2619 689.948 75.7083 690.369C65.301 691.835 55.0299 693.462 44.8254 695.43C38.6912 696.524 30.6973 698.445 24.5613 699.688C30.652 698.269 38.61 696.216 44.6531 695.026C57.9513 692.23 72.0809 689.801 85.8549 688.136L91.0731 687.455L96.3341 686.932C103.917 686.065 115.119 685.262 122.774 684.796C126.157 684.671 135.318 684.328 138.795 684.203C199.659 682.876 261.497 691.549 320.689 709.714C334.504 714.091 348.245 718.809 361.409 724.632L361.372 724.618Z" fill="url(#paint0_linear_130_1376)"/>
<path d="M312.988 730.507C261.763 708.858 203.674 697.191 148.625 694.78C138.89 694.291 127.59 694.322 117.917 694.488C115.115 694.607 107.754 694.874 104.849 694.983L91.8799 695.848C89.0053 696.12 81.9082 696.817 78.9816 697.097C70.4061 698.109 61.9395 699.256 53.5214 700.684C48.4626 701.469 41.861 702.899 36.798 703.807C41.827 702.754 48.4015 701.215 53.3872 700.349C64.3618 698.298 76.0126 696.564 87.3571 695.451L91.6558 694.987L95.9868 694.656C102.231 694.083 111.447 693.631 117.744 693.39C120.525 693.349 128.056 693.237 130.914 693.199C180.931 693.233 231.564 701.499 279.847 717.513C291.114 721.364 302.314 725.493 313.018 730.519L312.988 730.507Z" fill="url(#paint1_linear_130_1376)"/>
<path fill-rule="evenodd" clip-rule="evenodd" d="M767 701.144V761H0V720.83C85.5824 716.937 171.57 726.086 257.936 735.275C349.199 744.986 440.886 754.741 532.967 749.201C640.413 742.737 690.858 726.004 735.425 711.221L735.425 711.221C746.053 707.696 756.347 704.282 767 701.144Z" fill="white"/>
</g>
<defs>
<linearGradient id="paint0_linear_130_1376" x1="186.806" y1="738.196" x2="200.628" y2="679.959" gradientUnits="userSpaceOnUse">
<stop stop-color="#E8BF85"/>
<stop offset="0.55" stop-color="#F0D6AF"/>
<stop offset="1" stop-color="#A38150"/>
</linearGradient>
<linearGradient id="paint1_linear_130_1376" x1="169.352" y1="738.434" x2="181.781" y2="690.855" gradientUnits="userSpaceOnUse">
<stop stop-color="#E8BF85"/>
<stop offset="0.55" stop-color="#F0D6AF"/>
<stop offset="1" stop-color="#A38150"/>
</linearGradient>
<clipPath id="clip0_130_1376">
<rect width="767" height="761" fill="white"/>
</clipPath>
</defs>
</svg>
