<svg width="33" height="43" viewBox="0 0 33 43" fill="none" xmlns="http://www.w3.org/2000/svg">
<path d="M16.5746 0C7.68466 0 0.450195 7.28463 0.450195 16.2408C0.450195 28.9665 15.0589 42.1061 15.6806 42.6579C15.9263 42.8779 16.2444 42.9997 16.5742 43C16.904 43.0003 17.2224 42.8792 17.4686 42.6597C18.0903 42.1061 32.6989 28.9665 32.6989 16.2408C32.6989 7.28463 25.4645 0 16.5746 0ZM16.5746 25.0824C11.6351 25.0824 7.61658 21.0638 7.61658 16.1244C7.61658 11.1849 11.6351 7.16639 16.5746 7.16639C21.514 7.16639 25.5326 11.1849 25.5326 16.1244C25.5326 21.0638 21.514 25.0824 16.5746 25.0824Z" fill="url(#paint0_linear_43_1067)"/>
<defs>
<linearGradient id="paint0_linear_43_1067" x1="16.5746" y1="0" x2="16.5746" y2="43" gradientUnits="userSpaceOnUse">
<stop stop-color="#E8BF85"/>
<stop offset="0.55" stop-color="#F0D6AF"/>
<stop offset="1" stop-color="#A38150"/>
</linearGradient>
</defs>
</svg>
