<svg width="1600" height="860" viewBox="0 0 1600 860" fill="none" xmlns="http://www.w3.org/2000/svg">
    <g clip-path="url(#clip0_5_55)">
        <rect width="1600" height="860" fill="black"/>
        <path fill-rule="evenodd" clip-rule="evenodd"
              d="M0 729V860H1600L1600 782.613C1421.47 775.113 1242.1 792.739 1061.93 810.442C871.553 829.149 680.289 847.943 488.205 837.27C264.067 824.816 158.836 792.581 65.8678 764.103C43.6966 757.311 22.2228 750.734 9.67653e-06 744.688L0 729Z"
              fill="white"/>
        <path d="M7.31419 709.913C137.75 771.085 286.952 807.103 429.212 818.857C454.362 821.099 483.617 822.149 508.674 822.688C515.938 822.662 535.02 822.707 542.549 822.714L576.209 821.775C583.678 821.36 602.119 820.265 609.723 819.833C632.023 818.072 654.055 815.952 675.989 813.099C689.163 811.573 706.395 808.53 719.592 806.689C706.469 808.911 689.296 812.237 676.303 813.979C647.688 818.19 617.355 821.511 587.877 823.256L576.703 824.025L565.459 824.45C549.237 825.306 525.335 825.555 509.012 825.549C501.809 825.375 482.301 824.913 474.9 824.724C345.428 819.627 215.186 793.158 91.803 746.869C63.0233 735.772 34.445 723.962 7.23766 709.879L7.31419 709.913Z"
              fill="url(#paint0_linear_5_55)"/>
        <path d="M117.535 709.962C223.543 762.617 345.429 794.959 462.062 807.242C482.679 809.548 506.689 810.951 527.26 811.857C533.227 811.969 548.9 812.359 555.084 812.504L582.749 812.354C588.891 812.152 604.059 811.593 610.313 811.379C628.663 810.344 646.798 809.01 664.867 807.072C675.716 806.062 689.927 803.881 700.801 802.612C689.98 804.194 675.813 806.609 665.109 807.8C641.527 810.73 616.551 812.898 592.306 813.786L583.113 814.212L573.87 814.353C560.53 814.757 540.892 814.519 527.485 814.213C521.572 813.937 505.557 813.196 499.481 812.905C393.229 806.326 286.74 782.179 186.25 741.878C162.815 732.231 139.56 722.002 117.472 709.932L117.535 709.962Z"
              fill="url(#paint1_linear_5_55)"/>
    </g>
    <defs>
        <linearGradient id="paint0_linear_5_55" x1="379.929" y1="703.778" x2="342.99" y2="825.697"
                        gradientUnits="userSpaceOnUse">
            <stop stop-color="#E8BF85"/>
            <stop offset="0.55" stop-color="#F0D6AF"/>
            <stop offset="1" stop-color="#A38150"/>
        </linearGradient>
        <linearGradient id="paint1_linear_5_55" x1="423.708" y1="711.807" x2="391.114" y2="811.267"
                        gradientUnits="userSpaceOnUse">
            <stop stop-color="#E8BF85"/>
            <stop offset="0.55" stop-color="#F0D6AF"/>
            <stop offset="1" stop-color="#A38150"/>
        </linearGradient>
        <clipPath id="clip0_5_55">
            <rect width="1600" height="860" fill="white"/>
        </clipPath>
    </defs>
</svg>
