<svg width="1055" height="447" viewBox="0 0 1055 447" fill="none" xmlns="http://www.w3.org/2000/svg">
    <path d="M130.793 375.275C190.873 395.83 257.985 401.003 320.904 393.737C332.035 392.541 344.91 390.308 355.919 388.202C359.102 387.492 367.469 385.69 370.77 384.974L385.481 381.245C388.735 380.306 396.767 377.95 400.08 376.989C409.772 373.904 419.329 370.65 428.809 367.01C434.512 364.926 441.921 361.633 447.619 359.375C441.972 361.831 434.601 365.271 428.988 367.455C416.644 372.468 403.505 377.165 390.666 380.928L385.804 382.413L380.895 383.719C373.825 385.733 363.359 388.155 356.203 389.714C353.037 390.31 344.464 391.927 341.21 392.533C284.213 402.171 225.865 400.34 169.583 387.148C156.44 383.909 143.353 380.266 130.758 375.264L130.793 375.275Z"
          fill="#E2C08D"/>
    <g style="mix-blend-mode:screen" clip-path="url(#clip0_41_97)">
        <path d="M138.672 119.872C175.135 111.235 213.173 111.787 249.37 121.478C250.824 121.886 254.694 122.884 256.099 123.358C259.488 124.465 263.833 125.743 267.155 127.008C272.911 129.07 278.831 131.497 284.417 133.949C236.957 115.632 188.785 110.888 138.672 119.872Z"
              fill="#E2C08D"/>
        <path d="M890.181 131.668C867.424 165.937 837.277 194.675 801.954 215.768C748.562 248.118 683.164 254.901 623.803 236.238C614.281 233.488 604.132 229.498 594.81 226.079C588.92 223.925 582.641 222.088 576.556 220.464C553.118 214.284 528.756 211.838 504.557 211.607C489.222 211.495 473.892 212.193 458.631 213.7C453.532 214.119 448.457 214.776 443.377 215.33C458.552 213.231 473.885 211.68 489.206 211.072C524.935 209.606 561.436 212.684 595.346 224.588C602.069 227.022 610.222 230.197 616.982 232.375C638.765 239.498 661.516 243.933 684.43 244.663C718.826 245.977 753.381 238.446 784.357 223.493C826.791 202.938 863.457 170.412 890.229 131.637L890.181 131.668Z"
              fill="#E2C08D"/>
        <path d="M937.421 85.959C930.509 110.774 920.045 134.459 906.353 156.281C896.01 172.565 883.615 187.743 868.672 199.994C867.497 200.882 864.151 203.571 862.916 204.38C859.697 206.735 856.253 208.931 852.846 210.981C894.701 182.882 921.37 132.653 937.421 85.959Z"
              fill="#E2C08D"/>
        <path d="M628.062 188.698C637.189 182.006 645.708 174.299 653.788 166.379C655.528 164.736 658.084 162.12 659.787 160.338C661.296 158.829 664.211 155.739 665.629 154.151C675.232 143.704 684.274 132.756 692.717 121.351C694.324 119.106 698.595 113.145 700.165 110.967C701.716 108.643 705.696 102.73 707.29 100.358C708.726 98.3079 710.533 95.2906 711.884 93.1737C713.385 90.7404 714.908 88.3355 716.453 85.959C714.5 89.542 712.194 93.5569 710.204 97.146C707.771 101.447 703.864 107.518 701.254 111.703C697.53 117.178 692.949 123.93 688.921 129.162C671.725 151.736 651.804 172.961 628.075 188.698H628.062Z"
              fill="#E2C08D"/>
        <path d="M705.781 184.993C759.587 174.147 817.269 149.668 852.846 106.52C851.568 108.132 849.195 111.32 847.923 112.81C846.171 114.775 844.419 116.916 842.648 118.82C808.574 155.502 754.75 177.693 705.781 184.987V184.993Z"
              fill="#E2C08D"/>
        <path d="M398.095 267.755C370.106 256.902 340.87 249.359 311.341 244.115C275.521 237.929 238.794 235.556 202.567 239.133C136.342 244.882 72.5451 274.239 25.7972 321.585C22.7914 324.626 19.8525 327.765 17.1023 331.068C27.9815 317.764 40.7957 306.127 54.267 295.494C110.355 251.543 176.865 233.591 247.514 235.921C260.17 236.28 273.519 237.345 286.084 238.884C324.374 243.902 362.324 253.076 398.095 267.742V267.755Z"
              fill="#E2C08D"/>
        <path d="M443.359 335.935C505.823 347.347 572.96 342.505 634.104 325.983C644.935 323.148 657.335 319.03 667.91 315.313C670.953 314.139 678.96 311.116 682.118 309.917L696.113 304.047C699.191 302.636 706.785 299.114 709.919 297.672C719.045 293.182 728.014 288.547 736.849 283.541C742.179 280.633 749.018 276.277 754.318 273.199C749.097 276.466 742.319 280.961 737.092 283.954C725.629 290.743 713.332 297.337 701.193 302.964L696.605 305.154L691.945 307.174C685.252 310.215 675.261 314.163 668.415 316.767C665.373 317.825 657.135 320.697 654.007 321.78C599.071 339.768 541.097 346.615 483.48 341.921C470.003 340.668 456.52 339.007 443.322 335.929L443.359 335.935Z"
              fill="#E2C08D"/>
        <path d="M644.223 376.699C675.989 350.116 711.112 327.823 748.689 310.392C712.347 330.004 677.438 352.162 644.223 376.699Z"
              fill="#E2C08D"/>
        <path d="M466.979 300.482C472.297 301.699 479.756 303.646 484.971 304.741C488.117 305.398 495.546 306.918 498.552 307.545C503.76 308.372 511.561 309.893 516.806 310.587C521.065 311.134 526.273 311.974 530.539 312.412L543.17 313.701C548.038 313.999 553.295 314.431 558.138 314.717C561.339 314.79 568.871 315.179 571.975 315.204C634.768 315.934 699.057 303.737 754.379 273.23C701.084 305.027 633.551 318.203 571.944 316.864C568.902 316.816 561.235 316.426 558.053 316.311C552.796 315.958 547.149 315.544 541.892 315.027C537.591 314.492 530.046 313.756 525.799 313.068C521.552 312.381 516.27 311.706 512.072 310.933C509.23 310.398 501.217 308.902 498.43 308.348C495.388 307.661 487.989 305.951 484.892 305.246C479.653 304.029 472.236 301.888 467.009 300.507L466.979 300.482Z"
              fill="#E2C08D"/>
        <path d="M86.5823 310.386C140.735 281.515 208.159 266.721 269.418 270.924C290.42 272.34 311.201 276.07 331.384 282.044C313.613 277.416 295.474 274.345 277.17 272.865C212.606 267.755 144.702 282.087 86.5823 310.386Z"
              fill="#E2C08D"/>
        <path d="M64.8724 228.768C120.522 194.915 194.146 166.573 260.072 174.98C275.889 177.029 291.27 181.627 305.615 188.594C362.634 215.792 421.101 240.892 482.19 257.286C502.562 262.517 523.377 267.019 544.509 267.019C537.911 267.141 531.312 266.847 524.752 266.137C478.819 260.577 434.785 244.931 391.804 228.421C362.348 216.802 333.392 203.954 304.794 190.286C290.649 183.356 275.474 178.765 259.859 176.69C194.079 168.252 121.051 195.973 64.8846 228.768H64.8724Z"
              fill="#E2C08D"/>
    </g>
    <defs>
        <clipPath id="clip0_41_97">
            <rect width="920.319" height="290.74" fill="white" transform="translate(17.1023 85.9587)"/>
        </clipPath>
    </defs>
</svg>
