<svg width="261" height="69" viewBox="0 0 261 69" fill="none" xmlns="http://www.w3.org/2000/svg">
<g clip-path="url(#clip0_125_1076)">
<path d="M102.524 23.7914C101.445 23.174 100.601 22.3667 99.9914 21.2745C99.3817 20.2298 99.0534 18.9951 99.0534 17.7129C99.0534 16.4307 99.3817 15.196 99.9914 14.1513C100.601 13.1066 101.445 12.2518 102.524 11.6344C103.603 11.0171 104.775 10.7322 106.135 10.7322C107.12 10.7322 108.011 10.8746 108.856 11.2071C109.7 11.5395 110.403 12.0144 110.966 12.6317L110.356 13.2965C109.278 12.2043 107.871 11.6819 106.182 11.6819C105.057 11.6819 104.025 11.9669 103.087 12.4892C102.149 13.0116 101.398 13.7239 100.882 14.6737C100.367 15.5759 100.085 16.6207 100.085 17.7604C100.085 18.9001 100.367 19.9448 100.882 20.8471C101.398 21.7494 102.149 22.5092 103.087 23.0316C104.025 23.5539 105.057 23.8389 106.182 23.8389C107.871 23.8389 109.278 23.269 110.356 22.1768L110.966 22.8416C110.403 23.459 109.653 23.9338 108.856 24.2662C108.011 24.5987 107.12 24.7411 106.135 24.7411C104.822 24.7411 103.603 24.4562 102.524 23.8389V23.7914Z" fill="white"/>
<path d="M122.504 11.7294H117.626V24.5987H116.641V11.7294H111.763V10.8271H122.55V11.7294H122.504Z" fill="white"/>
<path d="M134.885 10.8271L128.601 22.6042C128.178 23.364 127.709 23.9338 127.194 24.3137C126.631 24.6936 126.068 24.8836 125.411 24.8836C124.942 24.8836 124.426 24.7886 123.864 24.5512L124.192 23.7439C124.614 23.9338 125.036 24.0288 125.458 24.0288C126.396 24.0288 127.147 23.5064 127.756 22.4617L128.225 21.6544L122.644 10.9221H123.723L128.741 20.7046L133.853 10.9221H134.885V10.8271Z" fill="white"/>
<path d="M149.33 23.6964V27.7329H148.392V24.5987H135.964V27.7329H134.979V23.6964H135.729C136.62 23.6014 137.23 22.8416 137.605 21.417C137.981 19.9923 138.168 17.9503 138.262 15.3385L138.403 10.8271H147.267V23.6964H149.377H149.33ZM138.637 20.8946C138.356 22.3192 137.934 23.2215 137.277 23.6964H146.235V11.7294H139.294L139.2 15.4335C139.106 17.6654 138.965 19.47 138.684 20.8946H138.637Z" fill="white"/>
<path d="M152.52 10.8271H153.505V22.9366L162.791 10.8271H163.682V24.5987H162.697V12.5367L153.411 24.5987H152.52V10.8271Z" fill="white"/>
<path d="M177.893 10.8273V24.5988H176.908V20.2774H172.593C172.265 20.2774 171.936 20.2774 171.655 20.2299L168.653 24.5988H167.575L170.717 20.0399C169.685 19.755 168.935 19.2326 168.372 18.4728C167.809 17.713 167.575 16.7633 167.575 15.6236C167.575 14.1039 168.044 12.9167 168.982 12.062C169.92 11.2072 171.186 10.7798 172.781 10.7798H177.893V10.8273ZM169.591 18.4253C170.295 19.0902 171.327 19.4226 172.687 19.4226H176.908V11.7295H172.827C171.467 11.7295 170.389 12.062 169.638 12.7268C168.888 13.3916 168.513 14.3414 168.513 15.6236C168.513 16.9057 168.841 17.7605 169.544 18.4253H169.591Z" fill="white"/>
<path d="M197.732 18.6152C198.247 19.185 198.482 19.9448 198.482 20.9421C198.482 22.1293 198.06 23.0316 197.263 23.6489C196.465 24.2662 195.246 24.5987 193.604 24.5987H187.742V10.8271H193.229C194.636 10.8271 195.762 11.1121 196.559 11.7294C197.356 12.3468 197.778 13.2015 197.778 14.3413C197.778 15.1486 197.591 15.8134 197.169 16.3358C196.747 16.8581 196.184 17.2855 195.433 17.523C196.465 17.7129 197.216 18.0453 197.732 18.6627V18.6152ZM188.774 17.1905H193.229C194.355 17.1905 195.246 16.9531 195.856 16.4782C196.465 16.0033 196.747 15.3385 196.747 14.4362C196.747 13.534 196.418 12.8216 195.856 12.3468C195.293 11.8719 194.355 11.6344 193.229 11.6344H188.774V17.1905ZM197.497 20.8946C197.497 19.8973 197.169 19.185 196.512 18.7102C195.856 18.2353 194.918 17.9978 193.651 17.9978H188.774V23.7439H193.651C196.231 23.7439 197.497 22.7941 197.497 20.8471V20.8946Z" fill="white"/>
<path d="M204.579 23.7914C203.5 23.174 202.656 22.3667 202.046 21.2745C201.437 20.2298 201.108 19.0426 201.108 17.7129C201.108 16.3832 201.437 15.196 202.046 14.1513C202.656 13.1066 203.5 12.2518 204.579 11.6344C205.658 11.0171 206.877 10.7322 208.19 10.7322C209.503 10.7322 210.723 11.0171 211.802 11.6344C212.88 12.2518 213.725 13.0591 214.334 14.1513C214.944 15.196 215.272 16.4307 215.272 17.7129C215.272 18.9951 214.944 20.2298 214.334 21.2745C213.725 22.3192 212.88 23.174 211.802 23.7914C210.723 24.4087 209.503 24.6936 208.19 24.6936C206.877 24.6936 205.658 24.4087 204.579 23.7914ZM211.286 22.9841C212.224 22.4617 212.927 21.7494 213.443 20.7996C213.959 19.8974 214.24 18.8526 214.24 17.7129C214.24 16.5732 213.959 15.5285 213.443 14.6262C212.927 13.7239 212.177 12.9641 211.286 12.4417C210.348 11.9194 209.316 11.6344 208.19 11.6344C207.065 11.6344 206.033 11.9194 205.095 12.4417C204.157 12.9641 203.453 13.6764 202.891 14.6262C202.375 15.5285 202.093 16.5732 202.093 17.7129C202.093 18.8526 202.375 19.8974 202.891 20.7996C203.406 21.7019 204.157 22.4617 205.095 22.9841C206.033 23.5064 207.065 23.7914 208.19 23.7914C209.316 23.7914 210.348 23.5064 211.286 22.9841Z" fill="white"/>
<path d="M228.873 10.8271V24.5987H227.888V11.7294H220.853L220.666 16.8106C220.572 18.7101 220.431 20.2298 220.197 21.3695C219.962 22.5092 219.587 23.364 219.118 23.9338C218.649 24.5037 218.039 24.7411 217.289 24.7411C216.961 24.7411 216.632 24.7411 216.304 24.6461L216.398 23.7439C216.398 23.7439 216.82 23.8388 217.054 23.8388C217.664 23.8388 218.133 23.6014 218.508 23.1265C218.884 22.6517 219.165 21.9393 219.353 20.8946C219.54 19.8499 219.681 18.5202 219.728 16.8581L219.915 10.8746H228.826L228.873 10.8271Z" fill="white"/>
<path d="M235.955 23.7914C234.877 23.174 234.032 22.3667 233.423 21.2745C232.813 20.1823 232.485 19.0426 232.485 17.7129C232.485 16.3832 232.813 15.196 233.423 14.1513C234.032 13.1066 234.877 12.2518 235.955 11.6344C237.034 11.0171 238.253 10.7322 239.567 10.7322C240.88 10.7322 242.099 11.0171 243.178 11.6344C244.257 12.2518 245.101 13.0591 245.71 14.1513C246.32 15.196 246.649 16.4307 246.649 17.7129C246.649 18.9951 246.32 20.2298 245.71 21.2745C245.101 22.3192 244.257 23.174 243.178 23.7914C242.099 24.4087 240.88 24.6936 239.567 24.6936C238.253 24.6936 237.034 24.4087 235.955 23.7914ZM242.662 22.9841C243.6 22.4617 244.303 21.7494 244.819 20.7996C245.335 19.8974 245.617 18.8526 245.617 17.7129C245.617 16.5732 245.335 15.5285 244.819 14.6262C244.303 13.7239 243.553 12.9641 242.662 12.4417C241.724 11.9194 240.692 11.6344 239.567 11.6344C238.441 11.6344 237.409 11.9194 236.471 12.4417C235.533 12.9641 234.83 13.6764 234.267 14.6262C233.751 15.5285 233.47 16.5732 233.47 17.7129C233.47 18.8526 233.751 19.8974 234.267 20.7996C234.783 21.7019 235.533 22.4617 236.471 22.9841C237.409 23.5064 238.441 23.7914 239.567 23.7914C240.692 23.7914 241.724 23.5064 242.662 22.9841Z" fill="white"/>
<path d="M252.558 23.7914C251.479 23.174 250.635 22.3667 250.025 21.2745C249.416 20.2298 249.087 18.9951 249.087 17.7129C249.087 16.4307 249.416 15.196 250.025 14.1513C250.635 13.1066 251.479 12.2518 252.558 11.6344C253.637 11.0171 254.809 10.7322 256.169 10.7322C257.154 10.7322 258.045 10.8746 258.889 11.2071C259.734 11.5395 260.437 12.0144 261 12.6317L260.39 13.2965C259.312 12.2043 257.905 11.6819 256.216 11.6819C255.091 11.6819 254.059 11.9669 253.121 12.4892C252.183 13.0116 251.432 13.7239 250.916 14.6737C250.401 15.5759 250.119 16.6207 250.119 17.7604C250.119 18.9001 250.401 19.9448 250.916 20.8471C251.432 21.7494 252.183 22.5092 253.121 23.0316C254.059 23.5539 255.091 23.8389 256.216 23.8389C257.905 23.8389 259.312 23.269 260.39 22.1768L261 22.8416C260.437 23.459 259.687 23.9338 258.889 24.2662C258.045 24.5987 257.154 24.7411 256.169 24.7411C254.856 24.7411 253.637 24.4562 252.558 23.8389V23.7914Z" fill="white"/>
<path d="M170.342 34.761H108.34C101.916 34.761 96.7083 40.0231 96.7083 46.5143C96.7083 53.0054 101.916 58.2675 108.34 58.2675H170.342C176.766 58.2675 181.973 53.0054 181.973 46.5143C181.973 40.0231 176.766 34.761 170.342 34.761Z" fill="url(#paint0_linear_125_1076)"/>
<path d="M108.809 50.8119C108.621 50.5745 108.34 50.432 108.011 50.3371C108.246 50.2421 108.48 50.0521 108.621 49.8622C108.762 49.6247 108.856 49.3873 108.856 49.0549C108.856 48.58 108.668 48.2476 108.34 47.9627C108.011 47.7252 107.542 47.5828 106.98 47.5828H104.681V53.1863H107.167C107.824 53.1863 108.34 53.0439 108.668 52.8064C108.996 52.569 109.184 52.1891 109.184 51.6667C109.184 51.2868 109.09 51.0019 108.902 50.7645L108.809 50.8119ZM105.15 48.1051H106.839C107.261 48.1051 107.589 48.2001 107.824 48.3901C108.058 48.58 108.199 48.8175 108.199 49.1499C108.199 49.4823 108.058 49.7197 107.824 49.9097C107.589 50.0996 107.261 50.1471 106.839 50.1471H105.15V48.1051ZM108.152 52.474C107.918 52.664 107.542 52.7115 107.073 52.7115H105.197V50.622H107.073C108.058 50.622 108.527 50.9544 108.527 51.6667C108.527 52.0466 108.387 52.2841 108.152 52.474Z" fill="black"/>
<path d="M120.956 54.1838C120.018 54.1838 119.08 54.0413 118.282 53.8039C117.485 53.5664 116.782 53.139 116.266 52.6167C115.75 52.0943 115.515 51.4295 115.515 50.6222C115.515 50.0048 115.703 49.3875 116.078 48.7702C117.391 46.5857 119.643 44.9236 122.832 43.8789C122.363 43.309 122.128 42.6442 122.128 41.9319C122.128 41.362 122.269 40.8397 122.597 40.4123C123.207 39.5575 124.051 38.8452 125.271 38.3228C125.927 38.0379 126.631 37.8004 127.287 37.6105C127.991 37.4205 128.694 37.373 129.398 37.373C130.289 37.373 130.946 37.5155 131.415 37.8004C131.884 38.0854 132.118 38.5128 132.118 39.0826C132.118 39.4625 132.024 39.7949 131.837 40.1273C131.649 40.4123 131.415 40.6972 131.133 40.8872C130.852 41.0771 130.57 41.1721 130.242 41.1721C129.773 41.1721 129.585 41.0771 129.585 40.8397C129.585 40.6972 129.679 40.6497 129.867 40.6497C129.914 40.6497 130.008 40.6497 130.101 40.6497C130.195 40.6497 130.289 40.6497 130.336 40.6497C130.617 40.6497 130.899 40.4598 131.133 40.1748C131.368 39.8424 131.461 39.51 131.461 39.1776C131.461 38.7027 131.227 38.3703 130.805 38.1329C130.383 37.9429 129.867 37.8004 129.351 37.8004C127.991 37.8004 126.678 38.2753 125.364 39.1776C124.004 40.1273 123.301 41.2196 123.301 42.4068C123.301 42.8342 123.441 43.2616 123.723 43.6415C124.239 43.4515 124.708 43.3565 125.13 43.309C125.599 43.2141 126.021 43.2141 126.396 43.2141C127.756 43.2141 128.46 43.499 128.46 44.0688C128.46 44.3063 128.366 44.5437 128.178 44.7337C127.991 44.9236 127.709 45.0661 127.381 45.1611C127.1 45.256 126.771 45.3035 126.443 45.3035C126.115 45.3035 125.74 45.3035 125.364 45.1611C124.942 45.0661 124.567 44.9711 124.192 44.7812C123.817 44.6387 123.488 44.4488 123.254 44.2588C121.894 44.6862 120.721 45.3035 119.643 46.1583C118.611 47.0131 117.86 47.9629 117.344 49.0076C117.063 49.5775 116.922 50.1473 116.922 50.6697C116.922 51.3345 117.11 51.8569 117.438 52.2843C117.813 52.7117 118.282 52.9966 118.845 53.234C119.455 53.424 120.112 53.519 120.815 53.519C121.988 53.519 123.207 53.329 124.38 52.9016C125.552 52.5217 126.537 51.9044 127.381 51.1446C128.507 50.0998 129.07 48.9601 129.07 47.8204C129.07 46.9181 128.647 46.4432 127.803 46.4432C127.334 46.4432 126.865 46.5857 126.302 46.8231C125.74 47.0606 125.224 47.3455 124.755 47.7729C124.286 48.1528 123.911 48.5802 123.582 49.0551C123.254 49.53 123.113 50.0048 123.113 50.4797C123.113 50.9546 123.301 51.2395 123.723 51.382C123.864 51.4295 123.957 51.5245 123.957 51.6194C123.957 51.7619 123.864 51.8094 123.629 51.8094C122.879 51.8094 122.503 51.382 122.503 50.4797C122.503 49.9099 122.691 49.34 123.019 48.8176C123.348 48.2953 123.77 47.8204 124.286 47.393C124.802 46.9656 125.411 46.6807 126.021 46.4432C126.631 46.2058 127.24 46.0633 127.803 46.0633C128.46 46.0633 129.023 46.2058 129.351 46.5382C129.726 46.8232 129.914 47.3455 129.914 48.0103C129.914 49.435 129.163 50.7172 127.709 51.9518C126.771 52.7591 125.74 53.329 124.614 53.6614C123.488 54.0413 122.269 54.1838 121.003 54.1838H120.956ZM126.209 44.7337C127.006 44.7337 127.381 44.4962 127.381 44.0214C127.381 43.8314 127.006 43.6889 126.209 43.6889C125.88 43.6889 125.505 43.6889 125.13 43.7364C124.755 43.7364 124.426 43.8314 124.051 43.9264C124.661 44.4488 125.411 44.6862 126.209 44.6862V44.7337ZM131.039 52.4267C131.039 52.4267 130.852 52.4267 130.664 52.3318C130.523 52.2368 130.383 52.1418 130.242 52.0468C130.101 51.9044 130.054 51.8094 130.008 51.7144C130.008 51.5719 130.054 51.2395 130.242 50.7172C130.383 50.1473 130.664 49.3875 131.039 48.3903C131.415 47.393 131.696 46.6332 131.93 46.0633C132.165 45.541 132.353 45.2086 132.446 45.1136C132.493 45.0661 132.587 45.0186 132.681 45.0186C132.822 45.0186 133.009 45.1136 133.15 45.256C133.291 45.3985 133.384 45.541 133.384 45.7309C133.384 45.7309 133.009 46.6332 132.306 48.3903C131.602 50.0998 131.274 51.0971 131.321 51.4295C131.93 51.2395 133.009 50.4797 134.463 49.1975C135.354 48.3903 136.011 47.7254 136.386 47.0606C136.808 46.3958 136.996 45.8259 136.996 45.3035C136.996 45.0186 136.902 44.7337 136.761 44.4962C136.62 44.2588 136.386 44.0214 136.011 43.8789C135.917 43.8789 135.87 43.7839 135.87 43.6889C135.87 43.5465 135.964 43.499 136.105 43.499C136.527 43.499 136.902 43.6415 137.183 43.9264C137.512 44.2113 137.652 44.6387 137.652 45.2086C137.652 45.8259 137.418 46.4907 136.902 47.2505C136.433 48.0103 135.729 48.8176 134.838 49.6724C134.041 50.3847 133.337 51.0021 132.681 51.477C132.071 51.9518 131.461 52.2843 130.992 52.4267H131.039ZM136.574 56.9856C136.151 56.9856 135.776 56.7956 135.495 56.4157C135.213 56.0358 135.026 55.6084 135.026 55.181C135.026 54.9911 135.12 54.8961 135.213 54.8961C135.307 54.8961 135.354 54.9911 135.354 55.2285C135.354 55.466 135.495 55.7034 135.682 55.9408C135.917 56.1783 136.105 56.2733 136.292 56.2733C137.136 56.2733 137.981 55.7034 138.919 54.5637C139.247 54.1363 139.575 53.6614 139.95 53.139C140.326 52.6167 140.654 51.9993 140.982 51.287L142.061 49.0551L140.466 50.7646C139.95 51.287 139.528 51.6669 139.153 51.9518C138.778 52.1893 138.496 52.3318 138.309 52.3318C137.981 52.3318 137.605 52.1893 137.277 51.9518C136.949 51.6669 136.761 51.382 136.714 51.0021C136.574 49.8624 137.277 48.4852 138.778 46.8706C140.326 45.3035 141.686 44.4962 142.905 44.4962C143.233 44.4962 143.515 44.5912 143.702 44.7337C143.796 44.8287 143.89 44.9711 143.937 45.1611C143.984 45.351 144.031 45.446 144.078 45.446C144.125 45.446 144.171 45.446 144.218 45.446C144.218 45.446 144.312 45.446 144.359 45.446C144.547 45.446 144.687 45.4935 144.828 45.636C144.969 45.7784 145.016 45.9209 144.969 46.0633C144.969 46.2058 144.734 46.5857 144.359 47.298C144.078 47.7254 143.796 48.2953 143.468 48.9601C143.14 49.5775 142.764 50.2423 142.436 50.9546C142.061 51.6194 141.733 52.2843 141.404 52.8541C141.076 53.4715 140.748 53.9463 140.466 54.3262C139.153 56.1783 137.887 57.0806 136.714 57.0806L136.574 56.9856ZM138.074 51.8569C138.919 51.8569 140.044 50.9071 141.451 49.0076L143.749 45.7309C143.749 45.7309 143.468 45.3985 143.233 45.3985C142.342 45.3985 141.17 46.1108 139.669 47.6304C138.121 49.1501 137.418 50.4322 137.605 51.3345C137.699 51.7144 137.84 51.8569 138.121 51.8569H138.074ZM145.813 52.6642C145.344 52.6642 144.922 52.5217 144.547 52.2368C144.171 51.9044 143.984 51.5245 143.984 51.0021C143.984 49.9099 144.594 48.7227 145.86 47.3455C147.126 45.9684 148.299 45.256 149.284 45.256C149.612 45.256 149.893 45.351 150.081 45.541C150.315 45.7309 150.409 45.9684 150.409 46.2058C150.409 47.0606 149.753 47.8679 148.486 48.6752C147.361 49.3875 146.423 49.7674 145.625 49.7674C145.485 49.7674 145.391 49.7674 145.344 49.7674C145.109 50.1948 145.016 50.6222 145.016 51.0496C145.016 51.8569 145.391 52.2368 146.047 52.2368C146.704 52.2368 147.689 51.7144 148.815 50.7172C149.706 50.0048 150.456 49.1975 151.066 48.3903C151.206 48.2003 151.3 48.1053 151.394 48.1053C151.488 48.1053 151.535 48.1053 151.535 48.2478C151.535 48.3903 151.488 48.4852 151.347 48.6277C150.925 49.1975 150.503 49.7199 150.081 50.1473C149.612 50.6222 149.143 51.0496 148.58 51.4295C147.454 52.2843 146.563 52.7117 145.766 52.7117L145.813 52.6642ZM145.954 49.245C146.516 49.245 147.22 48.9601 148.064 48.3903C148.346 48.2003 148.627 47.9629 148.908 47.6779C149.19 47.393 149.424 47.1556 149.612 46.8706C149.799 46.5857 149.893 46.3483 149.893 46.1583C149.893 45.9684 149.753 45.8734 149.424 45.8734C149.002 45.8734 148.392 46.2058 147.642 46.8706C147.267 47.2031 146.892 47.583 146.563 47.9629C146.235 48.3428 145.907 48.7702 145.672 49.1975C145.766 49.1975 145.86 49.1975 145.954 49.1975V49.245ZM155.756 52.4267C155.381 52.4267 155.099 52.3318 154.958 52.0943C154.818 51.8569 154.724 51.5719 154.724 51.192C154.724 50.3373 155.005 49.3875 155.568 48.3903L156.928 46.0633C155.943 46.8231 155.005 47.7729 154.02 48.8651C153.739 49.1501 153.458 49.53 153.129 49.9099C152.801 50.3373 152.473 50.7647 152.098 51.3345C151.582 52.0468 151.253 52.3792 151.16 52.3792C150.972 52.3792 150.784 52.2843 150.644 52.0943C150.503 51.9044 150.456 51.7144 150.456 51.5719C150.456 51.477 150.456 51.2395 150.55 50.9071C150.644 50.5747 150.691 50.2898 150.831 50.0523C150.925 49.8149 151.019 49.53 151.113 49.2925C151.253 49.0551 151.347 48.7702 151.441 48.5327L150.175 49.9574C150.175 49.9574 150.034 50.0523 149.893 50.2423C149.753 50.3847 149.612 50.4797 149.565 50.4797C149.471 50.4797 149.471 50.4322 149.471 50.3373C149.471 50.3373 149.471 50.2898 149.471 50.2423C149.471 50.1948 149.518 50.0998 149.612 50.0523C149.846 49.8149 150.034 49.5775 150.268 49.34C150.503 49.1026 150.737 48.7702 150.972 48.4377C151.113 48.2478 151.3 48.0103 151.535 47.6779C151.816 47.3455 152.051 46.9656 152.379 46.5857C152.707 46.2058 152.989 45.8259 153.27 45.4935C153.364 45.3985 153.411 45.3035 153.505 45.3035C153.598 45.3035 153.645 45.256 153.692 45.256C154.067 45.256 154.255 45.3985 154.255 45.7309C154.255 45.8259 154.255 45.9209 154.208 46.0159C152.942 47.8679 152.144 49.2925 151.91 50.2898C153.551 48.5327 154.912 47.2505 155.896 46.3483C156.928 45.446 157.632 45.0186 158.054 45.0186C158.288 45.0186 158.476 45.0186 158.57 45.1136C158.711 45.2086 158.757 45.351 158.757 45.541C158.757 45.636 158.757 45.6834 158.757 45.7309C158.757 45.8259 158.429 46.2533 157.866 47.0131C157.538 47.4405 157.257 47.8204 156.975 48.1528C156.741 48.4852 156.506 48.8176 156.365 49.0551C156.084 49.4825 155.896 49.8624 155.803 50.2423C155.662 50.6222 155.615 50.9071 155.615 51.192C155.615 51.287 155.615 51.4295 155.615 51.5719C155.615 51.7144 155.756 51.8094 155.896 51.8094C156.225 51.8094 156.741 51.5245 157.444 50.9071C157.772 50.6222 158.101 50.2898 158.382 50.0048C158.664 49.6724 158.945 49.3875 159.18 49.0551C159.226 49.0076 159.32 48.8651 159.461 48.7227C159.602 48.5327 159.649 48.4377 159.695 48.4377C159.742 48.4377 159.789 48.4852 159.789 48.6277C159.789 48.6752 159.789 48.8176 159.695 48.9601C159.649 49.1026 159.555 49.1975 159.508 49.2925C159.367 49.4825 159.133 49.7674 158.804 50.0998C158.523 50.4322 158.148 50.8121 157.772 51.1446C157.397 51.5245 157.022 51.8094 156.694 52.0943C156.319 52.3318 156.037 52.4742 155.756 52.4742V52.4267ZM163.682 44.5912C163.447 44.5912 163.213 44.4962 163.025 44.3538C162.838 44.1638 162.744 44.0214 162.744 43.7839C162.744 43.3565 163.025 43.1666 163.541 43.1666C163.729 43.1666 163.963 43.2616 164.151 43.404C164.339 43.5465 164.432 43.7364 164.432 43.9264C164.432 44.1163 164.339 44.2588 164.151 44.4013C163.963 44.5437 163.776 44.5912 163.635 44.5912H163.682ZM159.695 52.6167C159.367 52.6167 159.133 52.5217 158.898 52.2843C158.664 52.0468 158.57 51.6669 158.57 51.0971C158.57 50.7647 158.664 50.4322 158.804 50.0048C158.945 49.5775 159.086 49.1501 159.32 48.7227C159.555 48.2953 159.742 47.9154 159.93 47.583C160.727 46.2058 161.384 45.541 161.9 45.4935C162.04 45.4935 162.181 45.541 162.369 45.6834C162.556 45.7784 162.65 45.9209 162.65 46.0633C162.65 46.0633 162.087 46.7757 161.009 48.2953C159.93 49.7674 159.414 50.8121 159.414 51.4295C159.414 51.9044 159.602 52.1418 159.93 52.1418C160.164 52.1418 160.446 52.0468 160.821 51.8569C161.196 51.6669 161.571 51.382 161.994 51.0496C162.416 50.7172 162.791 50.3847 163.119 50.0523C163.494 49.6724 163.776 49.34 164.01 49.0551C164.151 48.8651 164.292 48.7227 164.385 48.6277C164.479 48.5327 164.573 48.5327 164.62 48.5327C164.667 48.5327 164.714 48.5327 164.714 48.6752C164.714 48.7702 164.62 48.9126 164.432 49.1026C164.292 49.34 164.057 49.5775 163.776 49.9099C163.447 50.2898 163.072 50.6697 162.65 51.0971C162.228 51.5245 161.806 51.9044 161.29 52.1893C160.821 52.4742 160.258 52.6167 159.695 52.6167ZM165.23 52.4742C164.901 52.4742 164.526 52.3318 164.198 52.0943C163.87 51.8569 163.682 51.5245 163.635 51.192C163.494 50.0523 164.198 48.6752 165.699 47.0606C167.199 45.446 168.606 44.6862 169.826 44.6862C170.154 44.6862 170.436 44.7812 170.623 44.9236C170.717 45.0186 170.811 45.1611 170.858 45.351C170.905 45.541 170.951 45.636 170.998 45.636C171.045 45.636 171.092 45.636 171.139 45.636C171.139 45.636 171.233 45.636 171.28 45.636C171.467 45.636 171.608 45.6834 171.749 45.8259C171.889 45.9684 171.936 46.0633 171.983 46.2058C171.983 46.2058 171.561 46.9656 170.623 48.4377C169.685 49.8624 169.263 50.8596 169.357 51.3345C169.451 51.6669 169.591 51.8569 169.826 51.8569C170.576 51.8569 171.936 50.5747 173.906 47.9629C173.906 47.9154 174 47.8679 174.047 47.8679C174.141 47.8679 174.141 47.9154 174.141 48.0103C174.141 48.1053 174.094 48.2953 173.953 48.4377C172.124 51.0021 170.717 52.2843 169.779 52.2843C169.638 52.2843 169.544 52.2843 169.404 52.2368C168.794 51.9993 168.466 51.477 168.466 50.7646C168.466 50.5272 168.466 50.2423 168.56 50.0048L167.246 51.3345C166.824 51.7619 166.496 52.0468 166.168 52.2368C165.839 52.4267 165.605 52.5217 165.37 52.5217L165.23 52.4742ZM165.042 51.9993C165.886 51.9993 167.012 51.0496 168.419 49.1501L170.717 45.8734C170.717 45.8734 170.436 45.541 170.154 45.541C169.263 45.541 168.091 46.2533 166.59 47.7729C165.042 49.2925 164.339 50.5272 164.526 51.477C164.62 51.8569 164.761 51.9993 165.042 51.9993Z" fill="black"/>
<path d="M111.763 51.2868V53.2338H111.201V51.2868L109.043 47.5828H109.653L111.482 50.717L113.311 47.5828H113.874L111.716 51.2868H111.763Z" fill="black"/>
<path d="M121.8 42.834C119.736 40.0797 122.879 37.6104 125.364 37.3729C125.74 37.3729 126.068 37.278 126.443 37.2305C126.115 37.3729 125.74 37.4679 125.411 37.5629C123.16 38.1802 120.393 39.9848 121.753 42.7866L121.8 42.834Z" fill="black"/>
<path d="M50.1833 4.65382C50.1833 4.65382 49.7612 4.46387 49.5736 4.3689C49.7143 4.3689 49.9019 4.51136 50.1833 4.65382Z" fill="url(#paint1_linear_125_1076)"/>
<path d="M71.4291 25.7859C70.4911 24.9312 68.8027 21.2271 68.0992 19.8025C65.2852 14.1989 66.7391 12.2044 59.1881 4.98622C51.6372 -2.23194 43.8518 0.522357 43.8518 0.522357C31.0949 2.89676 30.0162 16.0034 30.0162 16.0034C29.7348 17.713 29.3127 19.2801 28.7968 20.6572C27.1553 25.0261 24.0129 28.6827 19.9326 30.9621C19.8857 30.9621 19.8388 31.0096 19.7919 31.0571C16.2744 33.0516 13.5073 36.1858 11.9596 39.9374C11.8189 40.2698 11.772 40.4597 11.772 40.4597C11.772 39.6524 12.0065 38.5602 12.3348 37.468C11.2092 39.0351 10.7402 41.0296 10.8809 42.9291C11.0685 45.1135 11.7251 46.2058 11.7251 46.2058C11.0685 45.5409 10.6464 44.6862 10.4119 43.8314C10.5057 44.7336 10.7402 45.6834 11.1154 46.6806C14.7736 55.4184 21.4803 57.6979 21.4803 57.6979C24.2474 60.1197 30.11 63.159 35.2221 65.5809C33.4399 64.3462 32.5019 63.3964 32.5019 63.3964C41.2253 69.0475 50.8399 68.7626 58.0156 67.2429C59.7979 66.5781 70.4911 62.3992 74.0086 53.4239C77.8545 43.6414 75.4625 36.9456 66.8329 31.1046C60.5014 26.8307 57.5466 18.0929 56.4679 13.914C55.952 12.0144 55.1547 10.1624 54.1229 8.54782C54.545 9.35512 54.8733 10.3049 55.0609 11.4446C56.1396 17.2381 59.3757 25.0261 61.7677 28.0179C63.3154 29.9649 64.5348 30.3448 64.5348 30.4873C64.5348 30.4873 64.5348 30.4873 64.5348 30.5347C77.3386 37.8954 74.5714 49.4349 74.5714 49.4349C74.5714 38.6077 64.3003 30.9621 62.1429 29.395C60.7359 28.3503 57.8749 24.9787 56.0927 20.8947C56.2334 21.3696 56.3741 21.797 56.5148 22.2718C57.7811 26.3558 59.9386 28.3503 63.3154 30.9146C66.6922 33.4315 69.7407 37.468 69.7407 37.468C69.7407 37.468 65.0507 34.2388 59.7979 28.9676C54.545 23.6965 52.9504 16.2409 51.2151 10.3524C49.4798 4.46386 45.8685 2.94424 45.8685 2.94424C49.6674 3.84651 51.7779 8.12043 52.6221 10.9222C53.138 12.5843 53.9353 14.8637 54.7795 17.2856C54.545 16.3358 54.4043 15.3386 54.3574 14.3888C54.1229 7.8355 49.4798 4.36888 49.4798 4.36888C49.4798 4.36888 53.9353 2.3269 58.3908 14.9112C62.8464 27.4955 63.6906 27.6855 68.5213 30.6297C72.8361 33.2416 79.3553 39.1301 76.3537 50.7646C76.3537 50.7646 80.8092 38.8451 69.8814 29.395C68.0523 27.8279 66.4108 26.0709 65.0038 24.1239C62.8464 21.1321 60.2669 16.8582 59.7979 12.8692C59.7979 12.8692 64.4879 22.3193 71.8043 29.8699C81.8879 40.2698 76.3067 50.9546 76.3067 50.9546V50.8596C75.9784 52.2842 75.4625 53.7564 74.759 55.3709C74.1962 56.7006 73.5865 57.8878 72.9768 58.9325C73.4927 58.4102 73.7741 58.0778 73.7741 58.0778C73.7741 58.0778 75.6032 56.4157 78.6049 46.2058C81.6065 36.0908 72.414 26.6882 71.476 25.8334L71.4291 25.7859ZM44.5553 11.8245C46.3844 17.1906 51.3089 22.5568 51.3089 22.5568C47.9321 20.8947 46.7596 18.8052 44.3208 15.1486C41.835 11.5396 41.2722 4.60632 41.2722 4.60632C41.2722 4.60632 42.5386 5.84101 44.5553 11.8245ZM44.4615 9.07019C44.4615 9.07019 48.1666 16.7632 48.3073 17.8555C48.3073 17.8555 44.2739 12.5368 44.4615 9.07019ZM44.7429 16.5733C39.2555 11.872 40.0997 5.50859 40.0997 5.50859C40.0059 8.88024 44.7429 16.5733 44.7429 16.5733ZM40.0528 3.37163C34.9876 5.0812 31.7046 10.9222 31.7046 10.9222C33.6275 4.17893 40.0528 3.37163 40.0528 3.37163ZM40.0528 3.84651C40.0528 3.84651 39.5369 5.22366 36.1132 7.36062C33.5806 8.97521 31.1418 14.7213 31.1418 14.7213C31.1887 7.93048 40.0528 3.84651 40.0528 3.84651ZM25.7014 26.9731C27.1553 25.2636 30.3445 20.4198 31.0011 18.3303C31.6577 16.2409 33.7682 13.914 33.7682 13.914C33.7682 13.914 32.1736 19.7075 26.6863 26.7357C22.2776 32.4343 17.1186 33.8589 17.1186 33.8589C18.1035 33.4315 22.7935 30.2973 25.7014 26.9257V26.9731ZM34.9876 30.0599C35.0345 30.4873 34.9876 31.0096 34.9876 31.532C34.8469 33.8114 34.0965 38.1328 30.9073 40.5072C30.9073 40.5072 34.4248 35.2835 34.9876 31.532C35.0345 30.6297 34.9876 30.0599 34.9876 30.0599ZM36.8636 32.3393C35.3628 40.5072 30.6728 42.3592 30.6728 42.3592C33.8151 40.0798 36.8636 32.3393 36.8636 32.3393ZM30.9073 39.1776L34.6124 29.5375C34.6124 29.5375 33.9558 36.0433 30.9073 39.1776ZM33.5806 29.3001C33.5806 31.7694 31.3294 36.6607 31.3294 36.6607C30.9542 34.8087 33.5806 29.3001 33.5806 29.3001ZM31.4232 30.0599C30.2507 31.9119 29.5941 35.2835 29.2189 37.8954C30.1569 33.0991 33.2054 27.543 33.2054 27.543C33.2054 27.543 29.4534 36.6132 30.4852 45.1135C34.2372 42.8816 37.145 35.426 37.145 35.521C36.9574 41.172 31.8453 45.1135 30.6259 46.0158C30.7197 46.5382 30.8135 47.0606 30.9542 47.6304C31.5639 47.1555 35.7849 43.9263 36.1601 41.9319C36.1601 41.9319 33.7213 45.3035 31.517 46.1108C31.517 46.1108 36.8636 41.6469 37.3795 37.1831C37.3795 37.1831 38.0361 38.0853 36.3946 41.1246C36.3946 41.1246 37.7547 39.6999 38.1768 37.9904C38.2237 37.6105 38.2706 37.4205 38.2706 37.4205C38.2706 37.6105 38.2706 37.8004 38.1768 37.9904C37.8485 39.9374 36.3477 46.1583 31.2356 48.5327C31.2356 48.6751 31.3294 48.8176 31.3763 48.9126C36.9574 46.5382 38.6927 38.0853 38.6927 38.0853C38.552 45.161 32.3612 49.1975 31.6577 49.6249C31.6577 49.6724 31.7046 49.7674 31.7515 49.8149C32.6895 49.3875 37.6609 46.8231 39.4431 38.1803C39.4431 38.1803 40.2404 45.2085 31.9391 50.1473C32.1267 50.4797 32.3143 50.8121 32.5019 51.1445C32.5019 51.1445 38.6927 48.4852 39.49 42.3592C40.2873 36.2333 40.8032 37.4205 40.8032 37.4205C40.8032 37.4205 41.835 46.9656 35.5504 50.3372C34.4717 50.9071 33.7213 51.4294 33.0647 51.8093C35.269 54.6586 38.7396 56.2732 38.7396 56.2732C38.7396 56.2732 45.0243 60.3097 53.8415 54.8011C62.5181 49.3875 60.0793 39.8424 59.9855 39.51C63.3154 51.287 52.1062 56.2732 52.1062 56.2732C58.6253 54.8486 61.4394 46.1583 61.4394 46.1583C61.4394 46.1583 61.0173 54.7536 49.9019 58.2677C38.7865 61.7343 31.7046 51.097 31.7046 51.097C31.7046 51.097 29.1251 45.3985 29.172 40.3647C29.1251 41.0296 29.0782 41.4095 29.0782 41.4095C29.0782 41.4095 28.6561 33.0991 30.9542 29.7274C33.2992 26.3558 34.331 18.6153 34.331 18.6153C34.331 18.6153 34.8938 24.8362 31.6108 30.0124L31.4232 30.0599ZM41.9757 37.6579C41.9757 37.6579 44.1332 45.4935 39.7714 47.7729C39.7714 47.7729 42.6792 45.7309 41.9757 37.6579ZM43.1014 42.2168C42.9137 40.2223 43.3828 38.7976 43.5704 38.3703C43.5704 38.1803 43.6173 38.2278 43.6173 38.2278C43.6173 38.2278 43.6173 38.2753 43.5704 38.3703C43.5235 38.6552 43.4297 39.5575 43.4766 42.0268C43.4766 46.0158 41.0377 47.4405 41.0377 47.4405C41.0377 47.4405 43.3359 44.6862 43.1483 42.2168H43.1014ZM45.1181 36.4707C50.6523 35.1411 53.6539 32.6242 54.4512 31.8644C54.545 31.7694 54.5919 31.7219 54.6857 31.627C54.6857 31.627 54.4512 31.9594 54.2167 32.4818C53.1849 35.1411 53.8884 40.6972 53.8884 40.6972C52.3876 37.0406 53.4663 33.9064 54.2167 32.4818C54.3574 32.1493 54.4981 31.8644 54.6857 31.627C54.6857 31.627 54.5919 31.7219 54.4512 31.8644C52.2 34.2388 52.8566 38.9401 53.607 41.0771C54.3574 43.309 58.3439 46.9181 58.3439 46.9181C59.0943 50.8121 52.3407 56.5581 45.7747 57.318C39.2555 58.0778 33.8151 52.6166 33.7682 52.2842C33.7213 51.9518 43.1014 47.5354 44.696 45.2085C46.2906 42.8816 45.0712 36.4233 45.0712 36.4233L45.1181 36.4707ZM69.6469 47.9153C69.6469 54.0888 68.2868 61.1645 54.9202 65.5334C41.5067 69.9023 32.1267 57.6029 32.1267 57.6029C38.4113 63.0165 44.6022 64.4886 48.8701 64.6786C52.1531 64.821 55.4361 64.0138 58.3439 62.3992C61.5332 60.5946 65.848 57.3654 67.724 52.4742C70.8194 44.2113 65.5666 39.9848 63.7375 37.2305C61.9084 34.5237 60.5014 32.2918 60.5014 32.2918C60.5014 32.2918 69.6938 40.5072 69.6938 47.8678L69.6469 47.9153ZM63.6437 34.9986C67.3957 36.9931 67.8647 39.8899 67.8647 39.8899C67.8647 39.4625 63.6437 34.9986 63.6437 34.9986ZM63.6906 43.0716C63.6906 43.0716 67.4426 60.927 46.0092 61.7343C44.696 61.7818 43.4766 61.7343 42.3509 61.5919C48.8701 63.064 57.5466 62.5891 63.4092 52.7591C67.9116 45.256 61.4863 35.0461 61.4863 35.0461C72.1795 50.4797 62.6119 59.6449 53.1849 62.6841C43.758 65.7233 33.2523 57.9353 33.2523 57.9353C33.2523 57.9353 34.2372 58.5526 35.9256 59.3599C28.9375 54.8011 28.8906 45.3035 28.9375 43.3565C28.9375 44.9236 29.172 51.6194 35.738 56.7006C43.2421 62.4941 52.9035 57.8878 52.9035 57.8878C52.9035 57.8878 59.8917 54.2312 61.627 47.203C63.3623 40.1748 59.3288 31.6745 59.3288 31.6745C70.1628 50.9546 54.1698 59.4074 54.1698 59.4074C64.3472 55.0385 63.6906 43.1191 63.6906 43.1191V43.0716ZM59.6572 42.6442C59.6572 40.8871 58.8598 37.6579 58.8598 37.6579C60.0324 39.2725 59.6572 42.6442 59.6572 42.6442ZM58.6722 38.5127C58.2032 41.8369 58.8598 44.8761 58.8598 44.8761C57.6404 43.0716 57.3121 41.0771 57.9687 38.1328C58.5315 35.5685 58.8598 32.7667 58.8598 32.7667C59.3288 33.8589 59.1412 35.236 58.6722 38.5127ZM58.3439 46.3957C58.3439 45.7309 56.9838 44.0688 56.9838 44.0688C58.6253 44.4012 58.3439 46.3957 58.3439 46.3957ZM43.2421 45.9683C44.1801 44.9236 44.5084 41.7419 44.5084 41.7419C45.0243 44.4487 43.2421 45.9683 43.2421 45.9683ZM38.8334 47.9153C38.5989 48.1528 38.4582 48.2477 38.4582 48.2477C38.5989 48.1528 38.7396 48.0103 38.8334 47.9153C39.6307 47.108 41.3191 44.4487 41.366 37.2305C41.366 37.1356 41.5067 37.1356 41.5067 37.2305C41.7881 39.4625 42.0695 44.9236 38.8334 47.9153ZM26.827 53.3764C20.9644 42.8816 30.3914 28.0179 30.3914 28.0179C23.6377 43.8314 26.827 53.3764 26.827 53.3764ZM12.1941 42.9766C11.772 41.3145 13.4604 39.5575 13.4604 39.5575C12.0534 41.9319 12.1941 42.9766 12.1941 42.9766ZM15.8992 39.5575C12.8038 51.1445 19.5574 56.3207 19.5574 56.3207C11.2561 51.7144 15.8992 39.5575 15.8992 39.5575ZM18.807 37.6579C14.6329 47.1555 20.8706 56.6531 20.8706 56.6531C10.5057 46.5382 18.807 37.6579 18.807 37.6579ZM21.5741 38.6077C21.5741 38.6077 20.9644 41.8369 21.1989 42.0743C21.1989 42.0743 23.3094 34.9511 25.4669 33.479C25.4669 33.479 18.2442 47.5829 26.358 59.4074C16.3213 52.2367 21.5741 38.6552 21.5741 38.6552V38.6077ZM25.9359 57.8403C22.3714 52.4742 22.9342 47.1555 22.9342 47.1555C22.6528 50.6222 25.9359 57.8403 25.9359 57.8403ZM24.8572 52.7591C24.8572 52.7591 28.4216 55.9408 28.6561 57.8878C28.8906 59.8348 33.8151 63.0165 33.8151 63.0165C26.827 61.7343 24.904 52.7591 24.904 52.7591H24.8572ZM66.5046 60.3572C66.5046 60.3572 59.5164 68.0502 46.6189 67.7178C33.7213 67.3854 31.0949 57.223 31.0949 57.223L31.7515 57.7928C38.3175 66.863 46.7596 68.4301 58.1563 65.201C69.5531 61.9718 70.3504 49.5774 70.3504 49.5774C71.7574 54.2787 66.5515 60.2622 66.5515 60.2622L66.5046 60.3572ZM64.5348 33.9064C68.5213 36.8506 74.29 43.0716 71.0539 52.2842C71.0539 52.2842 73.3051 40.2698 63.034 33.9064C63.034 33.9064 57.7811 30.2973 57.359 28.2553C57.359 28.2553 60.5483 30.9621 64.5348 33.9064ZM58.0625 32.1018C58.0625 32.1018 58.2501 34.4762 57.5466 36.3283C56.5148 39.1301 57.2652 42.1218 57.2652 42.1218C55.6237 39.225 58.0156 32.1968 58.0625 32.0544V32.1018ZM39.3493 35.521C37.3326 35.1886 38.3644 31.3895 38.0361 30.5347C37.7547 29.68 36.9105 29.585 36.8636 29.3475C36.8636 29.1101 37.0043 29.2051 37.2388 28.4928C37.4733 27.7804 36.1601 27.638 36.3946 27.3056C36.5353 27.0681 36.5353 26.8307 36.4884 26.6407C36.4884 26.5458 36.3946 26.4033 36.3008 26.3558C35.5973 25.8334 35.1283 25.4535 34.8469 25.1686C34.5186 24.8362 34.4717 24.3138 34.7531 23.9339C36.676 21.4171 35.8787 20.2299 35.4566 18.3778C34.9876 16.3833 35.4566 11.9195 35.4566 10.8747C35.4566 10.2099 36.8167 8.50033 37.7547 7.40811C37.7547 7.40811 33.0647 12.4418 31.8922 15.671C30.2507 20.3248 27.765 23.4116 27.765 23.4116C27.765 23.4116 29.7817 20.2299 30.7666 16.6683C32.6426 10.2574 38.552 6.45835 38.552 6.45835C38.552 6.45835 37.614 14.7213 52.7628 24.0289L56.0927 27.4005C57.1245 32.8617 41.6943 35.9959 39.2555 35.616L39.3493 35.521ZM45.634 10.2099C45.634 10.2099 44.1332 6.2684 43.1483 5.03371C43.1014 4.93874 46.6189 8.40536 49.7612 16.8582C51.0275 20.2299 52.9973 23.0316 54.9202 25.2161C54.9202 25.2161 49.2453 21.3696 45.634 10.2099ZM50.9806 11.8245C52.0124 15.0537 54.4981 21.8444 54.4981 21.8444C52.7628 19.7075 51.2151 17.1431 50.4647 14.1989C48.1197 5.0812 42.3509 2.75429 42.3509 2.75429C48.3542 3.70405 49.9488 8.59531 50.9806 11.8245ZM50.6054 1.32965C59.5164 3.27666 63.5968 10.9222 65.0976 14.4838C65.9418 16.5258 69.7876 24.1239 69.7876 24.1239C69.7876 24.1239 65.2383 18.1404 63.034 13.4866C58.1563 3.18168 50.8868 1.37714 50.6054 1.32965ZM58.8598 11.0172C56.9838 3.37163 49.0577 1.61458 49.0577 1.61458C58.0156 2.27941 58.8598 11.0172 58.8598 11.0172ZM67.9116 28.5403C67.9116 28.5403 68.0054 28.5403 68.0523 28.5877C68.0523 28.5877 68.0054 28.5877 67.9116 28.5403C63.1278 26.4508 60.9704 19.8025 58.3908 12.0619C55.7644 4.27391 48.448 2.42188 48.448 2.42188C48.448 2.42188 56.6086 1.61458 59.4226 12.9642C62.565 25.406 67.0205 28.1129 67.9116 28.5403ZM63.034 17.523C61.2518 13.914 59.4226 12.0619 57.7342 6.41086C57.7342 6.41086 61.5801 12.1094 63.0809 15.8135C65.2852 21.2271 73.821 28.3503 74.7121 30.6772C74.7121 30.6772 64.6286 20.7047 63.034 17.523Z" fill="url(#paint2_linear_125_1076)"/>
<path d="M21.5743 26.9264C20.8239 22.795 23.591 19.8982 23.591 19.8982C24.5759 21.3228 24.3414 26.3091 21.5743 26.9264Z" fill="url(#paint3_linear_125_1076)"/>
<path d="M30.5321 5.22356C33.862 4.89114 34.9876 1.13959 34.9876 1.13959C33.5806 0.474764 30.0162 2.13684 30.5321 5.22356Z" fill="url(#paint4_linear_125_1076)"/>
<path d="M25.4669 12.7266C27.2022 14.1037 29.4534 12.8215 29.4534 12.8215C29.0782 11.8718 26.5925 11.017 25.4669 12.7266Z" fill="url(#paint5_linear_125_1076)"/>
<path d="M27.765 4.93861C27.8588 3.13407 29.8286 2.46924 29.8286 2.46924C30.2038 3.22905 29.4065 5.17605 27.765 4.93861Z" fill="url(#paint6_linear_125_1076)"/>
<path d="M16.4151 17.2379C14.9612 15.5283 16.0868 13.2014 16.0868 13.2014C17.0717 13.5338 18.0566 16.0032 16.4151 17.2379Z" fill="url(#paint7_linear_125_1076)"/>
<path d="M5.20593 20.5621C3.75203 17.9027 5.86254 15.1484 5.86254 15.1484C7.08194 15.8608 7.73855 19.3749 5.20593 20.5621Z" fill="url(#paint8_linear_125_1076)"/>
<path d="M19.2762 59.4082C14.3517 57.2237 9.89615 59.9305 9.89615 59.9305C11.397 61.5926 17.6816 62.7798 19.2762 59.4082Z" fill="url(#paint9_linear_125_1076)"/>
<path d="M5.53425 36.4243C4.08034 32.1503 2.14037e-05 30.9631 2.14037e-05 30.9631C-0.18758 32.8152 2.67334 37.3265 5.53425 36.4243Z" fill="url(#paint10_linear_125_1076)"/>
<path d="M13.8825 11.0645C15.6647 6.93306 13.4604 3.229 13.4604 3.229C12.1003 4.46369 11.1623 9.73485 13.8825 11.0645Z" fill="url(#paint11_linear_125_1076)"/>
<path d="M15.4302 9.07C16.931 6.22072 19.9795 5.84082 19.9795 5.84082C19.8857 7.17048 17.3531 10.0198 15.4302 9.07Z" fill="url(#paint12_linear_125_1076)"/>
<path d="M26.3579 7.26559C27.2022 3.75149 24.9509 1.13965 24.9509 1.13965C24.0598 2.32685 24.0598 6.60076 26.3579 7.26559Z" fill="url(#paint13_linear_125_1076)"/>
<path d="M45.0713 69.0007C40.2875 68.8107 35.4568 68.0509 31.0951 66.0089C28.9377 65.0117 26.9678 63.5395 24.998 62.1624C23.0751 60.7852 20.9177 59.788 18.5727 59.2656C19.7452 59.3606 20.9177 59.6455 22.0902 60.0729C24.3414 60.8802 26.3112 62.3998 28.3279 63.6345C33.3463 66.8637 39.2557 68.0984 45.0713 69.0007Z" fill="url(#paint14_linear_125_1076)"/>
<path d="M22.1371 59.883C16.4153 56.7963 9.23953 52.7599 7.87942 45.7791C7.03521 41.5527 8.44222 37.1363 10.0368 33.4323C10.2713 32.8624 10.5996 32.34 10.9748 31.8651C12.8508 29.4433 16.0401 28.9684 18.7603 28.2086C19.839 27.8762 20.9646 27.4963 21.8557 26.7839C21.4336 27.1638 20.9177 27.4963 20.4018 27.7337C17.8692 29.0159 14.8207 29.2058 12.5694 31.0104C11.6783 31.7227 11.0217 32.625 10.5996 33.6222C10.5996 33.5272 10.5996 33.7647 10.5996 33.7647C4.784 47.6312 10.9748 52.9023 22.1371 59.883Z" fill="url(#paint15_linear_125_1076)"/>
<path d="M13.6011 21.5595C16.5089 17.3806 21.9963 17.0956 26.5456 16.2883C22.0901 18.1878 17.4 18.0454 13.6011 21.5595Z" fill="url(#paint16_linear_125_1076)"/>
<path d="M31.1887 3.13403C30.1569 7.02804 29.172 11.302 25.0447 12.964C24.5757 13.154 24.1067 13.2965 23.6377 13.4864C18.9477 15.4334 15.4302 19.4699 13.0383 23.8863C10.7871 28.0177 8.91106 33.4313 9.09866 38.2276C8.77036 35.4733 9.23936 32.6715 9.94286 30.0122C11.9127 22.984 16.2744 16.0033 23.0749 12.964C23.5908 12.7266 24.1536 12.5366 24.6695 12.3467C28.703 10.9695 29.7817 6.69563 31.1887 3.13403Z" fill="url(#paint17_linear_125_1076)"/>
<path d="M21.2458 10.4473C21.6679 12.5842 20.5892 15.1011 18.7601 16.1933C19.276 15.2435 19.7919 14.3888 20.214 13.3915C20.6361 12.4418 20.9644 11.4445 21.2927 10.4473H21.2458Z" fill="url(#paint18_linear_125_1076)"/>
<path d="M27.8119 1.13965C27.4367 1.99443 27.4836 2.94419 27.5305 3.84646C27.6243 5.651 26.9677 7.45555 25.7014 8.73772C24.9509 9.49753 24.2474 10.3048 23.497 11.0646C22.6528 11.9669 21.6679 12.8217 20.4954 13.2966C21.9962 12.2043 23.028 10.6847 24.2005 9.26009C24.5288 8.88019 24.9509 8.45279 25.2793 8.07289C26.3111 6.93318 26.9208 5.41356 27.0146 3.89395C27.0615 2.94419 27.2022 1.94694 27.765 1.18714L27.8119 1.13965Z" fill="url(#paint19_linear_125_1076)"/>
<path d="M6.66003 54.3269C8.62985 55.1817 10.5997 55.9415 12.7102 56.5114C14.7738 57.0812 16.8843 57.4611 18.9948 57.9835C14.68 58.0785 10.1307 57.0812 6.66003 54.3744V54.3269Z" fill="url(#paint20_linear_125_1076)"/>
<path d="M1.78241 44.9717C6.84764 50.3853 11.3501 55.8464 18.7134 57.9834C11.2563 56.9861 5.86273 50.9077 1.78241 44.9717Z" fill="url(#paint21_linear_125_1076)"/>
<path d="M8.06703 46.0639C7.26973 44.8292 6.80072 43.4045 6.37862 42.0274C5.95652 40.6027 5.62822 39.2256 5.25301 37.8009C4.64331 35.664 3.89291 31.8175 2.1107 30.5353C1.96999 30.4403 1.78239 30.3453 1.64169 30.2979C1.82929 30.2979 2.0169 30.3928 2.1576 30.4403C5.95652 32.2923 6.51932 42.2648 8.06703 46.0639Z" fill="url(#paint22_linear_125_1076)"/>
<path d="M6.84763 41.9324C7.31663 38.7507 6.00342 35.7115 5.58132 32.5773C5.44062 31.6276 5.39372 30.1554 5.53442 29.3956C5.53442 28.4459 5.58132 27.4961 5.76892 26.5463C6.09722 24.6943 6.70692 22.9373 7.31663 21.1327C7.59803 20.2304 7.92633 19.3757 8.16083 18.4734C7.92633 20.3254 7.41043 22.13 6.98833 23.9345C6.66002 25.2642 6.37862 26.6413 6.33172 28.0185V28.6833V29.3481C6.33172 29.3481 6.33172 29.3481 6.33172 29.3956C5.81582 33.5746 8.16083 37.7535 6.94143 41.885L6.84763 41.9324Z" fill="url(#paint23_linear_125_1076)"/>
<path d="M11.0216 15.481C12.4286 20.3722 9.89598 25.7858 5.90945 28.6826C9.19247 24.8361 11.2561 20.6571 11.0216 15.481Z" fill="url(#paint24_linear_125_1076)"/>
<path d="M10.834 21.132C14.0232 15.6709 11.6782 7.17056 18.7132 4.41626C12.2879 8.2153 15.0081 16.0508 10.834 21.132Z" fill="url(#paint25_linear_125_1076)"/>
<path d="M3.65823 16.7632C3.79893 18.4253 4.08033 19.9924 4.64313 21.5595C5.15904 23.1266 5.86254 24.5987 6.42534 26.1658C4.31483 23.6014 2.86092 20.0873 3.70513 16.7632H3.65823Z" fill="url(#paint26_linear_125_1076)"/>
<path d="M67.0205 5.74607C63.8313 4.79631 63.4092 0.902302 63.4092 0.902302C64.91 0.522398 68.0992 2.80182 67.0205 5.74607Z" fill="url(#paint27_linear_125_1076)"/>
<path d="M70.5849 14.0566C68.6151 15.0538 66.6922 13.3917 66.6922 13.3917C67.255 12.5369 69.8345 12.157 70.5849 14.0566Z" fill="url(#paint28_linear_125_1076)"/>
<path d="M69.7876 5.98355C70.0221 4.2265 68.2399 3.13428 68.2399 3.13428C67.724 3.79911 68.1461 5.88858 69.7876 5.98355Z" fill="url(#paint29_linear_125_1076)"/>
<path d="M78.6518 20.23C80.3871 18.8528 79.7305 16.3359 79.7305 16.3359C78.6987 16.4784 77.2917 18.7103 78.6518 20.23Z" fill="url(#paint30_linear_125_1076)"/>
<path d="M89.0167 25.6435C90.9396 23.3166 89.3919 20.1824 89.3919 20.1824C88.0787 20.6573 86.7655 23.9814 89.0167 25.6435Z" fill="url(#paint31_linear_125_1076)"/>
<path d="M85.7806 41.1246C87.9849 37.1831 92.3466 36.8982 92.3466 36.8982C92.2059 38.7977 88.5946 42.6442 85.7806 41.1246Z" fill="url(#paint32_linear_125_1076)"/>
<path d="M82.31 14.6264C81.3251 10.2575 84.186 7.02832 84.186 7.02832C85.3116 8.50045 85.2178 13.8666 82.31 14.6264Z" fill="url(#paint33_linear_125_1076)"/>
<path d="M81.1375 12.442C80.1995 9.35528 77.2448 8.40552 77.2448 8.40552C77.1041 9.73518 79.027 13.0118 81.1375 12.442Z" fill="url(#paint34_linear_125_1076)"/>
<path d="M70.7256 8.50044C70.5849 4.89135 73.2582 2.75439 73.2582 2.75439C73.9148 4.08406 73.1175 8.31049 70.7256 8.50044Z" fill="url(#paint35_linear_125_1076)"/>
<path d="M65.0976 61.0221C77.3855 56.3207 84.4205 52.3318 81.3251 37.6105V37.4205C81.0906 36.3283 80.5747 35.2836 79.8712 34.4763C77.9952 32.2918 75.0405 31.4845 72.7892 29.775C72.3202 29.3951 71.8981 29.0152 71.5698 28.5403C72.3671 29.3951 73.352 30.0124 74.3838 30.5348C76.9165 31.817 79.965 32.8617 81.3251 35.616C81.6065 36.1384 81.841 36.7557 81.9817 37.3256C82.8728 41.2671 83.4356 45.9209 81.7941 49.8624C79.1677 56.5107 71.3822 59.075 65.1445 61.0221H65.0976Z" fill="url(#paint36_linear_125_1076)"/>
<path d="M80.6216 25.0262C77.5262 20.8947 72.883 20.0874 68.8965 17.3806C73.2113 19.0427 78.558 20.3724 80.6216 25.0262Z" fill="url(#paint37_linear_125_1076)"/>
<path d="M66.786 3.56152C67.4895 7.36056 67.7709 11.7769 71.476 13.8664C71.9919 14.1513 72.4609 14.4363 72.9299 14.7687C79.0739 19.0426 82.0286 26.7356 82.6383 34.0013C82.8259 36.7556 82.779 39.5574 81.9817 42.2167C83.0604 37.5629 82.2162 31.9118 80.7623 27.4005C79.2146 22.6042 76.4944 17.9979 72.2733 15.1961C71.8512 14.9111 71.3822 14.6737 70.9601 14.3888C67.2081 12.0144 67.0674 7.598 66.786 3.56152Z" fill="url(#paint38_linear_125_1076)"/>
<path d="M75.1812 12.6318C75.3219 13.7241 75.4157 14.7213 75.6971 15.766C75.9316 16.8108 76.2599 17.7605 76.5882 18.8053C74.9936 17.3806 74.3839 14.6738 75.1812 12.6793V12.6318Z" fill="url(#paint39_linear_125_1076)"/>
<path d="M70.4911 2.23193C70.9132 3.08672 70.8663 4.08396 70.7256 5.03372C70.538 6.55334 70.8194 8.16793 71.6167 9.49759C71.8981 9.92498 72.2264 10.3999 72.4609 10.8747C73.352 12.4893 74.1024 14.1989 75.3687 15.576C74.3369 14.9112 73.5396 13.8665 72.8361 12.8217C72.2264 11.9195 71.7105 10.9697 71.1008 10.1149C70.1159 8.64281 69.7876 6.6958 70.2097 4.98623C70.4442 4.08396 70.6318 3.18169 70.4442 2.27942L70.4911 2.23193Z" fill="url(#paint40_linear_125_1076)"/>
<path d="M81.2782 58.5051C77.3855 60.5471 72.7423 60.6421 68.5213 59.7398C70.6787 59.6448 72.8361 59.6448 74.9466 59.5024C77.104 59.3599 79.1677 58.98 81.2782 58.5051Z" fill="url(#paint41_linear_125_1076)"/>
<path d="M87.8442 50.2422C82.7321 55.2759 76.3067 60.2147 68.8027 59.7873C76.4474 59.0749 81.8879 54.5636 87.8442 50.2422Z" fill="url(#paint42_linear_125_1076)"/>
<path d="M81.4658 50.1473C83.717 46.6806 86.1089 37.0406 90.1892 35.9484C90.3768 35.9484 90.5644 35.9009 90.752 35.9009C90.3768 35.9484 90.0485 36.0908 89.7671 36.3283C88.876 36.9456 88.2663 37.8479 87.7504 38.7502C86.2965 41.2195 85.2647 43.9738 83.9046 46.5382C83.248 47.8204 82.4976 49.15 81.5127 50.1948L81.4658 50.1473Z" fill="url(#paint43_linear_125_1076)"/>
<path d="M83.4356 46.3008C83.0135 42.0269 86.062 38.3229 86.3434 34.1439C86.3434 34.1439 86.3434 34.1439 86.3434 34.0964L86.4841 33.4316L86.5779 32.7668C86.7655 31.3896 86.7186 30.0125 86.6717 28.6353C86.5779 26.7833 86.3903 24.8838 86.531 23.0317C86.6248 23.9815 86.7186 24.8838 86.8593 25.786C87.1407 27.6381 87.4221 29.4901 87.3752 31.3896C87.3752 32.3394 87.2814 33.2891 87.0469 34.2389C87.0469 34.9987 86.7186 36.4233 86.3903 37.3731C85.4054 40.3648 83.5763 43.0717 83.4356 46.3008Z" fill="url(#paint44_linear_125_1076)"/>
<path d="M84.2798 19.5176C83.0604 24.5513 84.2798 29.0627 86.8124 33.4315C83.4356 29.8225 81.9817 24.0764 84.2798 19.5176Z" fill="url(#paint45_linear_125_1076)"/>
<path d="M83.4356 25.0737C80.2464 19.2327 84.3736 12.062 78.7925 7.12329C85.1709 11.2073 81.3251 19.0903 83.4356 25.0737Z" fill="url(#paint46_linear_125_1076)"/>
<path d="M91.2679 22.2244C91.4555 25.6435 89.3919 28.8252 86.8124 30.9621C87.6566 29.5375 88.5946 28.2078 89.3919 26.7832C90.1892 25.3586 90.7989 23.839 91.221 22.2719L91.2679 22.2244Z" fill="url(#paint47_linear_125_1076)"/>
</g>
<defs>
<linearGradient id="paint0_linear_125_1076" x1="96.4269" y1="25.5958" x2="208.852" y2="79.0649" gradientUnits="userSpaceOnUse">
<stop offset="0.24" stop-color="#AB8A59"/>
<stop offset="0.29" stop-color="#BC9965"/>
<stop offset="0.37" stop-color="#E8C284"/>
<stop offset="0.41" stop-color="#FDD593"/>
<stop offset="0.54" stop-color="#BF975C"/>
<stop offset="0.95" stop-color="#B0884F"/>
</linearGradient>
<linearGradient id="paint1_linear_125_1076" x1="16.1337" y1="-17.1431" x2="123.117" y2="49.7976" gradientUnits="userSpaceOnUse">
<stop offset="0.24" stop-color="#AB8A59"/>
<stop offset="0.29" stop-color="#BC9965"/>
<stop offset="0.37" stop-color="#E8C284"/>
<stop offset="0.41" stop-color="#FDD593"/>
<stop offset="0.54" stop-color="#BF975C"/>
<stop offset="0.95" stop-color="#B0884F"/>
</linearGradient>
<linearGradient id="paint2_linear_125_1076" x1="1.40701" y1="6.36338" x2="108.437" y2="73.3037" gradientUnits="userSpaceOnUse">
<stop offset="0.24" stop-color="#AB8A59"/>
<stop offset="0.29" stop-color="#BC9965"/>
<stop offset="0.37" stop-color="#E8C284"/>
<stop offset="0.41" stop-color="#FDD593"/>
<stop offset="0.54" stop-color="#BF975C"/>
<stop offset="0.95" stop-color="#B0884F"/>
</linearGradient>
<linearGradient id="paint3_linear_125_1076" x1="-0.140532" y1="8.8335" x2="106.842" y2="75.7742" gradientUnits="userSpaceOnUse">
<stop offset="0.24" stop-color="#AB8A59"/>
<stop offset="0.29" stop-color="#BC9965"/>
<stop offset="0.37" stop-color="#E8C284"/>
<stop offset="0.41" stop-color="#FDD593"/>
<stop offset="0.54" stop-color="#BF975C"/>
<stop offset="0.95" stop-color="#B0884F"/>
</linearGradient>
<linearGradient id="paint4_linear_125_1076" x1="11.772" y1="-10.21" x2="118.801" y2="56.6831" gradientUnits="userSpaceOnUse">
<stop offset="0.24" stop-color="#AB8A59"/>
<stop offset="0.29" stop-color="#BC9965"/>
<stop offset="0.37" stop-color="#E8C284"/>
<stop offset="0.41" stop-color="#FDD593"/>
<stop offset="0.54" stop-color="#BF975C"/>
<stop offset="0.95" stop-color="#B0884F"/>
</linearGradient>
<linearGradient id="paint5_linear_125_1076" x1="6.05014" y1="-1.09242" x2="113.08" y2="65.8479" gradientUnits="userSpaceOnUse">
<stop offset="0.24" stop-color="#AB8A59"/>
<stop offset="0.29" stop-color="#BC9965"/>
<stop offset="0.37" stop-color="#E8C284"/>
<stop offset="0.41" stop-color="#FDD593"/>
<stop offset="0.54" stop-color="#BF975C"/>
<stop offset="0.95" stop-color="#B0884F"/>
</linearGradient>
<linearGradient id="paint6_linear_125_1076" x1="10.4119" y1="-8.07309" x2="117.441" y2="58.8673" gradientUnits="userSpaceOnUse">
<stop offset="0.24" stop-color="#AB8A59"/>
<stop offset="0.29" stop-color="#BC9965"/>
<stop offset="0.37" stop-color="#E8C284"/>
<stop offset="0.41" stop-color="#FDD593"/>
<stop offset="0.54" stop-color="#BF975C"/>
<stop offset="0.95" stop-color="#B0884F"/>
</linearGradient>
<linearGradient id="paint7_linear_125_1076" x1="1.68843" y1="5.88827" x2="108.718" y2="72.8286" gradientUnits="userSpaceOnUse">
<stop offset="0.24" stop-color="#AB8A59"/>
<stop offset="0.29" stop-color="#BC9965"/>
<stop offset="0.37" stop-color="#E8C284"/>
<stop offset="0.41" stop-color="#FDD593"/>
<stop offset="0.54" stop-color="#BF975C"/>
<stop offset="0.95" stop-color="#B0884F"/>
</linearGradient>
<linearGradient id="paint8_linear_125_1076" x1="-2.53261" y1="12.6791" x2="104.45" y2="79.6197" gradientUnits="userSpaceOnUse">
<stop offset="0.24" stop-color="#AB8A59"/>
<stop offset="0.29" stop-color="#BC9965"/>
<stop offset="0.37" stop-color="#E8C284"/>
<stop offset="0.41" stop-color="#FDD593"/>
<stop offset="0.54" stop-color="#BF975C"/>
<stop offset="0.95" stop-color="#B0884F"/>
</linearGradient>
<linearGradient id="paint9_linear_125_1076" x1="-18.6192" y1="38.4185" x2="88.3629" y2="105.312" gradientUnits="userSpaceOnUse">
<stop offset="0.24" stop-color="#AB8A59"/>
<stop offset="0.29" stop-color="#BC9965"/>
<stop offset="0.37" stop-color="#E8C284"/>
<stop offset="0.41" stop-color="#FDD593"/>
<stop offset="0.54" stop-color="#BF975C"/>
<stop offset="0.95" stop-color="#B0884F"/>
</linearGradient>
<linearGradient id="paint10_linear_125_1076" x1="-10.5994" y1="25.5495" x2="96.3834" y2="92.4901" gradientUnits="userSpaceOnUse">
<stop offset="0.24" stop-color="#AB8A59"/>
<stop offset="0.29" stop-color="#BC9965"/>
<stop offset="0.37" stop-color="#E8C284"/>
<stop offset="0.41" stop-color="#FDD593"/>
<stop offset="0.54" stop-color="#BF975C"/>
<stop offset="0.95" stop-color="#B0884F"/>
</linearGradient>
<linearGradient id="paint11_linear_125_1076" x1="4.54935" y1="1.32949" x2="111.532" y2="68.2701" gradientUnits="userSpaceOnUse">
<stop offset="0.24" stop-color="#AB8A59"/>
<stop offset="0.29" stop-color="#BC9965"/>
<stop offset="0.37" stop-color="#E8C284"/>
<stop offset="0.41" stop-color="#FDD593"/>
<stop offset="0.54" stop-color="#BF975C"/>
<stop offset="0.95" stop-color="#B0884F"/>
</linearGradient>
<linearGradient id="paint12_linear_125_1076" x1="5.58115" y1="-0.285125" x2="112.563" y2="66.6084" gradientUnits="userSpaceOnUse">
<stop offset="0.24" stop-color="#AB8A59"/>
<stop offset="0.29" stop-color="#BC9965"/>
<stop offset="0.37" stop-color="#E8C284"/>
<stop offset="0.41" stop-color="#FDD593"/>
<stop offset="0.54" stop-color="#BF975C"/>
<stop offset="0.95" stop-color="#B0884F"/>
</linearGradient>
<linearGradient id="paint13_linear_125_1076" x1="9.28625" y1="-6.26847" x2="116.269" y2="60.6721" gradientUnits="userSpaceOnUse">
<stop offset="0.24" stop-color="#AB8A59"/>
<stop offset="0.29" stop-color="#BC9965"/>
<stop offset="0.37" stop-color="#E8C284"/>
<stop offset="0.41" stop-color="#FDD593"/>
<stop offset="0.54" stop-color="#BF975C"/>
<stop offset="0.95" stop-color="#B0884F"/>
</linearGradient>
<linearGradient id="paint14_linear_125_1076" x1="-15.6645" y1="33.6696" x2="91.3183" y2="100.61" gradientUnits="userSpaceOnUse">
<stop offset="0.24" stop-color="#AB8A59"/>
<stop offset="0.29" stop-color="#BC9965"/>
<stop offset="0.37" stop-color="#E8C284"/>
<stop offset="0.41" stop-color="#FDD593"/>
<stop offset="0.54" stop-color="#BF975C"/>
<stop offset="0.95" stop-color="#B0884F"/>
</linearGradient>
<linearGradient id="paint15_linear_125_1076" x1="-9.28608" y1="23.4598" x2="97.7428" y2="90.353" gradientUnits="userSpaceOnUse">
<stop offset="0.24" stop-color="#AB8A59"/>
<stop offset="0.29" stop-color="#BC9965"/>
<stop offset="0.37" stop-color="#E8C284"/>
<stop offset="0.41" stop-color="#FDD593"/>
<stop offset="0.54" stop-color="#BF975C"/>
<stop offset="0.95" stop-color="#B0884F"/>
</linearGradient>
<linearGradient id="paint16_linear_125_1076" x1="1.12563" y1="6.79074" x2="108.155" y2="73.7311" gradientUnits="userSpaceOnUse">
<stop offset="0.24" stop-color="#AB8A59"/>
<stop offset="0.29" stop-color="#BC9965"/>
<stop offset="0.37" stop-color="#E8C284"/>
<stop offset="0.41" stop-color="#FDD593"/>
<stop offset="0.54" stop-color="#BF975C"/>
<stop offset="0.95" stop-color="#B0884F"/>
</linearGradient>
<linearGradient id="paint17_linear_125_1076" x1="0.375207" y1="8.02529" x2="107.357" y2="74.9188" gradientUnits="userSpaceOnUse">
<stop offset="0.24" stop-color="#AB8A59"/>
<stop offset="0.29" stop-color="#BC9965"/>
<stop offset="0.37" stop-color="#E8C284"/>
<stop offset="0.41" stop-color="#FDD593"/>
<stop offset="0.54" stop-color="#BF975C"/>
<stop offset="0.95" stop-color="#B0884F"/>
</linearGradient>
<linearGradient id="paint18_linear_125_1076" x1="3.61134" y1="2.84919" x2="110.594" y2="69.7898" gradientUnits="userSpaceOnUse">
<stop offset="0.24" stop-color="#AB8A59"/>
<stop offset="0.29" stop-color="#BC9965"/>
<stop offset="0.37" stop-color="#E8C284"/>
<stop offset="0.41" stop-color="#FDD593"/>
<stop offset="0.54" stop-color="#BF975C"/>
<stop offset="0.95" stop-color="#B0884F"/>
</linearGradient>
<linearGradient id="paint19_linear_125_1076" x1="7.55095" y1="-3.46668" x2="114.534" y2="63.4739" gradientUnits="userSpaceOnUse">
<stop offset="0.24" stop-color="#AB8A59"/>
<stop offset="0.29" stop-color="#BC9965"/>
<stop offset="0.37" stop-color="#E8C284"/>
<stop offset="0.41" stop-color="#FDD593"/>
<stop offset="0.54" stop-color="#BF975C"/>
<stop offset="0.95" stop-color="#B0884F"/>
</linearGradient>
<linearGradient id="paint20_linear_125_1076" x1="-17.5874" y1="36.7089" x2="89.4422" y2="103.649" gradientUnits="userSpaceOnUse">
<stop offset="0.24" stop-color="#AB8A59"/>
<stop offset="0.29" stop-color="#BC9965"/>
<stop offset="0.37" stop-color="#E8C284"/>
<stop offset="0.41" stop-color="#FDD593"/>
<stop offset="0.54" stop-color="#BF975C"/>
<stop offset="0.95" stop-color="#B0884F"/>
</linearGradient>
<linearGradient id="paint21_linear_125_1076" x1="-16.6025" y1="35.1892" x2="90.3803" y2="102.13" gradientUnits="userSpaceOnUse">
<stop offset="0.24" stop-color="#AB8A59"/>
<stop offset="0.29" stop-color="#BC9965"/>
<stop offset="0.37" stop-color="#E8C284"/>
<stop offset="0.41" stop-color="#FDD593"/>
<stop offset="0.54" stop-color="#BF975C"/>
<stop offset="0.95" stop-color="#B0884F"/>
</linearGradient>
<linearGradient id="paint22_linear_125_1076" x1="-11.7718" y1="27.4011" x2="95.2578" y2="94.3414" gradientUnits="userSpaceOnUse">
<stop offset="0.24" stop-color="#AB8A59"/>
<stop offset="0.29" stop-color="#BC9965"/>
<stop offset="0.37" stop-color="#E8C284"/>
<stop offset="0.41" stop-color="#FDD593"/>
<stop offset="0.54" stop-color="#BF975C"/>
<stop offset="0.95" stop-color="#B0884F"/>
</linearGradient>
<linearGradient id="paint23_linear_125_1076" x1="-7.50386" y1="20.6103" x2="99.525" y2="87.5035" gradientUnits="userSpaceOnUse">
<stop offset="0.24" stop-color="#AB8A59"/>
<stop offset="0.29" stop-color="#BC9965"/>
<stop offset="0.37" stop-color="#E8C284"/>
<stop offset="0.41" stop-color="#FDD593"/>
<stop offset="0.54" stop-color="#BF975C"/>
<stop offset="0.95" stop-color="#B0884F"/>
</linearGradient>
<linearGradient id="paint24_linear_125_1076" x1="-3.5644" y1="14.3412" x2="103.418" y2="81.2819" gradientUnits="userSpaceOnUse">
<stop offset="0.24" stop-color="#AB8A59"/>
<stop offset="0.29" stop-color="#BC9965"/>
<stop offset="0.37" stop-color="#E8C284"/>
<stop offset="0.41" stop-color="#FDD593"/>
<stop offset="0.54" stop-color="#BF975C"/>
<stop offset="0.95" stop-color="#B0884F"/>
</linearGradient>
<linearGradient id="paint25_linear_125_1076" x1="2.39193" y1="4.79616" x2="109.375" y2="71.7368" gradientUnits="userSpaceOnUse">
<stop offset="0.24" stop-color="#AB8A59"/>
<stop offset="0.29" stop-color="#BC9965"/>
<stop offset="0.37" stop-color="#E8C284"/>
<stop offset="0.41" stop-color="#FDD593"/>
<stop offset="0.54" stop-color="#BF975C"/>
<stop offset="0.95" stop-color="#B0884F"/>
</linearGradient>
<linearGradient id="paint26_linear_125_1076" x1="-4.31482" y1="15.5285" x2="102.667" y2="82.422" gradientUnits="userSpaceOnUse">
<stop offset="0.24" stop-color="#AB8A59"/>
<stop offset="0.29" stop-color="#BC9965"/>
<stop offset="0.37" stop-color="#E8C284"/>
<stop offset="0.41" stop-color="#FDD593"/>
<stop offset="0.54" stop-color="#BF975C"/>
<stop offset="0.95" stop-color="#B0884F"/>
</linearGradient>
<linearGradient id="paint27_linear_125_1076" x1="29.6644" y1="-30.768" x2="122.42" y2="55.2478" gradientUnits="userSpaceOnUse">
<stop offset="0.24" stop-color="#AB8A59"/>
<stop offset="0.29" stop-color="#BC9965"/>
<stop offset="0.37" stop-color="#E8C284"/>
<stop offset="0.41" stop-color="#FDD593"/>
<stop offset="0.54" stop-color="#BF975C"/>
<stop offset="0.95" stop-color="#B0884F"/>
</linearGradient>
<linearGradient id="paint28_linear_125_1076" x1="26.0518" y1="-26.8282" x2="118.761" y2="59.1793" gradientUnits="userSpaceOnUse">
<stop offset="0.24" stop-color="#AB8A59"/>
<stop offset="0.29" stop-color="#BC9965"/>
<stop offset="0.37" stop-color="#E8C284"/>
<stop offset="0.41" stop-color="#FDD593"/>
<stop offset="0.54" stop-color="#BF975C"/>
<stop offset="0.95" stop-color="#B0884F"/>
</linearGradient>
<linearGradient id="paint29_linear_125_1076" x1="30.5038" y1="-31.6686" x2="123.205" y2="54.3856" gradientUnits="userSpaceOnUse">
<stop offset="0.24" stop-color="#AB8A59"/>
<stop offset="0.29" stop-color="#BC9965"/>
<stop offset="0.37" stop-color="#E8C284"/>
<stop offset="0.41" stop-color="#FDD593"/>
<stop offset="0.54" stop-color="#BF975C"/>
<stop offset="0.95" stop-color="#B0884F"/>
</linearGradient>
<linearGradient id="paint30_linear_125_1076" x1="28.6426" y1="-29.661" x2="121.398" y2="56.3548" gradientUnits="userSpaceOnUse">
<stop offset="0.24" stop-color="#AB8A59"/>
<stop offset="0.29" stop-color="#BC9965"/>
<stop offset="0.37" stop-color="#E8C284"/>
<stop offset="0.41" stop-color="#FDD593"/>
<stop offset="0.54" stop-color="#BF975C"/>
<stop offset="0.95" stop-color="#B0884F"/>
</linearGradient>
<linearGradient id="paint31_linear_125_1076" x1="31.051" y1="-32.2876" x2="123.798" y2="53.775" gradientUnits="userSpaceOnUse">
<stop offset="0.24" stop-color="#AB8A59"/>
<stop offset="0.29" stop-color="#BC9965"/>
<stop offset="0.37" stop-color="#E8C284"/>
<stop offset="0.41" stop-color="#FDD593"/>
<stop offset="0.54" stop-color="#BF975C"/>
<stop offset="0.95" stop-color="#B0884F"/>
</linearGradient>
<linearGradient id="paint32_linear_125_1076" x1="136.086" y1="3.8633" x2="228.597" y2="97.1329" gradientUnits="userSpaceOnUse">
<stop offset="0.24" stop-color="#AB8A59"/>
<stop offset="0.29" stop-color="#BC9965"/>
<stop offset="0.37" stop-color="#E8C284"/>
<stop offset="0.41" stop-color="#FDD593"/>
<stop offset="0.54" stop-color="#BF975C"/>
<stop offset="0.95" stop-color="#B0884F"/>
</linearGradient>
<linearGradient id="paint33_linear_125_1076" x1="34.2261" y1="-35.6836" x2="126.927" y2="50.3707" gradientUnits="userSpaceOnUse">
<stop offset="0.24" stop-color="#AB8A59"/>
<stop offset="0.29" stop-color="#BC9965"/>
<stop offset="0.37" stop-color="#E8C284"/>
<stop offset="0.41" stop-color="#FDD593"/>
<stop offset="0.54" stop-color="#BF975C"/>
<stop offset="0.95" stop-color="#B0884F"/>
</linearGradient>
<linearGradient id="paint34_linear_125_1076" x1="32.365" y1="-33.676" x2="125.12" y2="52.3398" gradientUnits="userSpaceOnUse">
<stop offset="0.24" stop-color="#AB8A59"/>
<stop offset="0.29" stop-color="#BC9965"/>
<stop offset="0.37" stop-color="#E8C284"/>
<stop offset="0.41" stop-color="#FDD593"/>
<stop offset="0.54" stop-color="#BF975C"/>
<stop offset="0.95" stop-color="#B0884F"/>
</linearGradient>
<linearGradient id="paint35_linear_125_1076" x1="31.5256" y1="-32.7755" x2="124.226" y2="53.2787" gradientUnits="userSpaceOnUse">
<stop offset="0.24" stop-color="#AB8A59"/>
<stop offset="0.29" stop-color="#BC9965"/>
<stop offset="0.37" stop-color="#E8C284"/>
<stop offset="0.41" stop-color="#FDD593"/>
<stop offset="0.54" stop-color="#BF975C"/>
<stop offset="0.95" stop-color="#B0884F"/>
</linearGradient>
<linearGradient id="paint36_linear_125_1076" x1="11.171" y1="-10.8146" x2="103.88" y2="75.1929" gradientUnits="userSpaceOnUse">
<stop offset="0.24" stop-color="#AB8A59"/>
<stop offset="0.29" stop-color="#BC9965"/>
<stop offset="0.37" stop-color="#E8C284"/>
<stop offset="0.41" stop-color="#FDD593"/>
<stop offset="0.54" stop-color="#BF975C"/>
<stop offset="0.95" stop-color="#B0884F"/>
</linearGradient>
<linearGradient id="paint37_linear_125_1076" x1="25.3948" y1="-26.134" x2="118.096" y2="59.9202" gradientUnits="userSpaceOnUse">
<stop offset="0.24" stop-color="#AB8A59"/>
<stop offset="0.29" stop-color="#BC9965"/>
<stop offset="0.37" stop-color="#E8C284"/>
<stop offset="0.41" stop-color="#FDD593"/>
<stop offset="0.54" stop-color="#BF975C"/>
<stop offset="0.95" stop-color="#B0884F"/>
</linearGradient>
<linearGradient id="paint38_linear_125_1076" x1="24.1357" y1="-24.7831" x2="116.845" y2="61.2244" gradientUnits="userSpaceOnUse">
<stop offset="0.24" stop-color="#AB8A59"/>
<stop offset="0.29" stop-color="#BC9965"/>
<stop offset="0.37" stop-color="#E8C284"/>
<stop offset="0.41" stop-color="#FDD593"/>
<stop offset="0.54" stop-color="#BF975C"/>
<stop offset="0.95" stop-color="#B0884F"/>
</linearGradient>
<linearGradient id="paint39_linear_125_1076" x1="28.3966" y1="-29.3704" x2="121.097" y2="56.6836" gradientUnits="userSpaceOnUse">
<stop offset="0.24" stop-color="#AB8A59"/>
<stop offset="0.29" stop-color="#BC9965"/>
<stop offset="0.37" stop-color="#E8C284"/>
<stop offset="0.41" stop-color="#FDD593"/>
<stop offset="0.54" stop-color="#BF975C"/>
<stop offset="0.95" stop-color="#B0884F"/>
</linearGradient>
<linearGradient id="paint40_linear_125_1076" x1="30.3214" y1="-31.4623" x2="123.022" y2="54.5918" gradientUnits="userSpaceOnUse">
<stop offset="0.24" stop-color="#AB8A59"/>
<stop offset="0.29" stop-color="#BC9965"/>
<stop offset="0.37" stop-color="#E8C284"/>
<stop offset="0.41" stop-color="#FDD593"/>
<stop offset="0.54" stop-color="#BF975C"/>
<stop offset="0.95" stop-color="#B0884F"/>
</linearGradient>
<linearGradient id="paint41_linear_125_1076" x1="6.54547" y1="-5.81461" x2="99.2463" y2="80.2396" gradientUnits="userSpaceOnUse">
<stop offset="0.24" stop-color="#AB8A59"/>
<stop offset="0.29" stop-color="#BC9965"/>
<stop offset="0.37" stop-color="#E8C284"/>
<stop offset="0.41" stop-color="#FDD593"/>
<stop offset="0.54" stop-color="#BF975C"/>
<stop offset="0.95" stop-color="#B0884F"/>
</linearGradient>
<linearGradient id="paint42_linear_125_1076" x1="10.1492" y1="-9.70773" x2="102.858" y2="76.2997" gradientUnits="userSpaceOnUse">
<stop offset="0.24" stop-color="#AB8A59"/>
<stop offset="0.29" stop-color="#BC9965"/>
<stop offset="0.37" stop-color="#E8C284"/>
<stop offset="0.41" stop-color="#FDD593"/>
<stop offset="0.54" stop-color="#BF975C"/>
<stop offset="0.95" stop-color="#B0884F"/>
</linearGradient>
<linearGradient id="paint43_linear_125_1076" x1="19.7475" y1="-20.0271" x2="112.456" y2="65.9804" gradientUnits="userSpaceOnUse">
<stop offset="0.24" stop-color="#AB8A59"/>
<stop offset="0.29" stop-color="#BC9965"/>
<stop offset="0.37" stop-color="#E8C284"/>
<stop offset="0.41" stop-color="#FDD593"/>
<stop offset="0.54" stop-color="#BF975C"/>
<stop offset="0.95" stop-color="#B0884F"/>
</linearGradient>
<linearGradient id="paint44_linear_125_1076" x1="23.3053" y1="-23.929" x2="116.006" y2="62.125" gradientUnits="userSpaceOnUse">
<stop offset="0.24" stop-color="#AB8A59"/>
<stop offset="0.29" stop-color="#BC9965"/>
<stop offset="0.37" stop-color="#E8C284"/>
<stop offset="0.41" stop-color="#FDD593"/>
<stop offset="0.54" stop-color="#BF975C"/>
<stop offset="0.95" stop-color="#B0884F"/>
</linearGradient>
<linearGradient id="paint45_linear_125_1076" x1="27.6119" y1="-28.5075" x2="120.321" y2="57.5001" gradientUnits="userSpaceOnUse">
<stop offset="0.24" stop-color="#AB8A59"/>
<stop offset="0.29" stop-color="#BC9965"/>
<stop offset="0.37" stop-color="#E8C284"/>
<stop offset="0.41" stop-color="#FDD593"/>
<stop offset="0.54" stop-color="#BF975C"/>
<stop offset="0.95" stop-color="#B0884F"/>
</linearGradient>
<linearGradient id="paint46_linear_125_1076" x1="30.6773" y1="-31.8282" x2="123.386" y2="54.1794" gradientUnits="userSpaceOnUse">
<stop offset="0.24" stop-color="#AB8A59"/>
<stop offset="0.29" stop-color="#BC9965"/>
<stop offset="0.37" stop-color="#E8C284"/>
<stop offset="0.41" stop-color="#FDD593"/>
<stop offset="0.54" stop-color="#BF975C"/>
<stop offset="0.95" stop-color="#B0884F"/>
</linearGradient>
<linearGradient id="paint47_linear_125_1076" x1="29.1899" y1="-30.28" x2="121.937" y2="55.7824" gradientUnits="userSpaceOnUse">
<stop offset="0.24" stop-color="#AB8A59"/>
<stop offset="0.29" stop-color="#BC9965"/>
<stop offset="0.37" stop-color="#E8C284"/>
<stop offset="0.41" stop-color="#FDD593"/>
<stop offset="0.54" stop-color="#BF975C"/>
<stop offset="0.95" stop-color="#B0884F"/>
</linearGradient>
<clipPath id="clip0_125_1076">
<rect width="261" height="69" fill="white"/>
</clipPath>
</defs>
</svg>
