<svg xmlns="http://www.w3.org/2000/svg" width="132" height="93" viewBox="0 0 132 93" fill="none">
    <g clip-path="url(#clip0_120_235)">
        <path d="M2.80917 67.5655C1.93521 67.0662 1.24852 66.4108 0.749113 65.5682C0.249704 64.7256 0 63.7582 0 62.6971C0 61.636 0.249704 60.6686 0.749113 59.8259C1.24852 58.9833 1.93521 58.2968 2.80917 57.8286C3.68314 57.3293 4.65074 57.1108 5.7432 57.1108C6.55474 57.1108 7.27264 57.2357 7.95933 57.4853C8.64601 57.735 9.20785 58.1407 9.67605 58.64L9.17664 59.1706C8.30267 58.2967 7.14779 57.8598 5.77441 57.8598C4.83802 57.8598 3.99527 58.0783 3.24616 58.484C2.49704 58.9209 1.87278 59.4827 1.46701 60.2316C1.03003 60.9806 0.811539 61.8233 0.811539 62.7283C0.811539 63.6333 1.03003 64.4759 1.46701 65.2249C1.904 65.9739 2.49704 66.5669 3.24616 66.9726C3.99527 67.4095 4.83802 67.5967 5.77441 67.5967C7.14779 67.5967 8.27146 67.1598 9.17664 66.2548L9.67605 66.7853C9.20785 67.2847 8.6148 67.6904 7.92811 67.94C7.24143 68.1897 6.52353 68.3457 5.71199 68.3457C4.61953 68.3457 3.65193 68.0961 2.77796 67.628L2.80917 67.5655Z"
              fill="white"/>
        <path d="M19.1336 57.8286H15.1384V68.1897H14.3268V57.8286H10.3315V57.1108H19.1336V57.8286Z" fill="white"/>
        <path d="M29.2154 57.1108L24.0965 66.5981C23.7531 67.2223 23.3786 67.6592 22.9416 67.9712C22.5046 68.2521 22.0052 68.4082 21.5058 68.4082C21.1 68.4082 20.6943 68.3145 20.2261 68.1273L20.4758 67.4719C20.8503 67.628 21.1625 67.6904 21.5058 67.6904C22.2549 67.6904 22.8792 67.2847 23.3786 66.4421L23.7532 65.7867L19.196 57.142H20.07L24.1901 65.0377L28.3727 57.142H29.2154V57.1108Z"
              fill="white"/>
        <path d="M40.9827 67.4719V70.7488H40.2024V68.2209H30.0582V70.7488H29.2778V67.4719H29.9021C30.62 67.4095 31.1506 66.7853 31.4315 65.6306C31.7124 64.4759 31.8997 62.8531 31.9622 60.7622L32.087 57.1108H39.2972V67.4719H41.0139H40.9827ZM32.2743 65.2249C32.0558 66.3796 31.6812 67.1286 31.1818 67.4719H38.4857V57.8286H32.8049L32.7113 60.7934C32.6488 62.6035 32.4928 64.0702 32.3055 65.1937L32.2743 65.2249Z"
              fill="white"/>
        <path d="M43.5734 57.1108H44.3849V66.8478L51.9385 57.1108H52.6564V68.1897H51.8448V58.484L44.2913 68.1897H43.5734V57.1108Z"
              fill="white"/>
        <path d="M64.2677 57.1108V68.1897H63.4562V64.6944H59.9291C59.6482 64.6944 59.3985 64.6943 59.1488 64.6319L56.6829 68.1584H55.809L58.3684 64.4759C57.5569 64.2574 56.9014 63.8205 56.4644 63.2276C56.0275 62.6346 55.809 61.8544 55.809 60.9494C55.809 59.7323 56.1835 58.7648 56.9638 58.1095C57.7442 57.4229 58.7742 57.0796 60.0852 57.0796H64.2677V57.1108ZM57.4945 63.2276C58.0563 63.7581 58.8991 64.0078 59.9915 64.0078H63.4562V57.8286H60.1476C59.0239 57.8286 58.1499 58.1095 57.5569 58.64C56.9638 59.1705 56.6517 59.9507 56.6517 60.9494C56.6517 61.948 56.9326 62.697 57.4945 63.2276Z"
              fill="white"/>
        <path d="M80.4361 63.4149C80.8418 63.883 81.0603 64.5072 81.0603 65.2561C81.0603 66.1924 80.717 66.9414 80.0615 67.4407C79.406 67.94 78.4072 68.1897 77.0963 68.1897H72.3207V57.1108H76.7841C77.939 57.1108 78.8442 57.3605 79.4997 57.8286C80.1552 58.328 80.4673 59.0145 80.4673 59.9196C80.4673 60.5749 80.3112 61.1055 79.9679 61.5424C79.6245 61.9793 79.1563 62.2914 78.5633 62.4786C79.3748 62.6035 79.9991 62.9155 80.4361 63.3837V63.4149ZM73.1322 62.2602H76.7841C77.7205 62.2602 78.4384 62.0729 78.9378 61.6984C79.4373 61.3239 79.687 60.7622 79.687 60.0444C79.687 59.3266 79.4373 58.7649 78.9378 58.3904C78.4384 58.0159 77.7205 57.8286 76.7841 57.8286H73.1322V62.2914V62.2602ZM80.2488 65.2249C80.2488 64.4447 79.9991 63.8518 79.4685 63.4773C78.9378 63.1028 78.1575 62.9155 77.1275 62.9155H73.1634V67.5343H77.1275C79.2188 67.5343 80.28 66.7541 80.28 65.2249H80.2488Z"
              fill="white"/>
        <path d="M86.0232 67.5342C85.1492 67.0348 84.4625 66.3795 83.9631 65.5056C83.4637 64.663 83.214 63.6956 83.214 62.6345C83.214 61.5734 83.4637 60.6372 83.9631 59.7634C84.4625 58.9207 85.1492 58.2342 86.0232 57.7348C86.8971 57.2355 87.8959 56.9858 88.9572 56.9858C90.0184 56.9858 91.0173 57.2355 91.8912 57.7036C92.7652 58.203 93.4519 58.8583 93.9513 59.7009C94.4507 60.5436 94.7004 61.511 94.7004 62.5721C94.7004 63.6332 94.4507 64.6006 93.9513 65.4432C93.4519 66.2858 92.7652 66.9724 91.8912 67.4405C91.0173 67.9087 90.0184 68.1583 88.9572 68.1583C87.8959 68.1583 86.8971 67.9087 86.0232 67.4093V67.5342ZM91.4854 66.91C92.2346 66.4731 92.8276 65.9113 93.2646 65.1623C93.7016 64.4134 93.9201 63.5707 93.9201 62.6657C93.9201 61.7607 93.7016 60.9181 93.2646 60.1691C92.8276 59.4201 92.2346 58.8271 91.4854 58.4214C90.7363 57.9845 89.8936 57.7972 88.9572 57.7972C88.0208 57.7972 87.178 58.0157 86.4289 58.4214C85.6798 58.8583 85.0868 59.4201 84.6498 60.1691C84.2128 60.9181 83.9943 61.7607 83.9943 62.6657C83.9943 63.5707 84.2128 64.4134 84.6498 65.1623C85.0868 65.9113 85.6798 66.5043 86.4289 66.91C87.178 67.3469 88.0208 67.5342 88.9572 67.5342C89.8936 67.5342 90.7363 67.3157 91.4854 66.91Z"
              fill="white"/>
        <path d="M105.812 57.1108V68.1897H105.001V57.8286H99.2575L99.1014 61.9169C99.039 63.4461 98.9141 64.6632 98.7269 65.5994C98.5396 66.5357 98.2587 67.2223 97.8529 67.6592C97.4783 68.0961 96.9789 68.3145 96.3547 68.3145C96.0737 68.3145 95.7928 68.2833 95.5743 68.2209L95.668 67.4719C95.8553 67.5031 96.0113 67.5343 96.1986 67.5343C96.698 67.5343 97.0726 67.3471 97.3847 66.9726C97.6968 66.5981 97.9153 66.0051 98.0714 65.1937C98.2274 64.3823 98.3211 63.29 98.3835 61.9481L98.5396 57.142H105.812V57.1108Z"
              fill="white"/>
        <path d="M111.587 67.5342C110.713 67.0348 110.026 66.3795 109.527 65.5056C109.027 64.6318 108.777 63.6956 108.777 62.6345C108.777 61.5734 109.027 60.6372 109.527 59.7634C110.026 58.8895 110.713 58.2342 111.587 57.7348C112.461 57.2355 113.459 56.9858 114.521 56.9858C115.582 56.9858 116.581 57.2355 117.455 57.7036C118.329 58.203 119.015 58.8583 119.515 59.7009C120.014 60.5436 120.264 61.511 120.264 62.5721C120.264 63.6332 120.014 64.6006 119.515 65.4432C119.015 66.2858 118.329 66.9724 117.455 67.4405C116.581 67.9399 115.582 68.1583 114.521 68.1583C113.459 68.1583 112.461 67.9087 111.587 67.4093V67.5342ZM117.08 66.91C117.829 66.4731 118.422 65.9113 118.859 65.1623C119.296 64.4134 119.515 63.5707 119.515 62.6657C119.515 61.7607 119.296 60.9181 118.859 60.1691C118.422 59.4201 117.829 58.8271 117.08 58.4214C116.331 57.9845 115.488 57.7972 114.552 57.7972C113.615 57.7972 112.773 58.0157 112.024 58.4214C111.275 58.8583 110.681 59.4201 110.244 60.1691C109.808 60.9181 109.589 61.7607 109.589 62.6657C109.589 63.5707 109.808 64.4134 110.244 65.1623C110.681 65.9113 111.275 66.5043 112.024 66.91C112.773 67.3469 113.615 67.5342 114.552 67.5342C115.488 67.5342 116.331 67.3157 117.08 66.91Z"
              fill="white"/>
        <path d="M125.133 67.5655C124.259 67.0662 123.573 66.4108 123.073 65.5682C122.574 64.7256 122.324 63.7582 122.324 62.6971C122.324 61.636 122.574 60.6686 123.073 59.8259C123.573 58.9833 124.259 58.2968 125.133 57.8286C126.007 57.3293 126.975 57.1108 128.067 57.1108C128.879 57.1108 129.597 57.2357 130.283 57.4853C130.97 57.735 131.532 58.1407 132 58.64L131.501 59.1706C130.627 58.2967 129.472 57.8598 128.098 57.8598C127.162 57.8598 126.319 58.0783 125.57 58.484C124.821 58.9209 124.197 59.4827 123.791 60.2316C123.354 60.9806 123.136 61.8233 123.136 62.7283C123.136 63.6333 123.354 64.4759 123.791 65.2249C124.228 65.9739 124.821 66.5669 125.57 66.9726C126.319 67.4095 127.162 67.5967 128.098 67.5967C129.472 67.5967 130.595 67.1598 131.501 66.2548L132 66.7853C131.532 67.2847 130.939 67.6904 130.252 67.94C129.565 68.1897 128.848 68.3457 128.036 68.3457C126.944 68.3457 125.976 68.0961 125.102 67.628L125.133 67.5655Z"
              fill="white"/>
        <path d="M86.6474 77.5522H45.3838C41.1086 77.5522 37.6429 81.0104 37.6429 85.2762C37.6429 89.5421 41.1086 93.0002 45.3838 93.0002H86.6474C90.9226 93.0002 94.3883 89.5421 94.3883 85.2762C94.3883 81.0104 90.9226 77.5522 86.6474 77.5522Z"
              fill="url(#paint0_linear_120_235)"/>
        <path d="M45.696 88.1007C45.5711 87.9446 45.3838 87.851 45.1653 87.7886C45.3214 87.7262 45.4775 87.6013 45.5711 87.4765C45.6648 87.3205 45.7272 87.1644 45.7272 86.946C45.7272 86.6339 45.6023 86.4154 45.3838 86.2282C45.1653 86.0721 44.8532 85.9785 44.4787 85.9785H42.9492V89.6611H44.6035C45.0405 89.6611 45.3838 89.5674 45.6023 89.4114C45.8208 89.2554 45.9457 89.0057 45.9457 88.6624C45.9457 88.4127 45.8832 88.2255 45.7584 88.0695L45.696 88.1007ZM43.2926 86.2906H44.4162C44.6971 86.2906 44.9156 86.353 45.0717 86.4778C45.2278 86.6027 45.3214 86.7587 45.3214 86.9772C45.3214 87.1956 45.2278 87.3517 45.0717 87.4765C44.9156 87.6013 44.6971 87.6325 44.4162 87.6325H43.2926V86.2906ZM45.259 89.1929C45.1029 89.3178 44.8532 89.349 44.5411 89.349H43.2926V87.9758H44.5411C45.1966 87.9758 45.5087 88.1943 45.5087 88.6624C45.5087 88.9121 45.415 89.0681 45.259 89.1929Z"
              fill="black"/>
        <path d="M53.7801 90.2854C53.1559 90.2854 52.5316 90.1918 52.001 90.0358C51.4704 89.8797 51.0022 89.5989 50.6588 89.2556C50.3155 88.9123 50.1594 88.4754 50.1594 87.9448C50.1594 87.5391 50.2843 87.1334 50.534 86.7277C51.4079 85.2922 52.9062 84.1999 55.0287 83.5133C54.7165 83.1388 54.5605 82.7019 54.5605 82.2338C54.5605 81.8593 54.6541 81.516 54.8726 81.2351C55.2784 80.6734 55.8402 80.2052 56.6517 79.862C57.0887 79.6747 57.5569 79.5187 57.9939 79.3938C58.4621 79.269 58.9303 79.2378 59.3985 79.2378C59.9915 79.2378 60.4285 79.3314 60.7406 79.5187C61.0528 79.7059 61.2088 79.9868 61.2088 80.3613C61.2088 80.6109 61.1464 80.8294 61.0216 81.0479C60.8967 81.2351 60.7406 81.4224 60.5534 81.5472C60.3661 81.672 60.1788 81.7344 59.9603 81.7344C59.6482 81.7344 59.5233 81.672 59.5233 81.516C59.5233 81.4224 59.5858 81.3912 59.7106 81.3912C59.7418 81.3912 59.8043 81.3912 59.8667 81.3912C59.9291 81.3912 59.9915 81.3912 60.0227 81.3912C60.21 81.3912 60.3973 81.2663 60.5534 81.0791C60.7094 80.8606 60.7719 80.6422 60.7719 80.4237C60.7719 80.1116 60.6158 79.8932 60.3349 79.7371C60.054 79.6123 59.7106 79.5187 59.3673 79.5187C58.4621 79.5187 57.5881 79.8307 56.7142 80.4237C55.809 81.0479 55.3408 81.7656 55.3408 82.5459C55.3408 82.8267 55.4344 83.1076 55.6217 83.3573C55.9651 83.2324 56.2772 83.17 56.5581 83.1388C56.8702 83.0764 57.1511 83.0764 57.4009 83.0764C58.306 83.0764 58.7742 83.2636 58.7742 83.6381C58.7742 83.7942 58.7118 83.9502 58.5869 84.075C58.4621 84.1999 58.2748 84.2935 58.0563 84.3559C57.869 84.4183 57.6506 84.4495 57.4321 84.4495C57.2136 84.4495 56.9639 84.4495 56.7142 84.3559C56.4332 84.2935 56.1835 84.2311 55.9338 84.1063C55.6841 84.0126 55.4656 83.8878 55.3096 83.763C54.4044 84.0438 53.6241 84.4495 52.9062 85.0113C52.2195 85.573 51.7201 86.1972 51.3767 86.8838C51.1895 87.2583 51.0958 87.6328 51.0958 87.9761C51.0958 88.413 51.2207 88.7563 51.4392 89.0371C51.6889 89.318 52.001 89.5052 52.3756 89.6613C52.7813 89.7861 53.2183 89.8485 53.6865 89.8485C54.4668 89.8485 55.2784 89.7237 56.0587 89.4428C56.839 89.1932 57.4945 88.7875 58.0563 88.2881C58.8054 87.6016 59.18 86.8526 59.18 86.1036C59.18 85.5106 58.8991 85.1985 58.3372 85.1985C58.0251 85.1985 57.713 85.2922 57.3384 85.4482C56.9639 85.6042 56.6205 85.7915 56.3084 86.0724C55.9963 86.322 55.7466 86.6029 55.5281 86.915C55.3096 87.2271 55.2159 87.5391 55.2159 87.8512C55.2159 88.1633 55.3408 88.3505 55.6217 88.4442C55.7153 88.4754 55.7778 88.5378 55.7778 88.6002C55.7778 88.6938 55.7153 88.725 55.5593 88.725C55.0599 88.725 54.8102 88.4442 54.8102 87.8512C54.8102 87.4767 54.935 87.1022 55.1535 86.7589C55.372 86.4156 55.6529 86.1036 55.9963 85.8227C56.3396 85.5418 56.7454 85.3546 57.1511 85.1985C57.5569 85.0425 57.9627 84.9489 58.3372 84.9489C58.7742 84.9489 59.1488 85.0425 59.3673 85.2609C59.617 85.4482 59.7418 85.7915 59.7418 86.2284C59.7418 87.1646 59.2424 88.0073 58.2748 88.8187C57.6506 89.3492 56.9639 89.7237 56.2148 89.9422C55.4656 90.1918 54.6541 90.2854 53.8114 90.2854H53.7801ZM57.276 84.1063C57.8066 84.1063 58.0563 83.9502 58.0563 83.6381C58.0563 83.5133 57.8066 83.4197 57.276 83.4197C57.0575 83.4197 56.8078 83.4197 56.5581 83.4509C56.3084 83.4509 56.0899 83.5133 55.8402 83.5757C56.246 83.919 56.7454 84.075 57.276 84.075V84.1063ZM60.4909 89.162C60.4909 89.162 60.3661 89.162 60.2412 89.0995C60.1476 89.0371 60.054 88.9747 59.9603 88.9123C59.8667 88.8187 59.8355 88.7563 59.8043 88.6938C59.8043 88.6002 59.8355 88.3818 59.9603 88.0385C60.054 87.664 60.2412 87.1646 60.4909 86.5093C60.7406 85.8539 60.9279 85.3546 61.084 84.9801C61.2401 84.6368 61.3649 84.4183 61.4273 84.3559C61.4585 84.3247 61.521 84.2935 61.5834 84.2935C61.677 84.2935 61.8019 84.3559 61.8955 84.4495C61.9892 84.5432 62.0516 84.6368 62.0516 84.7616C62.0516 84.7616 61.8019 85.3546 61.3337 86.5093C60.8655 87.6328 60.647 88.2881 60.6782 88.5066C61.084 88.3818 61.8019 87.8824 62.7695 87.0398C63.3625 86.5093 63.7995 86.0724 64.0492 85.6354C64.3302 85.1985 64.455 84.824 64.455 84.4807C64.455 84.2935 64.3926 84.1062 64.2989 83.9502C64.2053 83.7942 64.0492 83.6381 63.7995 83.5445C63.7371 83.5445 63.7059 83.4821 63.7059 83.4197C63.7059 83.326 63.7683 83.2948 63.862 83.2948C64.1429 83.2948 64.3926 83.3885 64.5799 83.5757C64.7983 83.763 64.892 84.0438 64.892 84.4183C64.892 84.824 64.7359 85.2609 64.3926 85.7603C64.0804 86.2596 63.6123 86.7901 63.0192 87.3519C62.4886 87.82 62.0204 88.2257 61.5834 88.5378C61.1776 88.8499 60.7719 89.0683 60.4597 89.162H60.4909ZM64.1741 92.1579C63.8932 92.1579 63.6435 92.0331 63.4562 91.7834C63.2689 91.5338 63.1441 91.2529 63.1441 90.972C63.1441 90.8472 63.2065 90.7848 63.2689 90.7848C63.3313 90.7848 63.3625 90.8472 63.3625 91.0032C63.3625 91.1593 63.4562 91.3153 63.581 91.4713C63.7371 91.6274 63.862 91.6898 63.9868 91.6898C64.5486 91.6898 65.1105 91.3153 65.7347 90.5663C65.9532 90.2854 66.1717 89.9734 66.4214 89.6301C66.6711 89.2868 66.8896 88.8811 67.1081 88.413L67.826 86.9462L66.7648 88.0697C66.4214 88.413 66.1405 88.6626 65.8908 88.8499C65.6411 89.0059 65.4538 89.0995 65.329 89.0995C65.1105 89.0995 64.8608 89.0059 64.6423 88.8499C64.4238 88.6626 64.2989 88.4754 64.2677 88.2257C64.1741 87.4767 64.6423 86.5717 65.6411 85.5106C66.6711 84.4807 67.5763 83.9502 68.3878 83.9502C68.6063 83.9502 68.7936 84.0126 68.9185 84.1063C68.9809 84.1687 69.0433 84.2623 69.0745 84.3871C69.1057 84.512 69.137 84.5744 69.1682 84.5744C69.1994 84.5744 69.2306 84.5744 69.2618 84.5744C69.2618 84.5744 69.3242 84.5744 69.3554 84.5744C69.4803 84.5744 69.5739 84.6056 69.6676 84.6992C69.7612 84.7928 69.7924 84.8865 69.7612 84.9801C69.7612 85.0737 69.6052 85.3234 69.3554 85.7915C69.1682 86.0724 68.9809 86.4469 68.7624 86.8838C68.5439 87.2895 68.2942 87.7264 68.0757 88.1945C67.826 88.6314 67.6075 89.0683 67.389 89.4428C67.1705 89.8485 66.952 90.1606 66.7648 90.4103C65.8908 91.6274 65.048 92.2203 64.2677 92.2203L64.1741 92.1579ZM65.1729 88.7563C65.7347 88.7563 66.4839 88.1321 67.4202 86.8838L68.9497 84.7304C68.9497 84.7304 68.7624 84.512 68.6063 84.512C68.0133 84.512 67.233 84.9801 66.2341 85.9787C65.2041 86.9774 64.7359 87.82 64.8608 88.413C64.9232 88.6626 65.0168 88.7563 65.2041 88.7563H65.1729ZM70.3543 89.2868C70.0421 89.2868 69.7612 89.1932 69.5115 89.0059C69.2618 88.7875 69.137 88.5378 69.137 88.1945C69.137 87.4767 69.5427 86.6965 70.3855 85.7915C71.2282 84.8865 72.0086 84.4183 72.664 84.4183C72.8825 84.4183 73.0698 84.4807 73.1947 84.6056C73.3507 84.7304 73.4131 84.8865 73.4131 85.0425C73.4131 85.6042 72.9762 86.1348 72.1334 86.6653C71.3843 87.1334 70.76 87.3831 70.2294 87.3831C70.1358 87.3831 70.0734 87.3831 70.0421 87.3831C69.8861 87.664 69.8236 87.9448 69.8236 88.2257C69.8236 88.7563 70.0734 89.0059 70.5103 89.0059C70.9473 89.0059 71.6028 88.6626 72.3519 88.0073C72.945 87.5391 73.4444 87.0086 73.8501 86.4781C73.9438 86.3532 74.0062 86.2908 74.0686 86.2908C74.131 86.2908 74.1623 86.2908 74.1623 86.3844C74.1623 86.4781 74.131 86.5405 74.0374 86.6341C73.7565 87.0086 73.4756 87.3519 73.1947 87.6328C72.8825 87.9448 72.5704 88.2257 72.1958 88.4754C71.4467 89.0371 70.8537 89.318 70.3231 89.318L70.3543 89.2868ZM70.4167 87.071C70.7912 87.071 71.2594 86.8838 71.8213 86.5093C72.0086 86.3844 72.1958 86.2284 72.3831 86.0411C72.5704 85.8539 72.7265 85.6979 72.8513 85.5106C72.9762 85.3234 73.0386 85.1673 73.0386 85.0425C73.0386 84.9177 72.9449 84.8552 72.7265 84.8552C72.4455 84.8552 72.0398 85.0737 71.5404 85.5106C71.2907 85.7291 71.041 85.9787 70.8225 86.2284C70.604 86.4781 70.3855 86.7589 70.2294 87.0398C70.2918 87.0398 70.3543 87.0398 70.4167 87.0398V87.071ZM76.9402 89.1307C76.6905 89.1307 76.5032 89.0683 76.4096 88.9123C76.316 88.7563 76.2535 88.569 76.2535 88.3193C76.2535 87.7576 76.4408 87.1334 76.8154 86.4781L77.7205 84.9489C77.0651 85.4482 76.4408 86.0724 75.7853 86.7901C75.5981 86.9774 75.4108 87.2271 75.1923 87.4767C74.9738 87.7576 74.7553 88.0385 74.5056 88.413C74.1623 88.8811 73.9438 89.0995 73.8813 89.0995C73.7565 89.0995 73.6316 89.0371 73.538 88.9123C73.4444 88.7875 73.4131 88.6626 73.4131 88.569C73.4131 88.5066 73.4131 88.3505 73.4756 88.1321C73.538 87.9136 73.5692 87.7264 73.6629 87.5703C73.7253 87.4143 73.7877 87.2271 73.8501 87.071C73.9438 86.915 74.0062 86.7277 74.0686 86.5717L73.2259 87.5079C73.2259 87.5079 73.1322 87.5703 73.0386 87.6952C72.945 87.7888 72.8513 87.8512 72.8201 87.8512C72.7577 87.8512 72.7577 87.82 72.7577 87.7576C72.7577 87.7576 72.7577 87.7264 72.7577 87.6952C72.7577 87.664 72.7889 87.6016 72.8513 87.5703C73.0074 87.4143 73.1322 87.2583 73.2883 87.1022C73.4444 86.9462 73.6004 86.7277 73.7565 86.5093C73.8501 86.3844 73.975 86.2284 74.131 86.0099C74.3183 85.7915 74.4744 85.5418 74.6929 85.2922C74.9114 85.0425 75.0987 84.7928 75.2859 84.5744C75.3484 84.512 75.3796 84.4495 75.442 84.4495C75.5044 84.4495 75.5356 84.4183 75.5668 84.4183C75.8165 84.4183 75.9414 84.512 75.9414 84.7304C75.9414 84.7928 75.9414 84.8552 75.9102 84.9177C75.0674 86.1348 74.5368 87.071 74.3808 87.7264C75.4732 86.5717 76.3784 85.7291 77.0339 85.1361C77.7205 84.5432 78.1887 84.2623 78.4697 84.2623C78.6257 84.2623 78.7506 84.2623 78.813 84.3247C78.9066 84.3871 78.9379 84.4807 78.9379 84.6056C78.9379 84.668 78.9379 84.6992 78.9379 84.7304C78.9379 84.7928 78.7194 85.0737 78.3448 85.573C78.1263 85.8539 77.939 86.1036 77.7518 86.322C77.5957 86.5405 77.4396 86.7589 77.346 86.915C77.1587 87.1958 77.0339 87.4455 76.9714 87.6952C76.8778 87.9448 76.8466 88.1321 76.8466 88.3193C76.8466 88.3818 76.8466 88.4754 76.8466 88.569C76.8466 88.6626 76.9402 88.725 77.0339 88.725C77.2524 88.725 77.5957 88.5378 78.0639 88.1321C78.2824 87.9448 78.5009 87.7264 78.6882 87.5391C78.8754 87.3207 79.0627 87.1334 79.2188 86.915C79.25 86.8838 79.3124 86.7901 79.4061 86.6965C79.4997 86.5717 79.5309 86.5093 79.5621 86.5093C79.5933 86.5093 79.6245 86.5405 79.6245 86.6341C79.6245 86.6653 79.6245 86.7589 79.5621 86.8526C79.5309 86.9462 79.4685 87.0086 79.4373 87.071C79.3436 87.1958 79.1876 87.3831 78.9691 87.6016C78.7818 87.82 78.5321 88.0697 78.2824 88.2881C78.0327 88.5378 77.783 88.725 77.5645 88.9123C77.3148 89.0683 77.1275 89.162 76.9402 89.162V89.1307ZM82.2152 84.0126C82.0592 84.0126 81.9031 83.9502 81.7782 83.8566C81.6534 83.7318 81.591 83.6381 81.591 83.4821C81.591 83.2012 81.7782 83.0764 82.1216 83.0764C82.2464 83.0764 82.4025 83.1388 82.5274 83.2324C82.6522 83.326 82.7146 83.4509 82.7146 83.5757C82.7146 83.7005 82.6522 83.7942 82.5274 83.8878C82.4025 83.9814 82.2777 84.0126 82.184 84.0126H82.2152ZM79.5621 89.2868C79.3436 89.2868 79.1876 89.2244 79.0315 89.0683C78.8754 88.9123 78.813 88.6626 78.813 88.2881C78.813 88.0697 78.8754 87.8512 78.9691 87.5703C79.0627 87.2895 79.1563 87.0086 79.3124 86.7277C79.4685 86.4469 79.5933 86.1972 79.7182 85.9787C80.2488 85.0737 80.6858 84.6368 81.0291 84.6056C81.1228 84.6056 81.2164 84.6368 81.3413 84.7304C81.4661 84.7928 81.5285 84.8865 81.5285 84.9801C81.5285 84.9801 81.154 85.4482 80.4361 86.4469C79.7182 87.4143 79.3748 88.1009 79.3748 88.5066C79.3748 88.8187 79.4997 88.9747 79.7182 88.9747C79.8743 88.9747 80.0615 88.9123 80.3112 88.7875C80.5609 88.6626 80.8106 88.4754 81.0916 88.2569C81.3725 88.0385 81.6222 87.82 81.8407 87.6016C82.0904 87.3519 82.2777 87.1334 82.4337 86.9462C82.5274 86.8214 82.621 86.7277 82.6834 86.6653C82.7458 86.6029 82.8083 86.6029 82.8395 86.6029C82.8707 86.6029 82.9019 86.6029 82.9019 86.6965C82.9019 86.7589 82.8395 86.8526 82.7146 86.9774C82.621 87.1334 82.4649 87.2895 82.2777 87.5079C82.0592 87.7576 81.8095 88.0073 81.5285 88.2881C81.2476 88.569 80.9667 88.8187 80.6234 89.0059C80.3112 89.1932 79.9367 89.2868 79.5621 89.2868ZM83.2453 89.1932C83.0268 89.1932 82.7771 89.0995 82.5586 88.9435C82.3401 88.7875 82.2152 88.569 82.184 88.3505C82.0904 87.6016 82.5586 86.6965 83.5574 85.6354C84.5562 84.5744 85.4926 84.075 86.3041 84.075C86.5226 84.075 86.7099 84.1375 86.8348 84.2311C86.8972 84.2935 86.9596 84.3871 86.9908 84.512C87.022 84.6368 87.0532 84.6992 87.0845 84.6992C87.1157 84.6992 87.1469 84.6992 87.1781 84.6992C87.1781 84.6992 87.2405 84.6992 87.2717 84.6992C87.3966 84.6992 87.4902 84.7304 87.5839 84.824C87.6775 84.9177 87.7087 84.9801 87.7399 85.0737C87.7399 85.0737 87.459 85.573 86.8348 86.5405C86.2105 87.4767 85.9296 88.1321 85.992 88.4442C86.0544 88.6626 86.1481 88.7875 86.3041 88.7875C86.8035 88.7875 87.7087 87.9448 89.0197 86.2284C89.0197 86.1972 89.0821 86.166 89.1133 86.166C89.1757 86.166 89.1757 86.1972 89.1757 86.2596C89.1757 86.322 89.1445 86.4469 89.0509 86.5405C87.8336 88.2257 86.8972 89.0683 86.2729 89.0683C86.1793 89.0683 86.1169 89.0683 86.0232 89.0371C85.6174 88.8811 85.399 88.5378 85.399 88.0697C85.399 87.9136 85.399 87.7264 85.4614 87.5703L84.5874 88.4442C84.3065 88.725 84.088 88.9123 83.8695 89.0371C83.651 89.162 83.495 89.2244 83.3389 89.2244L83.2453 89.1932ZM83.1204 88.8499C83.6822 88.8499 84.4314 88.2257 85.3677 86.9774L86.8972 84.824C86.8972 84.824 86.7099 84.6056 86.5226 84.6056C85.9296 84.6056 85.1493 85.0737 84.1504 86.0724C83.1204 87.071 82.6522 87.8824 82.7771 88.5066C82.8395 88.7563 82.9331 88.8499 83.1204 88.8499Z"
              fill="black"/>
        <path d="M47.6624 88.4127V89.6923H47.2879V88.4127L45.8521 85.9785H46.2578L47.4751 88.0382L48.6924 85.9785H49.067L47.6312 88.4127H47.6624Z"
              fill="black"/>
        <path d="M54.3419 82.8578C52.9685 81.0478 55.0598 79.425 56.7141 79.2689C56.9638 79.2689 57.1823 79.2065 57.432 79.1753C57.2135 79.2689 56.9638 79.3313 56.7453 79.3937C55.2471 79.7995 53.4055 80.9854 54.3107 82.8266L54.3419 82.8578Z"
              fill="black"/>
        <path d="M68.9807 3.37035C68.9807 3.37035 68.6686 3.21431 68.5437 3.18311C68.6373 3.21431 68.7934 3.27673 68.9807 3.37035Z"
              fill="url(#paint1_linear_120_235)"/>
        <path d="M84.6497 18.7872C83.963 18.1631 82.7145 15.4792 82.1839 14.4181C80.1238 10.3298 81.185 8.86306 75.5979 3.62011C70.0108 -1.62285 64.2988 0.37447 64.2988 0.37447C54.9037 2.09091 54.0921 11.6406 54.0921 11.6406C53.8736 12.8889 53.5615 14.0124 53.1869 15.011C51.9696 18.1943 49.6286 20.847 46.6634 22.5322C46.6322 22.5322 46.601 22.5634 46.5386 22.5946C43.9479 24.0614 41.919 26.3084 40.7641 29.0547C40.6705 29.3043 40.6081 29.4292 40.6081 29.4292C40.6081 28.8362 40.7641 28.056 41.0451 27.2758C40.2335 28.4305 39.859 29.8661 39.9526 31.2704C40.0775 32.8621 40.5769 33.6735 40.5769 33.6735C40.0775 33.1741 39.7965 32.5812 39.6093 31.957C39.6717 32.6124 39.8277 33.299 40.1399 34.0168C42.8554 40.3832 47.7559 42.0372 47.7559 42.0372C49.8159 43.7849 54.1233 46.0006 57.8689 47.7483C56.5579 46.8433 55.84 46.1567 55.84 46.1567C62.2699 50.2761 69.3553 50.0889 74.6303 48.9654C75.9412 48.4973 83.8382 45.4389 86.3976 38.9164C89.238 31.801 87.4589 26.9325 81.0914 22.6882C76.4407 19.5674 74.2557 13.201 73.4442 10.1738C73.0696 8.76944 72.5078 7.4587 71.6963 6.27279C72.0084 6.86575 72.2581 7.55232 72.4142 8.39494C73.2257 12.608 75.5979 18.2879 77.377 20.4725C78.5319 21.908 79.4059 22.1889 79.4371 22.2825C79.4371 22.2825 79.4371 22.2825 79.4371 22.3137C88.8635 27.6815 86.8346 36.0765 86.8346 36.0765C86.8346 28.2121 79.2498 22.6258 77.658 21.5023C76.5967 20.7533 74.5367 18.2879 73.1945 15.3231C73.3194 15.6664 73.413 15.9785 73.5066 16.3218C74.443 19.2866 76.0349 20.7533 78.5319 22.5946C81.029 24.4359 83.2763 27.3694 83.2763 27.3694C83.2763 27.3694 79.8117 25.0288 75.9412 21.1902C72.0708 17.3517 70.8847 11.9214 69.6362 7.64595C68.3877 3.37044 65.6722 2.24695 65.6722 2.24695C68.4501 2.90232 70.042 5.99192 70.6662 8.05165C71.0408 9.26876 71.6338 10.9228 72.2581 12.6704C72.102 11.9839 71.9772 11.2661 71.946 10.5483C71.7899 5.77346 68.3565 3.24561 68.3565 3.24561C68.3565 3.24561 71.6338 1.77883 74.9112 10.9228C78.1886 20.098 78.8128 20.2228 82.3711 22.3761C85.5549 24.2798 90.3617 28.5865 88.1455 37.0439C88.1455 37.0439 91.4229 28.3681 83.3699 21.5023C82.0278 20.3476 80.8105 19.0681 79.7805 17.6637C78.1886 15.4792 76.2846 12.3584 75.9412 9.48722C75.9412 9.48722 79.4059 16.3842 84.8058 21.8768C92.2345 29.4604 88.1143 37.2312 88.1143 37.2312V37.1376C87.8646 38.1674 87.4901 39.2597 86.9907 40.4144C86.5849 41.3819 86.1479 42.2245 85.6797 43.0047C86.0543 42.6302 86.2728 42.3805 86.2728 42.3805C86.2728 42.3805 87.6149 41.1946 89.8311 33.7359C92.0472 26.3708 85.274 19.505 84.5873 18.8808L84.6497 18.7872ZM64.8294 8.6134C66.1716 12.5144 69.8235 16.4154 69.8235 16.4154C67.3264 15.1983 66.4837 13.6691 64.6733 11.0476C62.863 8.39494 62.426 3.37044 62.426 3.37044C62.426 3.37044 63.3624 4.27548 64.8294 8.6134ZM64.767 6.61608C64.767 6.61608 67.5137 12.2023 67.6074 13.0137C67.6074 13.0137 64.6421 9.14393 64.767 6.61608ZM64.9543 12.0463C60.8966 8.6446 61.5208 3.9634 61.5208 3.9634C61.4584 6.42883 64.9543 12.0463 64.9543 12.0463ZM61.5208 2.46541C57.7752 3.71373 55.3406 7.95803 55.3406 7.95803C56.7764 3.05836 61.5208 2.46541 61.5208 2.46541ZM61.5208 2.8087C61.5208 2.8087 61.115 3.80736 58.618 5.36776C56.7452 6.55366 54.9661 10.7355 54.9661 10.7355C55.0285 5.80467 61.5208 2.8087 61.5208 2.8087ZM50.9396 19.661C52.032 18.4439 54.373 14.8862 54.8724 13.357C55.3406 11.8278 56.9013 10.1426 56.9013 10.1426C56.9013 10.1426 55.7152 14.3557 51.6887 19.4738C48.4113 23.6245 44.6346 24.6855 44.6346 24.6855C45.3525 24.3735 48.8171 22.0641 50.9708 19.661H50.9396ZM57.7753 21.908C57.8065 22.2201 57.7753 22.5946 57.7753 22.9691C57.6504 24.6231 57.1198 27.7751 54.7788 29.5228C54.7788 29.5228 57.3695 25.7154 57.7753 22.9691C57.8377 22.3137 57.7753 21.908 57.7753 21.908ZM59.1486 23.5621C58.0562 29.5228 54.5603 30.8647 54.5603 30.8647C56.8701 29.1795 59.1486 23.5621 59.1486 23.5621ZM54.7476 28.5241L57.4943 21.5023C57.4943 21.5023 56.9949 26.2459 54.7476 28.5241ZM56.7452 21.3463C56.7452 23.1563 55.0909 26.7141 55.0909 26.7141C54.8412 25.3409 56.7452 21.3463 56.7452 21.3463ZM55.1534 21.908C54.2794 23.25 53.8112 25.7154 53.5303 27.6191C54.217 24.155 56.4643 20.0668 56.4643 20.0668C56.4643 20.0668 53.6863 26.6516 54.4667 32.8621C57.2134 31.208 59.3671 25.809 59.3671 25.8714C59.2423 29.9909 55.4655 32.8621 54.5603 33.5174C54.6227 33.8919 54.7164 34.2976 54.81 34.6721C55.2782 34.3288 58.3683 31.9882 58.6492 30.5214C58.6492 30.5214 56.8701 32.9557 55.2158 33.5486C55.2158 33.5486 59.1486 30.303 59.5232 27.0261C59.5232 27.0261 60.0226 27.6815 58.8053 29.8973C58.8053 29.8973 59.8353 28.8674 60.1162 27.6191C60.1787 27.3382 60.1787 27.1822 60.1787 27.1822C60.1787 27.3382 60.1474 27.4631 60.1162 27.6191C59.8665 29.0235 58.7741 33.5486 54.9973 35.2963C54.9973 35.3899 55.0597 35.4835 55.0909 35.5772C59.1798 33.8607 60.4596 27.6815 60.4596 27.6815C60.3659 32.8308 55.8088 35.7644 55.2782 36.1077C55.2782 36.1701 55.3094 36.2013 55.3406 36.2637C56.0273 35.9516 59.6792 34.0792 60.9902 27.8063C60.9902 27.8063 61.552 32.9245 55.4655 36.5134C55.5903 36.7631 55.7152 37.0127 55.8713 37.2312C55.8713 37.2312 60.4284 35.2963 61.0214 30.8335C61.5832 26.3708 61.989 27.2446 61.989 27.2446C61.989 27.2446 62.7693 34.1728 58.1186 36.6382C57.3071 37.0439 56.7764 37.4496 56.277 37.7305C57.9001 39.8214 60.4596 40.9761 60.4596 40.9761C60.4596 40.9761 65.1103 43.9097 71.6026 39.8839C78.0013 35.9516 76.1909 28.9923 76.1285 28.7738C78.5631 37.356 70.3229 40.9761 70.3229 40.9761C75.1297 39.9463 77.1898 33.611 77.1898 33.611C77.1898 33.611 76.8776 39.8839 68.6686 42.4117C60.4596 44.9396 55.247 37.2 55.247 37.2C55.247 37.2 53.343 33.0493 53.3742 29.3668C53.343 29.8349 53.3118 30.147 53.3118 30.147C53.3118 30.147 52.9997 24.1238 54.7164 21.6584C56.4331 19.1929 57.2134 13.5755 57.2134 13.5755C57.2134 13.5755 57.6504 18.1006 55.2158 21.8768L55.1534 21.908ZM62.9254 27.4319C62.9254 27.4319 64.5173 33.1117 61.3023 34.797C61.3023 34.797 63.456 33.3302 62.9254 27.4319ZM63.7369 30.7399C63.6121 29.2731 63.9554 28.2433 64.0803 27.9312C64.0803 27.8063 64.1427 27.8063 64.1427 27.8063C64.1427 27.8063 64.1427 27.8376 64.0803 27.9312C64.0491 28.1496 63.9866 28.7738 63.9866 30.5839C63.9866 33.4862 62.1763 34.5161 62.1763 34.5161C62.1763 34.5161 63.8618 32.4876 63.7057 30.7087L63.7369 30.7399ZM65.2352 26.5268C69.3241 25.5594 71.5402 23.7181 72.1333 23.1876C72.1957 23.1251 72.2269 23.0627 72.2893 23.0315C72.2893 23.0315 72.1333 23.25 71.9148 23.6557C71.1344 25.5906 71.6963 29.6476 71.6963 29.6476C70.6038 26.9949 71.4154 24.7168 71.9148 23.6557C72.0084 23.406 72.1333 23.1876 72.2893 23.0315C72.2893 23.0315 72.2269 23.0939 72.1333 23.1876C70.479 24.904 70.9784 28.3369 71.509 29.8973C72.0708 31.5201 75.0049 34.1416 75.0049 34.1416C75.5667 36.9815 70.5726 41.1634 65.7346 41.7251C60.9278 42.2869 56.9013 38.2923 56.9013 38.0426C56.9013 37.7929 63.7994 34.5785 64.9543 32.8933C66.1091 31.208 65.2352 26.4956 65.2352 26.4956V26.5268ZM83.3387 34.8906C83.3387 39.3845 82.3399 44.5651 72.4766 47.7171C62.5821 50.9003 55.684 41.9436 55.684 41.9436C60.3347 45.907 64.8918 46.9369 68.0131 47.0929C70.4478 47.2178 72.8512 46.6248 74.9736 45.4389C77.3458 44.1282 80.5296 41.7876 81.8717 38.1986C84.1815 32.1755 80.3111 29.0859 78.9377 27.1198C77.5643 25.1537 76.5655 23.5308 76.5655 23.5308C76.5655 23.5308 83.3387 29.5228 83.3387 34.8906ZM78.9065 25.497C81.6845 26.9637 82.0278 29.0547 82.0278 29.0547C82.0278 28.7426 78.9065 25.497 78.9065 25.497ZM78.9377 31.3641C78.9377 31.3641 81.7157 44.3466 65.9219 44.9396C64.9543 44.9708 64.0491 44.9396 63.2063 44.8459C68.0131 45.9382 74.4118 45.5637 78.7192 38.4171C82.0278 32.9557 77.3146 25.5282 77.3146 25.5282C85.2115 36.7631 78.1262 43.4104 71.1656 45.6574C64.2051 47.8731 56.4643 42.1933 56.4643 42.1933C56.4643 42.1933 57.2134 42.6614 58.4307 43.2231C53.2806 39.9151 53.2181 32.9869 53.2806 31.5825C53.2806 32.706 53.4366 37.6057 58.3059 41.2882C63.8306 45.5013 70.9472 42.1621 70.9472 42.1621C70.9472 42.1621 76.0973 39.4782 77.377 34.3913C78.6568 29.2731 75.6915 23.0939 75.6915 23.0939C83.6821 37.1376 71.8836 43.2855 71.8836 43.2855C79.4059 40.1023 78.9065 31.4265 78.9065 31.4265L78.9377 31.3641ZM75.9725 31.052C75.9412 29.7412 75.3794 27.4319 75.3794 27.4319C76.2534 28.6178 75.9725 31.052 75.9725 31.052ZM75.2233 28.056C74.88 30.4902 75.3482 32.6748 75.3482 32.6748C74.4742 31.3329 74.2245 29.9285 74.6615 27.7751C75.0673 25.9027 75.3482 23.8741 75.3482 23.8741C75.6915 24.6543 75.5667 25.6842 75.2233 28.056ZM74.9736 33.7671C74.9736 33.299 73.9748 32.0819 73.9748 32.0819C75.1609 32.3003 74.9736 33.7671 74.9736 33.7671ZM63.8618 33.455C64.5485 32.706 64.7982 30.3966 64.7982 30.3966C65.1727 32.3627 63.8618 33.455 63.8618 33.455ZM60.6156 34.8906C60.4284 35.0778 60.3347 35.1402 60.3347 35.1402C60.4284 35.0466 60.522 34.9842 60.6156 34.8906C61.1775 34.2976 62.426 32.3939 62.4884 27.1198C62.4884 27.0574 62.5821 27.0261 62.6133 27.1198C62.8318 28.7426 63.0503 32.706 60.6469 34.9218L60.6156 34.8906ZM51.7199 38.8852C47.3813 31.2392 54.3418 20.41 54.3418 20.41C49.3477 31.9258 51.7199 38.8852 51.7199 38.8852ZM40.9514 31.3016C40.6393 30.0845 41.8878 28.805 41.8878 28.805C40.8266 30.5527 40.9514 31.3016 40.9514 31.3016ZM43.6982 28.805C41.4196 37.2312 46.3825 41.0074 46.3825 41.0074C40.2647 37.6369 43.6982 28.805 43.6982 28.805ZM45.8207 27.4319C42.7306 34.3288 47.3501 41.257 47.3501 41.257C39.7029 33.8919 45.8207 27.4319 45.8207 27.4319ZM47.8807 28.1184C47.8807 28.1184 47.4437 30.459 47.5998 30.6151C47.5998 30.6151 49.1292 25.4345 50.7523 24.3423C50.7523 24.3423 45.4149 34.6097 51.4078 43.1919C44.0103 37.9802 47.8807 28.0872 47.8807 28.0872V28.1184ZM51.0957 42.1308C48.4738 38.2298 48.8795 34.36 48.8795 34.36C48.661 36.8879 51.0957 42.1308 51.0957 42.1308ZM50.3153 38.3859C50.3153 38.3859 52.9372 40.6953 53.0933 42.1308C53.2494 43.5352 56.8701 45.8758 56.8701 45.8758C51.7199 44.9396 50.2841 38.3859 50.2841 38.3859H50.3153ZM80.9978 43.9409C80.9978 43.9409 75.8476 49.5272 66.3276 49.3087C56.8076 49.0902 54.8724 41.6939 54.8724 41.6939L55.3718 42.1308C60.2099 48.747 66.4213 49.9016 74.8488 47.5298C83.2451 45.1892 83.8382 36.1701 83.8382 36.1701C84.8994 39.603 81.029 43.9409 81.029 43.9409H80.9978ZM79.562 24.6855C82.5272 26.8389 86.741 31.3641 84.3688 38.0426C84.3688 38.0426 86.0231 29.3043 78.4695 24.6855C78.4695 24.6855 74.5991 22.0641 74.287 20.5661C74.287 20.5661 76.6279 22.5322 79.5932 24.6855H79.562ZM74.7552 23.3748C74.7552 23.3748 74.88 25.0912 74.3806 26.4644C73.6315 28.4929 74.1621 30.7087 74.1621 30.7087C72.9448 28.5865 74.7239 23.4996 74.7552 23.3748ZM60.9902 25.8714C59.492 25.6218 60.2411 22.8755 60.0226 22.2513C59.8041 21.6272 59.1798 21.5335 59.1486 21.3775C59.1174 21.2214 59.2423 21.2839 59.4295 20.7533C59.6168 20.2228 58.618 20.1604 58.8053 19.8795C58.9301 19.7235 58.8989 19.505 58.8677 19.3802C58.8677 19.2866 58.8053 19.2241 58.7429 19.1617C58.2122 18.7872 57.9001 18.5063 57.6816 18.2879C57.4319 18.0382 57.4319 17.6637 57.6192 17.3829C59.0238 15.5416 58.4619 14.699 58.1186 13.3258C57.7753 11.8902 58.0874 8.6134 58.1186 7.8644C58.1186 7.36507 59.1174 6.11675 59.8041 5.33655C59.8041 5.33655 56.3395 9.0191 55.4967 11.3597C54.2794 14.7302 52.469 17.0084 52.469 17.0084C52.469 17.0084 53.936 14.6678 54.6852 12.1087C56.0585 7.4587 60.4284 4.68118 60.4284 4.68118C60.4284 4.68118 59.7417 10.6731 70.9159 17.4453L73.3818 19.8795C74.1621 23.8429 62.7693 26.1211 60.9902 25.8402V25.8714ZM65.6097 7.42749C65.6097 7.42749 64.5173 4.55635 63.7994 3.65132C63.7369 3.5889 66.3588 6.11675 68.6686 12.2335C69.605 14.6678 71.0408 16.7275 72.4766 18.3191C72.4766 18.3191 68.2628 15.5416 65.6097 7.39628V7.42749ZM69.5738 8.6134C70.3229 10.954 72.1645 15.8849 72.1645 15.8849C70.8847 14.3245 69.7299 12.452 69.1992 10.3298C67.4825 3.71373 63.2375 1.99729 63.2375 1.99729C67.6386 2.71507 68.8247 6.24158 69.605 8.58219L69.5738 8.6134ZM69.2929 0.967423C75.8788 2.40299 78.8753 7.95803 79.9989 10.5483C80.6232 12.0151 83.4636 17.5701 83.4636 17.5701C83.4636 17.5701 80.1238 13.201 78.4695 9.83051C74.8488 2.34058 69.5114 1.02984 69.2929 0.967423ZM75.3482 8.02044C73.9748 2.4342 68.1068 1.18588 68.1068 1.18588C74.7239 1.654 75.3482 8.02044 75.3482 8.02044ZM82.059 20.7845C82.059 20.7845 82.1526 20.8157 82.1839 20.847C82.1839 20.847 82.1526 20.847 82.059 20.7845C78.5319 19.2866 76.9401 14.4181 75.0361 8.80064C73.1009 3.12078 67.701 1.77883 67.701 1.77883C67.701 1.77883 73.6939 1.18588 75.7852 9.45601C78.095 18.5376 81.4035 20.4725 82.059 20.7845ZM78.4383 12.7641C77.1273 10.1426 75.7852 8.80064 74.5055 4.64997C74.5055 4.64997 77.3458 8.80064 78.4695 11.4845C80.0926 15.4168 86.3976 20.6285 87.0531 22.3137C87.0531 22.3137 79.5932 15.0735 78.4383 12.7641Z"
              fill="url(#paint2_linear_120_235)"/>
        <path d="M47.8808 19.6298C47.319 16.6339 49.3478 14.5117 49.3478 14.5117C50.0657 15.5416 49.9097 19.1929 47.8808 19.6298Z"
              fill="url(#paint3_linear_120_235)"/>
        <path d="M54.4668 3.80758C56.9014 3.55791 57.7441 0.842812 57.7441 0.842812C56.7141 0.374691 54.061 1.5606 54.4668 3.80758Z"
              fill="url(#paint4_linear_120_235)"/>
        <path d="M50.7523 9.26883C52.0321 10.2675 53.6863 9.33124 53.6863 9.33124C53.4054 8.64466 51.5951 8.0205 50.7523 9.26883Z"
              fill="url(#paint5_linear_120_235)"/>
        <path d="M52.4691 3.62013C52.5628 2.30939 53.9673 1.81006 53.9673 1.81006C54.2483 2.3406 53.6552 3.77617 52.4691 3.62013Z"
              fill="url(#paint6_linear_120_235)"/>
        <path d="M44.0728 12.5771C43.0116 11.3288 43.8543 9.64355 43.8543 9.64355C44.5722 9.89322 45.3213 11.6721 44.0728 12.5771Z"
              fill="url(#paint7_linear_120_235)"/>
        <path d="M35.8013 14.98C34.7089 13.0451 36.3007 11.0166 36.3007 11.0166C37.1747 11.5471 37.6741 14.1062 35.8013 14.98Z"
              fill="url(#paint8_linear_120_235)"/>
        <path d="M46.1953 43.2234C42.5434 41.6318 39.266 43.5979 39.266 43.5979C40.3584 44.815 45.0092 45.6576 46.1953 43.2234Z"
              fill="url(#paint9_linear_120_235)"/>
        <path d="M36.051 26.4956C34.9898 23.406 31.9621 22.501 31.9621 22.501C31.8373 23.8429 33.9285 27.1198 36.051 26.4956Z"
              fill="url(#paint10_linear_120_235)"/>
        <path d="M42.1999 8.05194C43.5109 5.05596 41.8878 2.37207 41.8878 2.37207C40.889 3.2771 40.2023 7.11569 42.1999 8.05194Z"
              fill="url(#paint11_linear_120_235)"/>
        <path d="M43.3236 6.61648C44.4473 4.55675 46.6946 4.27588 46.6946 4.27588C46.6322 5.24333 44.7594 7.33427 43.3236 6.61648Z"
              fill="url(#paint12_linear_120_235)"/>
        <path d="M51.4078 5.27428C52.0009 2.71521 50.3466 0.811523 50.3466 0.811523C49.6911 1.68535 49.6911 4.80615 51.4078 5.27428Z"
              fill="url(#paint13_linear_120_235)"/>
        <path d="M65.204 50.2454C61.7081 50.1205 58.1186 49.5588 54.9037 48.0608C53.3118 47.3118 51.8448 46.2819 50.409 45.2833C48.9732 44.2846 47.3813 43.5356 45.6958 43.1611C46.5698 43.2548 47.4437 43.442 48.2865 43.7541C49.972 44.347 51.3766 45.4393 52.8748 46.3444C56.5892 48.7162 60.9278 49.59 65.2352 50.2766L65.204 50.2454Z"
              fill="url(#paint14_linear_120_235)"/>
        <path d="M48.2866 43.598C44.0416 41.351 38.7666 38.4175 37.7678 33.3305C37.1435 30.2722 38.2048 27.0577 39.3596 24.3426C39.5469 23.9369 39.7966 23.5624 40.0775 23.1879C41.4509 21.4091 43.7919 21.0658 45.8207 20.5352C46.6323 20.3168 47.4438 20.0047 48.0993 19.5054C47.7872 19.7862 47.4126 20.0047 47.0381 20.1919C45.1653 21.1282 42.9179 21.2842 41.2636 22.595C40.6082 23.0943 40.14 23.7809 39.7966 24.4987C39.7966 24.405 39.7654 24.5923 39.7966 24.5923C35.4892 34.6725 40.0775 38.5423 48.3178 43.598H48.2866Z"
              fill="url(#paint15_linear_120_235)"/>
        <path d="M41.9814 15.698C44.1351 12.6708 48.1928 12.4523 51.5326 11.8594C48.2553 13.2325 44.7906 13.1389 41.9814 15.698Z"
              fill="url(#paint16_linear_120_235)"/>
        <path d="M54.9662 2.27832C54.2171 5.11825 53.4679 8.23906 50.4403 9.42496C50.0969 9.5498 49.7224 9.67463 49.379 9.83067C45.9456 11.2662 43.3237 14.1998 41.5446 17.383C39.8903 20.4102 38.4857 24.3112 38.6417 27.8065C38.392 25.8092 38.7666 23.7807 39.266 21.8458C40.733 16.7276 43.9167 11.6407 48.942 9.45617C49.3166 9.30013 49.7224 9.14409 50.1281 9.01926C53.0934 8.0206 53.9049 4.931 54.935 2.30953L54.9662 2.27832Z"
              fill="url(#paint17_linear_120_235)"/>
        <path d="M47.6311 7.61475C47.9433 9.14394 47.1317 11.0164 45.7896 11.7966C46.1641 11.11 46.5387 10.4547 46.8508 9.7681C47.1629 9.05032 47.3814 8.36374 47.6311 7.61475Z"
              fill="url(#paint18_linear_120_235)"/>
        <path d="M52.4691 0.811523C52.1882 1.43568 52.2194 2.12226 52.2506 2.77763C52.3442 4.08837 51.8136 5.39911 50.9084 6.33535C50.3466 6.89709 49.8472 7.45884 49.2853 8.05179C48.6611 8.70716 47.9432 9.33132 47.0692 9.67461C48.1929 8.8632 48.942 7.77092 49.816 6.74105C50.0657 6.46018 50.3466 6.1481 50.6275 5.86723C51.3766 5.02461 51.8448 3.93233 51.9072 2.80884C51.9384 2.12226 52.0321 1.40448 52.4691 0.842732V0.811523Z"
              fill="url(#paint19_linear_120_235)"/>
        <path d="M36.8938 39.5718C38.3608 40.1959 39.8278 40.7577 41.3573 41.1634C42.8867 41.5691 44.4474 41.85 45.9768 42.2245C42.7931 42.2869 39.4533 41.5691 36.8938 39.5718Z"
              fill="url(#paint20_linear_120_235)"/>
        <path d="M33.3043 32.7373C37.0187 36.6695 40.3585 40.6329 45.7895 42.1933C40.296 41.4756 36.3008 37.044 33.3043 32.7373Z"
              fill="url(#paint21_linear_120_235)"/>
        <path d="M37.9238 33.549C37.3308 32.6439 36.9874 31.6141 36.6753 30.5842C36.3632 29.5543 36.1135 28.5245 35.8638 27.4946C35.4268 25.9654 34.8649 23.1255 33.5228 22.2205C33.4291 22.158 33.3043 22.0956 33.1794 22.0332C33.3043 22.0332 33.4291 22.0956 33.554 22.158C36.3632 23.5 36.7689 30.7403 37.8926 33.549H37.9238Z"
              fill="url(#paint22_linear_120_235)"/>
        <path d="M37.0186 30.5215C37.3619 28.1809 36.4255 25.9963 36.0822 23.7181C35.9574 23.0003 35.9261 21.9393 36.0198 21.4087C36.0198 20.7222 36.051 20.0044 36.1758 19.3178C36.4255 17.9759 36.8937 16.6651 37.3307 15.3856C37.5492 14.7302 37.7677 14.1061 37.955 13.4507C37.7989 14.7926 37.3932 16.1034 37.081 17.4453C36.8313 18.4128 36.644 19.4114 36.5816 20.4101V20.9094V21.4087V21.4399C36.2071 24.4671 37.9238 27.5255 37.0186 30.5527V30.5215Z"
              fill="url(#paint23_linear_120_235)"/>
        <path d="M40.1087 11.2661C41.1388 14.855 39.2972 18.7873 36.3632 20.8782C38.7978 18.0695 40.296 15.0423 40.1087 11.2661Z"
              fill="url(#paint24_linear_120_235)"/>
        <path d="M39.9526 15.3547C42.2936 11.3913 40.5769 5.18091 45.7895 3.18359C41.0763 5.9299 43.0739 11.641 39.9526 15.3547Z"
              fill="url(#paint25_linear_120_235)"/>
        <path d="M34.6464 12.2026C34.7401 13.4198 34.9586 14.5744 35.3643 15.6979C35.7389 16.8526 36.2383 17.9137 36.6753 19.0684C35.1146 17.1959 34.0534 14.6369 34.6776 12.2026H34.6464Z"
              fill="url(#paint26_linear_120_235)"/>
        <path d="M81.4036 4.1817C79.0626 3.46391 78.7505 0.655187 78.7505 0.655187C79.8429 0.374315 82.2151 2.05955 81.4036 4.1817Z"
              fill="url(#paint27_linear_120_235)"/>
        <path d="M84.0255 10.2362C82.5897 10.954 81.1539 9.7369 81.1539 9.7369C81.5597 9.11274 83.4637 8.83186 84.0255 10.2362Z"
              fill="url(#paint28_linear_120_235)"/>
        <path d="M83.4012 4.36881C83.5573 3.05808 82.2464 2.30908 82.2464 2.30908C81.8718 2.7772 82.1839 4.3064 83.4012 4.36881Z"
              fill="url(#paint29_linear_120_235)"/>
        <path d="M89.956 14.7301C91.2357 13.7002 90.7363 11.8901 90.7363 11.8901C89.9872 11.9838 88.926 13.6066 89.956 14.7301Z"
              fill="url(#paint30_linear_120_235)"/>
        <path d="M97.6032 18.6622C99.039 16.9769 97.8841 14.6987 97.8841 14.6987C96.9165 15.042 95.9489 17.4762 97.6032 18.6622Z"
              fill="url(#paint31_linear_120_235)"/>
        <path d="M95.1997 29.9597C96.8228 27.1198 100.038 26.8701 100.038 26.8701C99.9441 28.2433 97.2598 31.052 95.1997 29.9597Z"
              fill="url(#paint32_linear_120_235)"/>
        <path d="M92.6403 10.6728C91.9224 7.48953 94.0137 5.14893 94.0137 5.14893C94.8252 6.24121 94.794 10.111 92.6403 10.6728Z"
              fill="url(#paint33_linear_120_235)"/>
        <path d="M91.7975 9.05026C91.0796 6.80328 88.9259 6.1167 88.9259 6.1167C88.8011 7.08415 90.2369 9.48717 91.7975 9.05026Z"
              fill="url(#paint34_linear_120_235)"/>
        <path d="M84.1191 6.2102C83.9943 3.58872 85.9919 2.02832 85.9919 2.02832C86.4913 2.99577 85.8983 6.05416 84.1191 6.2102Z"
              fill="url(#paint35_linear_120_235)"/>
        <path d="M79.9678 44.4087C89.0196 40.9758 94.2321 38.0734 91.9224 27.3691V27.2442C91.7351 26.464 91.3918 25.7151 90.8611 25.0909C89.4878 23.4993 87.3028 22.9063 85.6173 21.658C85.274 21.4083 84.9619 21.0963 84.7122 20.7842C85.3052 21.4083 86.0231 21.8453 86.7722 22.2198C88.645 23.156 90.8923 23.9362 91.8912 25.9335C92.1096 26.3392 92.2657 26.7449 92.3594 27.1818C93.0148 30.053 93.4206 33.4234 92.2345 36.3258C90.2993 41.163 84.5561 43.0355 79.9678 44.4399V44.4087Z"
              fill="url(#paint36_linear_120_235)"/>
        <path d="M91.423 18.1942C89.1444 15.167 85.711 14.6053 82.777 12.6392C85.9607 13.8563 89.8936 14.8237 91.423 18.1942Z"
              fill="url(#paint37_linear_120_235)"/>
        <path d="M81.2163 2.58984C81.7469 5.36736 81.9342 8.55058 84.681 10.0798C85.0555 10.2982 85.4301 10.4855 85.7734 10.7351C90.2993 13.8247 92.453 19.4422 92.9524 24.7476C93.1085 26.7449 93.0773 28.8046 92.453 30.7395C93.2333 27.3378 92.6091 23.2184 91.5478 19.9415C90.3929 16.4462 88.3953 13.0757 85.274 11.0472C84.9619 10.86 84.6185 10.6415 84.3064 10.4543C81.5597 8.73783 81.4348 5.49219 81.2163 2.58984Z"
              fill="url(#paint38_linear_120_235)"/>
        <path d="M87.3965 9.20605C87.4902 9.98626 87.5838 10.7352 87.7711 11.4842C87.9271 12.2332 88.1768 12.951 88.4266 13.7C87.2405 12.6701 86.8035 10.6728 87.3965 9.23726V9.20605Z"
              fill="url(#paint39_linear_120_235)"/>
        <path d="M83.9318 1.62252C84.244 2.24668 84.2128 2.99567 84.1191 3.65104C83.963 4.77453 84.2127 5.92923 84.8058 6.89668C85.0243 7.20876 85.2428 7.55205 85.4301 7.89534C86.1167 9.08124 86.6162 10.2984 87.5838 11.297C86.8034 10.7977 86.2104 10.0487 85.711 9.2997C85.274 8.64433 84.8994 7.95775 84.4312 7.30238C83.6821 6.2101 83.4636 4.83695 83.7758 3.55742C83.9318 2.90205 84.0879 2.24668 83.9318 1.59131V1.62252Z"
              fill="url(#paint40_linear_120_235)"/>
        <path d="M91.9224 42.5986C89.0508 44.0654 85.6174 44.159 82.4961 43.4724C84.088 43.3788 85.6486 43.41 87.2405 43.2852C88.8323 43.1915 90.3618 42.9107 91.9224 42.5674V42.5986Z"
              fill="url(#paint41_linear_120_235)"/>
        <path d="M96.7292 36.6069C92.9837 40.2895 88.2081 43.8784 82.6833 43.5663C88.3017 43.0358 92.3282 39.7902 96.7292 36.6069Z"
              fill="url(#paint42_linear_120_235)"/>
        <path d="M92.0472 36.5134C93.7015 33.9855 95.4495 26.9637 98.4771 26.1523C98.602 26.1523 98.758 26.1211 98.8829 26.1211C98.6332 26.1835 98.3835 26.2771 98.165 26.4332C97.5095 26.8701 97.0725 27.5255 96.6668 28.1808C95.6055 29.9909 94.8252 31.9882 93.8264 33.8607C93.327 34.7969 92.7964 35.7644 92.0472 36.5134Z"
              fill="url(#paint43_linear_120_235)"/>
        <path d="M93.4831 33.7047C93.171 30.5839 95.4183 27.9 95.6368 24.8416V24.8104L95.7304 24.3111L95.7928 23.8118C95.9177 22.8131 95.9177 21.8145 95.8553 20.8158C95.7928 19.4738 95.6368 18.1007 95.7304 16.7275C95.7928 17.4141 95.8865 18.0695 95.9801 18.7561C96.1674 20.098 96.3859 21.4712 96.3547 22.8443C96.3547 23.5309 96.261 24.2487 96.105 24.904C96.105 25.4658 95.8553 26.4957 95.6056 27.1822C94.8565 29.3668 93.5143 31.3329 93.4207 33.7047H93.4831Z"
              fill="url(#paint44_linear_120_235)"/>
        <path d="M94.1073 14.2305C93.2021 17.913 94.1073 21.1587 95.9801 24.3731C93.483 21.7516 92.4218 17.5385 94.1073 14.2305Z"
              fill="url(#paint45_linear_120_235)"/>
        <path d="M93.483 18.2564C91.142 14.0121 94.1697 8.80031 90.0496 5.18018C94.7627 8.14494 91.9223 13.8872 93.483 18.2564Z"
              fill="url(#paint46_linear_120_235)"/>
        <path d="M99.2575 16.1655C99.4135 18.6622 97.8529 21.0028 95.9801 22.532C96.6044 21.5021 97.3223 20.5347 97.8841 19.4736C98.4771 18.4437 98.9141 17.3514 99.2575 16.1655Z"
              fill="url(#paint47_linear_120_235)"/>
    </g>
    <defs>
        <linearGradient id="paint0_linear_120_235" x1="37.4557" y1="71.5291" x2="111.957" y2="107.365"
                        gradientUnits="userSpaceOnUse">
            <stop offset="0.24" stop-color="#AB8A59"/>
            <stop offset="0.29" stop-color="#BC9965"/>
            <stop offset="0.37" stop-color="#E8C284"/>
            <stop offset="0.41" stop-color="#FDD593"/>
            <stop offset="0.54" stop-color="#BF975C"/>
            <stop offset="0.95" stop-color="#B0884F"/>
        </linearGradient>
        <linearGradient id="paint1_linear_120_235" x1="43.8539" y1="-12.4834" x2="122.161" y2="37.1182"
                        gradientUnits="userSpaceOnUse">
            <stop offset="0.24" stop-color="#AB8A59"/>
            <stop offset="0.29" stop-color="#BC9965"/>
            <stop offset="0.37" stop-color="#E8C284"/>
            <stop offset="0.41" stop-color="#FDD593"/>
            <stop offset="0.54" stop-color="#BF975C"/>
            <stop offset="0.95" stop-color="#B0884F"/>
        </linearGradient>
        <linearGradient id="paint2_linear_120_235" x1="33.0233" y1="4.61877" x2="111.361" y2="54.2509"
                        gradientUnits="userSpaceOnUse">
            <stop offset="0.24" stop-color="#AB8A59"/>
            <stop offset="0.29" stop-color="#BC9965"/>
            <stop offset="0.37" stop-color="#E8C284"/>
            <stop offset="0.41" stop-color="#FDD593"/>
            <stop offset="0.54" stop-color="#BF975C"/>
            <stop offset="0.95" stop-color="#B0884F"/>
        </linearGradient>
        <linearGradient id="paint3_linear_120_235" x1="31.8685" y1="6.46004" x2="110.175" y2="56.061"
                        gradientUnits="userSpaceOnUse">
            <stop offset="0.24" stop-color="#AB8A59"/>
            <stop offset="0.29" stop-color="#BC9965"/>
            <stop offset="0.37" stop-color="#E8C284"/>
            <stop offset="0.41" stop-color="#FDD593"/>
            <stop offset="0.54" stop-color="#BF975C"/>
            <stop offset="0.95" stop-color="#B0884F"/>
        </linearGradient>
        <linearGradient id="paint4_linear_120_235" x1="40.6706" y1="-7.45853" x2="118.977" y2="42.1736"
                        gradientUnits="userSpaceOnUse">
            <stop offset="0.24" stop-color="#AB8A59"/>
            <stop offset="0.29" stop-color="#BC9965"/>
            <stop offset="0.37" stop-color="#E8C284"/>
            <stop offset="0.41" stop-color="#FDD593"/>
            <stop offset="0.54" stop-color="#BF975C"/>
            <stop offset="0.95" stop-color="#B0884F"/>
        </linearGradient>
        <linearGradient id="paint5_linear_120_235" x1="36.4567" y1="-0.780167" x2="114.763" y2="48.8208"
                        gradientUnits="userSpaceOnUse">
            <stop offset="0.24" stop-color="#AB8A59"/>
            <stop offset="0.29" stop-color="#BC9965"/>
            <stop offset="0.37" stop-color="#E8C284"/>
            <stop offset="0.41" stop-color="#FDD593"/>
            <stop offset="0.54" stop-color="#BF975C"/>
            <stop offset="0.95" stop-color="#B0884F"/>
        </linearGradient>
        <linearGradient id="paint6_linear_120_235" x1="39.6717" y1="-5.86712" x2="117.978" y2="43.734"
                        gradientUnits="userSpaceOnUse">
            <stop offset="0.24" stop-color="#AB8A59"/>
            <stop offset="0.29" stop-color="#BC9965"/>
            <stop offset="0.37" stop-color="#E8C284"/>
            <stop offset="0.41" stop-color="#FDD593"/>
            <stop offset="0.54" stop-color="#BF975C"/>
            <stop offset="0.95" stop-color="#B0884F"/>
        </linearGradient>
        <linearGradient id="paint7_linear_120_235" x1="33.2419" y1="4.30698" x2="111.548" y2="53.9079"
                        gradientUnits="userSpaceOnUse">
            <stop offset="0.24" stop-color="#AB8A59"/>
            <stop offset="0.29" stop-color="#BC9965"/>
            <stop offset="0.37" stop-color="#E8C284"/>
            <stop offset="0.41" stop-color="#FDD593"/>
            <stop offset="0.54" stop-color="#BF975C"/>
            <stop offset="0.95" stop-color="#B0884F"/>
        </linearGradient>
        <linearGradient id="paint8_linear_120_235" x1="30.0893" y1="9.23774" x2="108.427" y2="58.8387"
                        gradientUnits="userSpaceOnUse">
            <stop offset="0.24" stop-color="#AB8A59"/>
            <stop offset="0.29" stop-color="#BC9965"/>
            <stop offset="0.37" stop-color="#E8C284"/>
            <stop offset="0.41" stop-color="#FDD593"/>
            <stop offset="0.54" stop-color="#BF975C"/>
            <stop offset="0.95" stop-color="#B0884F"/>
        </linearGradient>
        <linearGradient id="paint9_linear_120_235" x1="18.2284" y1="27.9627" x2="96.566" y2="77.5636"
                        gradientUnits="userSpaceOnUse">
            <stop offset="0.24" stop-color="#AB8A59"/>
            <stop offset="0.29" stop-color="#BC9965"/>
            <stop offset="0.37" stop-color="#E8C284"/>
            <stop offset="0.41" stop-color="#FDD593"/>
            <stop offset="0.54" stop-color="#BF975C"/>
            <stop offset="0.95" stop-color="#B0884F"/>
        </linearGradient>
        <linearGradient id="paint10_linear_120_235" x1="24.1588" y1="18.6" x2="102.496" y2="68.2009"
                        gradientUnits="userSpaceOnUse">
            <stop offset="0.24" stop-color="#AB8A59"/>
            <stop offset="0.29" stop-color="#BC9965"/>
            <stop offset="0.37" stop-color="#E8C284"/>
            <stop offset="0.41" stop-color="#FDD593"/>
            <stop offset="0.54" stop-color="#BF975C"/>
            <stop offset="0.95" stop-color="#B0884F"/>
        </linearGradient>
        <linearGradient id="paint11_linear_120_235" x1="35.3331" y1="0.967708" x2="113.671" y2="50.5687"
                        gradientUnits="userSpaceOnUse">
            <stop offset="0.24" stop-color="#AB8A59"/>
            <stop offset="0.29" stop-color="#BC9965"/>
            <stop offset="0.37" stop-color="#E8C284"/>
            <stop offset="0.41" stop-color="#FDD593"/>
            <stop offset="0.54" stop-color="#BF975C"/>
            <stop offset="0.95" stop-color="#B0884F"/>
        </linearGradient>
        <linearGradient id="paint12_linear_120_235" x1="36.0822" y1="-0.21808" x2="114.389" y2="49.4141"
                        gradientUnits="userSpaceOnUse">
            <stop offset="0.24" stop-color="#AB8A59"/>
            <stop offset="0.29" stop-color="#BC9965"/>
            <stop offset="0.37" stop-color="#E8C284"/>
            <stop offset="0.41" stop-color="#FDD593"/>
            <stop offset="0.54" stop-color="#BF975C"/>
            <stop offset="0.95" stop-color="#B0884F"/>
        </linearGradient>
        <linearGradient id="paint13_linear_120_235" x1="38.829" y1="-4.55626" x2="117.135" y2="45.0759"
                        gradientUnits="userSpaceOnUse">
            <stop offset="0.24" stop-color="#AB8A59"/>
            <stop offset="0.29" stop-color="#BC9965"/>
            <stop offset="0.37" stop-color="#E8C284"/>
            <stop offset="0.41" stop-color="#FDD593"/>
            <stop offset="0.54" stop-color="#BF975C"/>
            <stop offset="0.95" stop-color="#B0884F"/>
        </linearGradient>
        <linearGradient id="paint14_linear_120_235" x1="20.4132" y1="24.5299" x2="98.7508" y2="74.1308"
                        gradientUnits="userSpaceOnUse">
            <stop offset="0.24" stop-color="#AB8A59"/>
            <stop offset="0.29" stop-color="#BC9965"/>
            <stop offset="0.37" stop-color="#E8C284"/>
            <stop offset="0.41" stop-color="#FDD593"/>
            <stop offset="0.54" stop-color="#BF975C"/>
            <stop offset="0.95" stop-color="#B0884F"/>
        </linearGradient>
        <linearGradient id="paint15_linear_120_235" x1="25.1265" y1="17.0711" x2="103.464" y2="66.6721"
                        gradientUnits="userSpaceOnUse">
            <stop offset="0.24" stop-color="#AB8A59"/>
            <stop offset="0.29" stop-color="#BC9965"/>
            <stop offset="0.37" stop-color="#E8C284"/>
            <stop offset="0.41" stop-color="#FDD593"/>
            <stop offset="0.54" stop-color="#BF975C"/>
            <stop offset="0.95" stop-color="#B0884F"/>
        </linearGradient>
        <linearGradient id="paint16_linear_120_235" x1="32.8048" y1="4.93119" x2="111.142" y2="54.5633"
                        gradientUnits="userSpaceOnUse">
            <stop offset="0.24" stop-color="#AB8A59"/>
            <stop offset="0.29" stop-color="#BC9965"/>
            <stop offset="0.37" stop-color="#E8C284"/>
            <stop offset="0.41" stop-color="#FDD593"/>
            <stop offset="0.54" stop-color="#BF975C"/>
            <stop offset="0.95" stop-color="#B0884F"/>
        </linearGradient>
        <linearGradient id="paint17_linear_120_235" x1="32.2431" y1="5.83604" x2="110.581" y2="55.437"
                        gradientUnits="userSpaceOnUse">
            <stop offset="0.24" stop-color="#AB8A59"/>
            <stop offset="0.29" stop-color="#BC9965"/>
            <stop offset="0.37" stop-color="#E8C284"/>
            <stop offset="0.41" stop-color="#FDD593"/>
            <stop offset="0.54" stop-color="#BF975C"/>
            <stop offset="0.95" stop-color="#B0884F"/>
        </linearGradient>
        <linearGradient id="paint18_linear_120_235" x1="34.6465" y1="2.05971" x2="112.953" y2="51.6919"
                        gradientUnits="userSpaceOnUse">
            <stop offset="0.24" stop-color="#AB8A59"/>
            <stop offset="0.29" stop-color="#BC9965"/>
            <stop offset="0.37" stop-color="#E8C284"/>
            <stop offset="0.41" stop-color="#FDD593"/>
            <stop offset="0.54" stop-color="#BF975C"/>
            <stop offset="0.95" stop-color="#B0884F"/>
        </linearGradient>
        <linearGradient id="paint19_linear_120_235" x1="37.5492" y1="-2.52774" x2="115.856" y2="47.1044"
                        gradientUnits="userSpaceOnUse">
            <stop offset="0.24" stop-color="#AB8A59"/>
            <stop offset="0.29" stop-color="#BC9965"/>
            <stop offset="0.37" stop-color="#E8C284"/>
            <stop offset="0.41" stop-color="#FDD593"/>
            <stop offset="0.54" stop-color="#BF975C"/>
            <stop offset="0.95" stop-color="#B0884F"/>
        </linearGradient>
        <linearGradient id="paint20_linear_120_235" x1="19.0087" y1="26.7141" x2="97.3463" y2="76.3462"
                        gradientUnits="userSpaceOnUse">
            <stop offset="0.24" stop-color="#AB8A59"/>
            <stop offset="0.29" stop-color="#BC9965"/>
            <stop offset="0.37" stop-color="#E8C284"/>
            <stop offset="0.41" stop-color="#FDD593"/>
            <stop offset="0.54" stop-color="#BF975C"/>
            <stop offset="0.95" stop-color="#B0884F"/>
        </linearGradient>
        <linearGradient id="paint21_linear_120_235" x1="19.7266" y1="25.6219" x2="98.033" y2="75.2228"
                        gradientUnits="userSpaceOnUse">
            <stop offset="0.24" stop-color="#AB8A59"/>
            <stop offset="0.29" stop-color="#BC9965"/>
            <stop offset="0.37" stop-color="#E8C284"/>
            <stop offset="0.41" stop-color="#FDD593"/>
            <stop offset="0.54" stop-color="#BF975C"/>
            <stop offset="0.95" stop-color="#B0884F"/>
        </linearGradient>
        <linearGradient id="paint22_linear_120_235" x1="23.3161" y1="19.9735" x2="101.622" y2="69.5744"
                        gradientUnits="userSpaceOnUse">
            <stop offset="0.24" stop-color="#AB8A59"/>
            <stop offset="0.29" stop-color="#BC9965"/>
            <stop offset="0.37" stop-color="#E8C284"/>
            <stop offset="0.41" stop-color="#FDD593"/>
            <stop offset="0.54" stop-color="#BF975C"/>
            <stop offset="0.95" stop-color="#B0884F"/>
        </linearGradient>
        <linearGradient id="paint23_linear_120_235" x1="26.4374" y1="14.9799" x2="104.775" y2="64.612"
                        gradientUnits="userSpaceOnUse">
            <stop offset="0.24" stop-color="#AB8A59"/>
            <stop offset="0.29" stop-color="#BC9965"/>
            <stop offset="0.37" stop-color="#E8C284"/>
            <stop offset="0.41" stop-color="#FDD593"/>
            <stop offset="0.54" stop-color="#BF975C"/>
            <stop offset="0.95" stop-color="#B0884F"/>
        </linearGradient>
        <linearGradient id="paint24_linear_120_235" x1="29.3402" y1="10.4547" x2="107.647" y2="60.0557"
                        gradientUnits="userSpaceOnUse">
            <stop offset="0.24" stop-color="#AB8A59"/>
            <stop offset="0.29" stop-color="#BC9965"/>
            <stop offset="0.37" stop-color="#E8C284"/>
            <stop offset="0.41" stop-color="#FDD593"/>
            <stop offset="0.54" stop-color="#BF975C"/>
            <stop offset="0.95" stop-color="#B0884F"/>
        </linearGradient>
        <linearGradient id="paint25_linear_120_235" x1="33.7412" y1="3.49568" x2="112.048" y2="53.0966"
                        gradientUnits="userSpaceOnUse">
            <stop offset="0.24" stop-color="#AB8A59"/>
            <stop offset="0.29" stop-color="#BC9965"/>
            <stop offset="0.37" stop-color="#E8C284"/>
            <stop offset="0.41" stop-color="#FDD593"/>
            <stop offset="0.54" stop-color="#BF975C"/>
            <stop offset="0.95" stop-color="#B0884F"/>
        </linearGradient>
        <linearGradient id="paint26_linear_120_235" x1="28.8096" y1="11.2976" x2="107.116" y2="60.8986"
                        gradientUnits="userSpaceOnUse">
            <stop offset="0.24" stop-color="#AB8A59"/>
            <stop offset="0.29" stop-color="#BC9965"/>
            <stop offset="0.37" stop-color="#E8C284"/>
            <stop offset="0.41" stop-color="#FDD593"/>
            <stop offset="0.54" stop-color="#BF975C"/>
            <stop offset="0.95" stop-color="#B0884F"/>
        </linearGradient>
        <linearGradient id="paint27_linear_120_235" x1="53.8888" y1="-22.3817" x2="121.465" y2="41.1009"
                        gradientUnits="userSpaceOnUse">
            <stop offset="0.24" stop-color="#AB8A59"/>
            <stop offset="0.29" stop-color="#BC9965"/>
            <stop offset="0.37" stop-color="#E8C284"/>
            <stop offset="0.41" stop-color="#FDD593"/>
            <stop offset="0.54" stop-color="#BF975C"/>
            <stop offset="0.95" stop-color="#B0884F"/>
        </linearGradient>
        <linearGradient id="paint28_linear_120_235" x1="51.2111" y1="-19.5272" x2="118.756" y2="43.9496"
                        gradientUnits="userSpaceOnUse">
            <stop offset="0.24" stop-color="#AB8A59"/>
            <stop offset="0.29" stop-color="#BC9965"/>
            <stop offset="0.37" stop-color="#E8C284"/>
            <stop offset="0.41" stop-color="#FDD593"/>
            <stop offset="0.54" stop-color="#BF975C"/>
            <stop offset="0.95" stop-color="#B0884F"/>
        </linearGradient>
        <linearGradient id="paint29_linear_120_235" x1="54.4958" y1="-23.0598" x2="122.066" y2="40.4533"
                        gradientUnits="userSpaceOnUse">
            <stop offset="0.24" stop-color="#AB8A59"/>
            <stop offset="0.29" stop-color="#BC9965"/>
            <stop offset="0.37" stop-color="#E8C284"/>
            <stop offset="0.41" stop-color="#FDD593"/>
            <stop offset="0.54" stop-color="#BF975C"/>
            <stop offset="0.95" stop-color="#B0884F"/>
        </linearGradient>
        <linearGradient id="paint30_linear_120_235" x1="53.1357" y1="-21.6047" x2="120.706" y2="41.9086"
                        gradientUnits="userSpaceOnUse">
            <stop offset="0.24" stop-color="#AB8A59"/>
            <stop offset="0.29" stop-color="#BC9965"/>
            <stop offset="0.37" stop-color="#E8C284"/>
            <stop offset="0.41" stop-color="#FDD593"/>
            <stop offset="0.54" stop-color="#BF975C"/>
            <stop offset="0.95" stop-color="#B0884F"/>
        </linearGradient>
        <linearGradient id="paint31_linear_120_235" x1="54.9271" y1="-23.4854" x2="122.466" y2="40.022"
                        gradientUnits="userSpaceOnUse">
            <stop offset="0.24" stop-color="#AB8A59"/>
            <stop offset="0.29" stop-color="#BC9965"/>
            <stop offset="0.37" stop-color="#E8C284"/>
            <stop offset="0.41" stop-color="#FDD593"/>
            <stop offset="0.54" stop-color="#BF975C"/>
            <stop offset="0.95" stop-color="#B0884F"/>
        </linearGradient>
        <linearGradient id="paint32_linear_120_235" x1="122.801" y1="0.35393" x2="190.162" y2="69.1215"
                        gradientUnits="userSpaceOnUse">
            <stop offset="0.24" stop-color="#AB8A59"/>
            <stop offset="0.29" stop-color="#BC9965"/>
            <stop offset="0.37" stop-color="#E8C284"/>
            <stop offset="0.41" stop-color="#FDD593"/>
            <stop offset="0.54" stop-color="#BF975C"/>
            <stop offset="0.95" stop-color="#B0884F"/>
        </linearGradient>
        <linearGradient id="paint33_linear_120_235" x1="57.2465" y1="-25.9638" x2="124.786" y2="37.5436"
                        gradientUnits="userSpaceOnUse">
            <stop offset="0.24" stop-color="#AB8A59"/>
            <stop offset="0.29" stop-color="#BC9965"/>
            <stop offset="0.37" stop-color="#E8C284"/>
            <stop offset="0.41" stop-color="#FDD593"/>
            <stop offset="0.54" stop-color="#BF975C"/>
            <stop offset="0.95" stop-color="#B0884F"/>
        </linearGradient>
        <linearGradient id="paint34_linear_120_235" x1="55.8864" y1="-24.5086" x2="123.462" y2="38.9741"
                        gradientUnits="userSpaceOnUse">
            <stop offset="0.24" stop-color="#AB8A59"/>
            <stop offset="0.29" stop-color="#BC9965"/>
            <stop offset="0.37" stop-color="#E8C284"/>
            <stop offset="0.41" stop-color="#FDD593"/>
            <stop offset="0.54" stop-color="#BF975C"/>
            <stop offset="0.95" stop-color="#B0884F"/>
        </linearGradient>
        <linearGradient id="paint35_linear_120_235" x1="55.2489" y1="-23.8367" x2="122.825" y2="39.6458"
                        gradientUnits="userSpaceOnUse">
            <stop offset="0.24" stop-color="#AB8A59"/>
            <stop offset="0.29" stop-color="#BC9965"/>
            <stop offset="0.37" stop-color="#E8C284"/>
            <stop offset="0.41" stop-color="#FDD593"/>
            <stop offset="0.54" stop-color="#BF975C"/>
            <stop offset="0.95" stop-color="#B0884F"/>
        </linearGradient>
        <linearGradient id="paint36_linear_120_235" x1="40.2328" y1="-7.87537" x2="107.803" y2="55.6379"
                        gradientUnits="userSpaceOnUse">
            <stop offset="0.24" stop-color="#AB8A59"/>
            <stop offset="0.29" stop-color="#BC9965"/>
            <stop offset="0.37" stop-color="#E8C284"/>
            <stop offset="0.41" stop-color="#FDD593"/>
            <stop offset="0.54" stop-color="#BF975C"/>
            <stop offset="0.95" stop-color="#B0884F"/>
        </linearGradient>
        <linearGradient id="paint37_linear_120_235" x1="50.7314" y1="-19.0156" x2="118.271" y2="44.4918"
                        gradientUnits="userSpaceOnUse">
            <stop offset="0.24" stop-color="#AB8A59"/>
            <stop offset="0.29" stop-color="#BC9965"/>
            <stop offset="0.37" stop-color="#E8C284"/>
            <stop offset="0.41" stop-color="#FDD593"/>
            <stop offset="0.54" stop-color="#BF975C"/>
            <stop offset="0.95" stop-color="#B0884F"/>
        </linearGradient>
        <linearGradient id="paint38_linear_120_235" x1="49.8145" y1="-18.0479" x2="117.354" y2="45.4595"
                        gradientUnits="userSpaceOnUse">
            <stop offset="0.24" stop-color="#AB8A59"/>
            <stop offset="0.29" stop-color="#BC9965"/>
            <stop offset="0.37" stop-color="#E8C284"/>
            <stop offset="0.41" stop-color="#FDD593"/>
            <stop offset="0.54" stop-color="#BF975C"/>
            <stop offset="0.95" stop-color="#B0884F"/>
        </linearGradient>
        <linearGradient id="paint39_linear_120_235" x1="52.9295" y1="-21.3585" x2="120.475" y2="42.1182"
                        gradientUnits="userSpaceOnUse">
            <stop offset="0.24" stop-color="#AB8A59"/>
            <stop offset="0.29" stop-color="#BC9965"/>
            <stop offset="0.37" stop-color="#E8C284"/>
            <stop offset="0.41" stop-color="#FDD593"/>
            <stop offset="0.54" stop-color="#BF975C"/>
            <stop offset="0.95" stop-color="#B0884F"/>
        </linearGradient>
        <linearGradient id="paint40_linear_120_235" x1="54.3684" y1="-22.8936" x2="121.914" y2="40.5832"
                        gradientUnits="userSpaceOnUse">
            <stop offset="0.24" stop-color="#AB8A59"/>
            <stop offset="0.29" stop-color="#BC9965"/>
            <stop offset="0.37" stop-color="#E8C284"/>
            <stop offset="0.41" stop-color="#FDD593"/>
            <stop offset="0.54" stop-color="#BF975C"/>
            <stop offset="0.95" stop-color="#B0884F"/>
        </linearGradient>
        <linearGradient id="paint41_linear_120_235" x1="36.8268" y1="-4.20746" x2="104.372" y2="59.2693"
                        gradientUnits="userSpaceOnUse">
            <stop offset="0.24" stop-color="#AB8A59"/>
            <stop offset="0.29" stop-color="#BC9965"/>
            <stop offset="0.37" stop-color="#E8C284"/>
            <stop offset="0.41" stop-color="#FDD593"/>
            <stop offset="0.54" stop-color="#BF975C"/>
            <stop offset="0.95" stop-color="#B0884F"/>
        </linearGradient>
        <linearGradient id="paint42_linear_120_235" x1="39.5045" y1="-7.0616" x2="107.05" y2="56.4151"
                        gradientUnits="userSpaceOnUse">
            <stop offset="0.24" stop-color="#AB8A59"/>
            <stop offset="0.29" stop-color="#BC9965"/>
            <stop offset="0.37" stop-color="#E8C284"/>
            <stop offset="0.41" stop-color="#FDD593"/>
            <stop offset="0.54" stop-color="#BF975C"/>
            <stop offset="0.95" stop-color="#B0884F"/>
        </linearGradient>
        <linearGradient id="paint43_linear_120_235" x1="46.5416" y1="-14.5765" x2="114.117" y2="48.9061"
                        gradientUnits="userSpaceOnUse">
            <stop offset="0.24" stop-color="#AB8A59"/>
            <stop offset="0.29" stop-color="#BC9965"/>
            <stop offset="0.37" stop-color="#E8C284"/>
            <stop offset="0.41" stop-color="#FDD593"/>
            <stop offset="0.54" stop-color="#BF975C"/>
            <stop offset="0.95" stop-color="#B0884F"/>
        </linearGradient>
        <linearGradient id="paint44_linear_120_235" x1="49.2134" y1="-17.4002" x2="116.753" y2="46.1072"
                        gradientUnits="userSpaceOnUse">
            <stop offset="0.24" stop-color="#AB8A59"/>
            <stop offset="0.29" stop-color="#BC9965"/>
            <stop offset="0.37" stop-color="#E8C284"/>
            <stop offset="0.41" stop-color="#FDD593"/>
            <stop offset="0.54" stop-color="#BF975C"/>
            <stop offset="0.95" stop-color="#B0884F"/>
        </linearGradient>
        <linearGradient id="paint45_linear_120_235" x1="52.3708" y1="-20.7667" x2="119.91" y2="42.7407"
                        gradientUnits="userSpaceOnUse">
            <stop offset="0.24" stop-color="#AB8A59"/>
            <stop offset="0.29" stop-color="#BC9965"/>
            <stop offset="0.37" stop-color="#E8C284"/>
            <stop offset="0.41" stop-color="#FDD593"/>
            <stop offset="0.54" stop-color="#BF975C"/>
            <stop offset="0.95" stop-color="#B0884F"/>
        </linearGradient>
        <linearGradient id="paint46_linear_120_235" x1="54.6418" y1="-23.1589" x2="122.187" y2="40.3179"
                        gradientUnits="userSpaceOnUse">
            <stop offset="0.24" stop-color="#AB8A59"/>
            <stop offset="0.29" stop-color="#BC9965"/>
            <stop offset="0.37" stop-color="#E8C284"/>
            <stop offset="0.41" stop-color="#FDD593"/>
            <stop offset="0.54" stop-color="#BF975C"/>
            <stop offset="0.95" stop-color="#B0884F"/>
        </linearGradient>
        <linearGradient id="paint47_linear_120_235" x1="53.5305" y1="-22.0057" x2="121.106" y2="41.4769"
                        gradientUnits="userSpaceOnUse">
            <stop offset="0.24" stop-color="#AB8A59"/>
            <stop offset="0.29" stop-color="#BC9965"/>
            <stop offset="0.37" stop-color="#E8C284"/>
            <stop offset="0.41" stop-color="#FDD593"/>
            <stop offset="0.54" stop-color="#BF975C"/>
            <stop offset="0.95" stop-color="#B0884F"/>
        </linearGradient>
        <clipPath id="clip0_120_235">
            <rect width="132" height="93" fill="white"/>
        </clipPath>
    </defs>
</svg>