<svg width="96" height="96" viewBox="0 0 96 96" fill="none" xmlns="http://www.w3.org/2000/svg">
<rect width="96" height="96" rx="20" fill="url(#paint0_linear_400_554)"/>
<g clip-path="url(#clip0_400_554)">
<path d="M41.6226 63.0003C41.0806 63.0003 40.6415 62.5528 40.6415 62.0003C40.6415 61.7353 40.7445 61.4816 40.9285 61.2941C41.9673 60.1103 42.5609 58.5891 42.6038 57.0016C42.6663 55.9292 42.2641 54.8829 41.5025 54.1392C39.9707 54.7167 38.3493 55.0092 36.717 55.0017C33.6129 55.0017 32.7925 53.0392 32.7925 52.0017V51.0018C32.7925 50.518 33.1309 50.1043 33.5982 50.018C33.6411 49.9155 33.6742 49.808 33.6963 49.6993C33.1175 49.3405 32.7728 48.6931 32.7925 48.0018V46.7231L30.5199 45.9506C30.1189 45.8144 29.8491 45.4319 29.8491 45.0019V44.0019C29.9079 42.8869 30.309 41.8182 30.9945 40.947C31.4508 40.3957 31.7353 39.7182 31.8113 39.002C31.842 38.6407 31.7561 38.2783 31.566 37.972C31.1638 37.222 30.8302 36.402 30.8302 34.0021C30.8277 31.3071 32.0824 28.7709 34.2102 27.1697C34.6603 26.8622 35.2698 26.9847 35.5715 27.4435C35.8732 27.9022 35.753 28.5234 35.3029 28.8309C33.7147 30.0559 32.7839 31.9709 32.7925 34.0008C32.7925 36.0883 33.0549 36.5783 33.283 37.0108C33.6326 37.6108 33.803 38.3033 33.7736 39.0007C33.7147 40.1157 33.3137 41.1844 32.6281 42.0557C32.1719 42.6069 31.8874 43.2844 31.8113 44.0006V44.2794L34.0839 45.0519C34.4849 45.1881 34.7547 45.5706 34.7547 46.0006V48.0006C35.2968 48.0006 35.7359 48.4481 35.7359 49.0005C35.8119 49.998 35.4526 50.978 34.7547 51.6805V52.0005C34.7658 52.143 34.9117 53.0005 36.717 53.0005C38.2512 53.0242 39.7732 52.718 41.1836 52.1005C41.4595 51.9605 41.7845 51.9605 42.0605 52.1005C43.7272 53.1292 44.6936 55.0179 44.5648 57.0004C44.5268 59.1191 43.7259 61.1503 42.3156 62.7078C42.1316 62.8953 41.8826 63.0003 41.6214 63.0003H41.6226Z" fill="black"/>
<path d="M71.0566 80.0001C66.8733 80.0001 63.9115 77.6101 62.717 73.2702C62.5711 72.739 62.8752 72.1865 63.3964 72.0377C63.9177 71.889 64.4597 72.199 64.6057 72.7302C65.5684 76.2276 67.7379 78.0001 71.0554 78.0001C71.5975 78.0001 72.0365 78.4476 72.0365 79.0001C72.0365 79.5526 71.5975 80.0001 71.0554 80.0001H71.0566ZM67.0965 56.913C68.4652 51.7294 69.1373 46.3795 69.0944 41.0108C69.1005 40.4583 68.6663 40.0059 68.1243 39.9996C68.1218 39.9996 68.1206 39.9996 68.1181 39.9996H68.1132C67.5761 39.9996 67.1382 40.4408 67.1321 40.9883C67.1775 46.1845 66.5311 51.3631 65.2103 56.3818C65.0668 56.9143 65.3746 57.4643 65.8971 57.6105C65.9817 57.6343 66.0688 57.6468 66.1571 57.6468C66.5961 57.6443 66.98 57.3443 67.0965 56.9118V56.913ZM64.9172 27.8136C65.3575 27.4911 65.4568 26.8661 65.1404 26.4174C65.1404 26.4161 65.1379 26.4149 65.1379 26.4136C57.8285 16.1188 43.2219 16.0001 42.6038 16.0001C38.9123 15.9651 35.2968 17.0726 32.2357 19.175C31.7844 19.4813 31.6629 20.1025 31.9634 20.5612C32.2639 21.0212 32.8734 21.145 33.3235 20.8387C33.3296 20.8337 33.337 20.83 33.3431 20.825C36.0719 18.9375 39.3047 17.9513 42.6026 18C42.7436 18 56.829 18.1275 63.5473 27.5861C63.8637 28.0348 64.4769 28.1361 64.9172 27.8136C64.9184 27.8136 64.9196 27.8111 64.9209 27.8111L64.9172 27.8136ZM28.8177 79.3151C28.9894 78.7913 28.711 78.2251 28.1971 78.0501C28.175 78.0426 25.9245 77.0076 25.9245 70.999C25.9454 68.4853 26.7524 66.0441 28.2278 64.0291C29.9079 61.7004 30.8192 58.8892 30.8302 55.9993C30.8302 52.5994 29.7571 50.1132 28.6202 47.4807C26.8554 43.9208 25.9319 39.9884 25.9245 35.9997C25.9245 34.721 26.0435 33.4447 26.2802 32.1885C26.3599 31.6423 25.9883 31.1335 25.4524 31.0535C24.9495 30.9773 24.4725 31.306 24.3547 31.811C24.0947 33.191 23.9623 34.5947 23.9623 35.9997C23.9733 40.2658 24.952 44.4708 26.8247 48.2869C27.9211 50.8269 28.8679 53.0206 28.8679 55.9993C28.8471 58.513 28.0401 60.9542 26.5647 62.9692C24.8845 65.2979 23.9733 68.1091 23.9623 70.999C23.9623 78.4989 27.2074 79.8213 27.5765 79.9476C28.0904 80.1226 28.646 79.8388 28.8177 79.3151ZM29.9472 78.0001C30.4868 77.9476 30.8829 77.4601 30.8314 76.9101C30.8314 76.9064 30.8314 76.9039 30.8314 76.9001C30.7946 76.5314 30.0784 67.8228 41.7784 65.9878C54.6411 63.9704 54.4375 51.3269 54.3786 50.0307C54.8005 44.6108 52.4102 39.3596 48.0773 36.1872C43.8768 33.0085 40.3104 29.0423 37.5694 24.5012C37.2971 24.0237 36.6961 23.8624 36.2277 24.1412C35.7653 24.4162 35.6034 25.0186 35.8659 25.4949C38.7345 30.2973 42.4959 34.4835 46.9404 37.8159C50.7153 40.5796 52.7953 45.1558 52.4237 49.8782C52.4151 49.9444 52.4139 50.0119 52.4188 50.0782C52.4544 50.5706 53.1571 62.1779 41.4743 64.0154C27.9567 66.1328 28.863 76.9926 28.8741 77.1026C28.9244 77.6139 29.3462 78.0026 29.8503 78.0026C29.8834 78.0051 29.9153 78.0051 29.9484 78.0026L29.9472 78.0001Z" fill="black"/>
<path d="M73.0189 31.0009C69.1385 31.0009 69.0943 26.201 69.0943 26.001C69.0943 25.4486 68.6553 25.0011 68.1132 25.0011C67.5711 25.0011 67.1321 25.4486 67.1321 26.001C67.1321 26.201 67.0879 31.0009 63.2075 31.0009C62.6655 31.0009 62.2264 31.4484 62.2264 32.0009C62.2264 32.5534 62.6655 33.0009 63.2075 33.0009C67.0634 33.0009 67.1321 37.8008 67.1321 38.0008C67.1382 38.0733 67.1529 38.1458 67.175 38.2158C67.1824 38.2746 67.1934 38.3321 67.2093 38.3883C67.2792 38.4946 67.3492 38.6008 67.4203 38.7058C67.4767 38.7545 67.538 38.7958 67.603 38.8308C67.6435 38.8633 67.6864 38.8933 67.7318 38.9183C67.852 38.9708 67.982 38.9983 68.1132 38.9995C68.6553 38.9995 69.0943 38.552 69.0943 37.9996C69.0943 37.7996 69.1385 32.9997 73.0189 32.9997C73.5609 32.9997 74 32.5522 74 31.9997C74 31.4472 73.5609 30.9997 73.0189 30.9997V31.0009ZM68.1132 33.9834C67.7122 33.2022 67.1419 32.5234 66.4453 32.0009C67.1419 31.4784 67.7122 30.7997 68.1132 30.0185C68.5142 30.7997 69.0845 31.4784 69.7811 32.0009C69.0845 32.5234 68.5142 33.2022 68.1132 33.9834ZM67.1321 62.0003C63.2517 62.0003 63.2075 57.2004 63.2075 57.0004C63.2075 56.4479 62.7685 56.0005 62.2264 56.0005C61.6843 56.0005 61.2453 56.4479 61.2453 57.0004C61.2453 57.2004 61.2011 62.0003 57.3208 62.0003C56.7787 62.0003 56.3396 62.4478 56.3396 63.0003C56.3396 63.5528 56.7787 64.0003 57.3208 64.0003C61.1766 64.0003 61.2453 68.8002 61.2453 69.0002C61.2514 69.0727 61.2661 69.1452 61.2882 69.2152C61.2956 69.2739 61.3066 69.3314 61.3225 69.3877C61.3925 69.4939 61.4624 69.6002 61.5335 69.7052C61.5899 69.7539 61.6512 69.7952 61.7162 69.8302C61.7567 69.8627 61.7996 69.8927 61.845 69.9177C61.9652 69.9702 62.0952 69.9977 62.2264 69.9989C62.7685 69.9989 63.2075 69.5514 63.2075 68.999C63.2075 68.799 63.2517 63.9991 67.1321 63.9991C67.6742 63.9991 68.1132 63.5516 68.1132 62.9991C68.1132 62.4466 67.6742 61.9991 67.1321 61.9991V62.0003ZM62.2264 64.9828C61.8254 64.2015 61.2551 63.5228 60.5585 63.0003C61.2551 62.4778 61.8254 61.7991 62.2264 61.0179C62.6275 61.7991 63.1977 62.4778 63.8943 63.0003C63.1977 63.5228 62.6275 64.2015 62.2264 64.9828ZM32.7925 23.0011C28.9121 23.0011 28.8679 18.2012 28.8679 18.0012C28.8679 17.4487 28.4289 17.0012 27.8868 17.0012C27.3447 17.0012 26.9057 17.4487 26.9057 18.0012C26.9057 18.2012 26.8615 23.0011 22.9811 23.0011C22.4391 23.0011 22 23.4486 22 24.0011C22 24.5536 22.4391 25.0011 22.9811 25.0011C26.837 25.0011 26.9057 29.801 26.9057 30.001C26.9118 30.0735 26.9265 30.146 26.9486 30.216C26.9559 30.2747 26.967 30.3322 26.9829 30.3885C27.0148 30.4485 27.0516 30.5047 27.0933 30.556C27.1215 30.6085 27.1546 30.6585 27.1914 30.706C27.2478 30.7547 27.3092 30.796 27.3742 30.8309C27.4146 30.8635 27.4575 30.8934 27.5029 30.9184C27.6243 30.9722 27.7543 30.9997 27.8868 30.9997C28.4289 30.9997 28.8679 30.5522 28.8679 29.9997C28.8679 29.7997 28.9121 24.9998 32.7925 24.9998C33.3345 24.9998 33.7736 24.5523 33.7736 23.9998C33.7736 23.4473 33.3345 22.9999 32.7925 22.9999V23.0011ZM27.8868 25.9835C27.4858 25.2023 26.9155 24.5236 26.2189 24.0011C26.9155 23.4786 27.4858 22.7999 27.8868 22.0186C28.2878 22.7999 28.8581 23.4786 29.5547 24.0011C28.8581 24.5236 28.2878 25.2023 27.8868 25.9835Z" fill="black"/>
</g>
<defs>
<linearGradient id="paint0_linear_400_554" x1="48" y1="0" x2="48" y2="96" gradientUnits="userSpaceOnUse">
<stop stop-color="#E8BF85"/>
<stop offset="0.55" stop-color="#F0D6AF"/>
<stop offset="1" stop-color="#A38150"/>
</linearGradient>
<clipPath id="clip0_400_554">
<rect width="52" height="64" fill="white" transform="translate(22 16)"/>
</clipPath>
</defs>
</svg>
