<svg width="96" height="96" viewBox="0 0 96 96" fill="none" xmlns="http://www.w3.org/2000/svg">
<rect width="96" height="96" rx="20" fill="url(#paint0_linear_400_541)"/>
<path d="M76.1729 35.4838C76.0825 35.4363 75.9891 35.3872 75.9446 35.3573C72.4256 33.0017 72.6271 31.077 72.789 29.5305C73.177 25.8229 74.273 19.8487 74.284 19.7888C74.3901 19.2125 74.0816 18.6399 73.5419 18.4114C73.0025 18.1827 72.3764 18.36 72.0365 18.8372C64.746 29.0707 56.3508 36.2282 56.271 36.2957C47.4921 43.6612 40.4124 53.2173 39.5905 64.5498C39.0395 72.1454 41.5926 77.1215 41.7016 77.3297C41.9236 77.7539 42.3699 78.0172 42.8581 77.999C43.5674 77.973 44.1154 77.3598 44.0574 76.6477C43.8598 64.9178 48.2885 57.4343 56.868 55.005C57.542 54.8144 58.2495 54.7502 58.9466 54.8155C59.606 54.8779 66.9495 55.5632 67.5838 55.5462C69.5296 55.5215 70.9489 54.8867 71.8016 53.6589C72.7226 52.3332 72.6875 50.6915 72.501 49.5608C73.291 49.2613 73.8826 48.8314 74.2668 48.2754C74.7071 47.638 74.7763 46.9498 74.694 46.5182C74.6434 46.2519 74.5075 46.0094 74.3069 45.8272C74.2105 45.7395 74.132 45.6589 74.068 45.5864C74.6011 45.52 75.0536 45.2748 75.3623 44.8794C75.9463 44.1315 75.7524 43.1992 75.7076 43.0199C75.6708 42.8732 75.6874 42.9489 74.9714 41.1487L77.2849 39.8955C77.6144 39.7172 77.8463 39.4004 77.9171 39.0324C78.3765 36.6434 76.8323 35.8308 76.1729 35.4838ZM72.8021 39.4805C72.2443 39.7827 72.0013 40.4548 72.2369 41.0439L73.0776 43.1452C71.4461 43.4587 70.6549 45.2857 72.0153 47.0267C71.8099 47.1608 71.4321 47.3275 70.7818 47.4413C70.0196 47.5745 69.5589 48.3633 69.8204 49.0939C70.0064 49.6135 70.3926 51.3057 69.7488 52.2327C69.3873 52.7528 68.661 53.0264 67.5896 53.0459C67.3368 53.0325 65.5018 52.9247 59.1824 52.3269C58.1785 52.2315 57.1583 52.3248 56.1873 52.5997C52.5416 53.6319 49.4985 55.5032 47.1424 58.1614C44.6204 61.0068 42.9445 64.672 42.1291 69.1085C40.9758 56.8617 48.4935 46.0844 57.8823 38.2074C58.1861 37.9503 64.4475 32.6155 70.9641 24.4138C70.708 26.0482 70.4555 27.8118 70.3029 29.2702C70.121 31.0072 69.7825 34.2404 74.5541 37.4345C74.7083 37.5378 74.8611 37.6182 75.0089 37.6959C75.2823 37.8397 75.4231 37.9139 75.4808 38.0295L72.8021 39.4805Z" fill="black"/>
<path d="M34.0387 64.5822C34.7559 55.3909 40.2135 46.2718 49.8256 38.2073C50.1777 37.9093 58.5357 30.7879 66.0161 20.2877C66.4166 19.7254 66.2856 18.9449 65.7234 18.5443C65.1609 18.1437 64.3806 18.2748 63.98 18.8371C56.6896 29.0706 48.2944 36.2281 48.2146 36.2956C39.436 43.6608 32.356 53.2172 31.534 64.5497C30.983 72.1453 33.5361 77.1214 33.6451 77.3296C33.8682 77.7557 34.3021 77.9989 34.7519 77.9989C35.6732 77.9989 36.2966 77.0144 35.8614 76.1729C35.8379 76.1272 33.4982 71.5101 34.0387 64.5822Z" fill="black"/>
<path d="M20.777 64.5634C21.3319 55.3799 26.7009 46.2676 36.3034 38.2111C36.8322 37.7674 36.9012 36.9789 36.4576 36.4501C36.0139 35.9212 35.2255 35.8521 34.6966 36.2959C25.8961 43.6793 18.8949 53.2438 18.2724 64.5718C17.8549 72.1701 20.5405 77.1449 20.655 77.3529C20.8824 77.7662 21.309 77.9993 21.7494 77.9993C22.6884 77.9993 23.3024 76.9881 22.8465 76.1501C22.8216 76.1043 20.3586 71.4878 20.777 64.5634Z" fill="black"/>
<path d="M40.8104 37.5743C41.2664 38.0941 42.0564 38.1441 42.5744 37.6895C53.5007 28.1027 57.6869 20.1586 57.8597 19.8251C58.1772 19.2126 57.9382 18.4593 57.326 18.1412C56.7137 17.8231 55.9594 18.0616 55.6407 18.6735C55.6002 18.7513 51.4651 26.5628 40.9256 35.8102C40.4066 36.2656 40.3551 37.0555 40.8104 37.5743Z" fill="black"/>
<path d="M31.4039 51.3634C31.8785 50.8667 31.8634 50.0793 31.3688 49.6012C30.8723 49.1214 30.081 49.1349 29.6013 49.6313C29.2873 49.9562 21.9659 57.81 26.7875 77.0538C26.9555 77.7244 27.6351 78.1298 28.3038 77.9625C28.9734 77.7947 29.3803 77.1159 29.2125 76.4462C26.8786 67.1312 27.6074 60.7958 28.6296 57.1213C29.7201 53.2024 31.3656 51.4045 31.4039 51.3634Z" fill="black"/>
<path d="M21.75 35.5C23.8177 35.5 25.5 33.8177 25.5 31.75C25.5 29.6823 23.8177 28 21.75 28C19.6823 28 18 29.6823 18 31.75C18 33.8177 19.6823 35.5 21.75 35.5ZM21.75 30.5C22.4392 30.5 23 31.0608 23 31.75C23 32.4392 22.4392 33 21.75 33C21.0608 33 20.5 32.4392 20.5 31.75C20.5 31.0608 21.0608 30.5 21.75 30.5Z" fill="black"/>
<path d="M73 63C70.9323 63 69.25 64.6823 69.25 66.75C69.25 68.8177 70.9323 70.5 73 70.5C75.0677 70.5 76.75 68.8177 76.75 66.75C76.75 64.6823 75.0677 63 73 63ZM73 68C72.3108 68 71.75 67.4392 71.75 66.75C71.75 66.0608 72.3108 65.5 73 65.5C73.6892 65.5 74.25 66.0608 74.25 66.75C74.25 67.4392 73.6892 68 73 68Z" fill="black"/>
<path d="M59.4645 63.9917C57.7942 62.4974 55.2284 62.5515 53.6221 64.1578C51.9631 65.8169 51.9631 68.5165 53.6221 70.1757L58.5806 75.1342C59.0687 75.622 59.8601 75.6222 60.3485 75.1342L65.307 70.1757C66.966 68.5167 66.966 65.817 65.3069 64.1577C63.6996 62.5504 61.1339 62.498 59.4645 63.9917ZM63.5391 68.4078L59.4645 72.4824L55.3899 68.4078C54.7055 67.7234 54.7055 66.6098 55.3897 65.9255C56.0757 65.2398 57.1861 65.2393 57.8721 65.9255L58.5805 66.6339C59.0687 67.1219 59.86 67.1219 60.3484 66.6339L61.0567 65.9255C61.7426 65.2394 62.853 65.2397 63.539 65.9254C64.2234 66.6098 64.2234 67.7234 63.5391 68.4078Z" fill="black"/>
<path d="M36.2774 30.2228C36.7654 30.7106 37.5571 30.7108 38.0453 30.2228L43.0036 25.2644C44.6628 23.6053 44.6628 20.9057 43.0036 19.2464C41.3961 17.6391 38.8301 17.5873 37.1613 19.0804C35.4941 17.5889 32.9283 17.6372 31.3189 19.2464C29.6559 20.9094 29.6556 23.6011 31.3189 25.2644L36.2774 30.2228ZM34.3279 20.5001C34.7968 20.5001 35.2375 20.6827 35.5691 21.0142L36.2775 21.7226C36.7656 22.2107 37.5571 22.2106 38.0453 21.7226L38.7536 21.0142C39.4395 20.3282 40.55 20.3281 41.2359 21.0142C41.9203 21.6986 41.9203 22.8121 41.2359 23.4964L37.1614 27.5711L33.0868 23.4964C32.7553 23.1649 32.5726 22.7242 32.5726 22.2553C32.5726 21.2854 33.3576 20.5001 34.3279 20.5001Z" fill="black"/>
<defs>
<linearGradient id="paint0_linear_400_541" x1="48" y1="0" x2="48" y2="96" gradientUnits="userSpaceOnUse">
<stop stop-color="#E8BF85"/>
<stop offset="0.55" stop-color="#F0D6AF"/>
<stop offset="1" stop-color="#A38150"/>
</linearGradient>
</defs>
</svg>
