<svg width="767" height="971" viewBox="0 0 767 971" fill="none" xmlns="http://www.w3.org/2000/svg">
<g clip-path="url(#clip0_130_1987)">
<rect width="767" height="971" fill="black"/>
<path fill-rule="evenodd" clip-rule="evenodd" d="M767 58L767 -1.85632L-5.23281e-06 -1.85625L-1.72101e-06 38.314C85.5824 42.207 171.57 33.0579 257.936 23.8684C349.199 14.1579 440.886 4.40239 532.967 9.94253C640.413 16.4072 690.858 33.1396 735.425 47.9222L735.425 47.9222C746.053 51.4476 756.347 54.8621 767 58Z" fill="#E2C08D"/>
<path d="M765.524 909.331C698.358 900.935 626.458 906.504 561.184 921.907C549.62 924.557 536.395 928.336 525.12 931.733C521.879 932.799 513.345 935.55 509.98 936.639L495.075 941.946C491.798 943.216 483.717 946.383 480.382 947.68C470.673 951.705 461.136 955.851 451.749 960.311C446.084 962.905 438.826 966.767 433.196 969.506C438.738 966.608 445.928 962.628 451.481 959.963C463.656 953.927 476.728 948.039 489.647 942.979L494.528 941.013L499.491 939.19C506.615 936.452 517.259 932.871 524.554 930.503C527.798 929.535 536.582 926.91 539.917 925.919C598.51 909.398 660.551 902.315 722.405 905.085C736.876 905.865 751.361 906.993 765.563 909.335L765.524 909.331Z" fill="url(#paint0_linear_130_1987)"/>
<path d="M720.155 927.144C665.141 919.007 605.981 922.253 552.081 933.698C542.534 935.661 531.601 938.521 522.277 941.102C519.595 941.919 512.535 944.02 509.75 944.853L497.41 948.937C494.695 949.919 487.998 952.371 485.235 953.375C477.186 956.502 469.276 959.731 461.483 963.22C456.782 965.247 450.749 968.285 446.074 970.431C450.679 968.152 456.659 965.016 461.27 962.93C471.381 958.197 482.227 953.602 492.932 949.685L496.978 948.16L501.088 946.754C506.99 944.637 515.799 941.892 521.835 940.082C524.517 939.347 531.781 937.353 534.538 936.601C582.971 924.113 634.061 919.442 684.816 922.86C696.688 923.768 708.565 924.962 720.187 927.148L720.155 927.144Z" fill="url(#paint1_linear_130_1987)"/>
<path fill-rule="evenodd" clip-rule="evenodd" d="M0 911.144V971H767V930.83C681.418 926.937 595.43 936.086 509.064 945.275C417.801 954.986 326.114 964.741 234.033 959.201C126.587 952.737 76.1421 936.004 31.5755 921.221L31.5754 921.221C20.9471 917.696 10.6531 914.282 0 911.144Z" fill="#E2C08D"/>
</g>
<defs>
<linearGradient id="paint0_linear_130_1987" x1="599.914" y1="966.174" x2="598.718" y2="906.332" gradientUnits="userSpaceOnUse">
<stop stop-color="#E8BF85"/>
<stop offset="0.55" stop-color="#F0D6AF"/>
<stop offset="1" stop-color="#A38150"/>
</linearGradient>
<linearGradient id="paint1_linear_130_1987" x1="583.076" y1="970.774" x2="583.199" y2="921.599" gradientUnits="userSpaceOnUse">
<stop stop-color="#E8BF85"/>
<stop offset="0.55" stop-color="#F0D6AF"/>
<stop offset="1" stop-color="#A38150"/>
</linearGradient>
<clipPath id="clip0_130_1987">
<rect width="767" height="971" fill="white"/>
</clipPath>
</defs>
</svg>
