<svg width="375" height="1609" viewBox="0 0 375 1609" fill="none" xmlns="http://www.w3.org/2000/svg">
<g clip-path="url(#clip0_130_1764)">
<rect width="375" height="1609" fill="black"/>
<path fill-rule="evenodd" clip-rule="evenodd" d="M-96 1549.14V1609H471V1568.83C407.734 1564.94 344.168 1574.09 280.322 1583.28C212.856 1592.99 145.078 1602.74 77.0077 1597.2C-2.42131 1590.74 -39.7125 1574 -72.6581 1559.22C-80.515 1555.7 -88.1248 1552.28 -96 1549.14Z" fill="white"/>
<path fill-rule="evenodd" clip-rule="evenodd" d="M471 58L471 -1.85632L-96 -1.85627L-96 38.314C-32.7338 42.207 30.8318 33.0579 94.6779 23.8684C162.144 14.1579 229.922 4.40238 297.992 9.94252C377.421 16.4072 414.712 33.1396 447.658 47.9222L447.658 47.9222C455.515 51.4476 463.125 54.8621 471 58Z" fill="white"/>
<path d="M489.524 1547.33C422.358 1538.94 350.458 1544.5 285.184 1559.91C273.62 1562.56 260.395 1566.34 249.12 1569.73C245.879 1570.8 237.345 1573.55 233.98 1574.64L219.075 1579.95C215.798 1581.22 207.717 1584.38 204.382 1585.68C194.673 1589.71 185.136 1593.85 175.749 1598.31C170.084 1600.91 162.826 1604.77 157.196 1607.51C162.738 1604.61 169.928 1600.63 175.481 1597.96C187.656 1591.93 200.728 1586.04 213.647 1580.98L218.528 1579.01L223.491 1577.19C230.615 1574.45 241.259 1570.87 248.554 1568.5C251.798 1567.54 260.582 1564.91 263.917 1563.92C322.51 1547.4 384.551 1540.32 446.405 1543.08C460.876 1543.86 475.361 1544.99 489.563 1547.34L489.524 1547.33Z" fill="url(#paint0_linear_130_1764)"/>
<path d="M444.155 1565.14C389.141 1557.01 329.981 1560.25 276.081 1571.7C266.534 1573.66 255.601 1576.52 246.277 1579.1C243.595 1579.92 236.535 1582.02 233.75 1582.85L221.41 1586.94C218.695 1587.92 211.998 1590.37 209.235 1591.37C201.186 1594.5 193.276 1597.73 185.483 1601.22C180.782 1603.25 174.749 1606.28 170.074 1608.43C174.679 1606.15 180.659 1603.02 185.27 1600.93C195.381 1596.2 206.227 1591.6 216.932 1587.68L220.978 1586.16L225.088 1584.75C230.99 1582.64 239.799 1579.89 245.835 1578.08C248.517 1577.35 255.781 1575.35 258.538 1574.6C306.971 1562.11 358.061 1557.44 408.816 1560.86C420.688 1561.77 432.565 1562.96 444.187 1565.15L444.155 1565.14Z" fill="url(#paint1_linear_130_1764)"/>
</g>
<defs>
<linearGradient id="paint0_linear_130_1764" x1="323.914" y1="1604.17" x2="322.718" y2="1544.33" gradientUnits="userSpaceOnUse">
<stop stop-color="#E8BF85"/>
<stop offset="0.55" stop-color="#F0D6AF"/>
<stop offset="1" stop-color="#A38150"/>
</linearGradient>
<linearGradient id="paint1_linear_130_1764" x1="307.076" y1="1608.77" x2="307.199" y2="1559.6" gradientUnits="userSpaceOnUse">
<stop stop-color="#E8BF85"/>
<stop offset="0.55" stop-color="#F0D6AF"/>
<stop offset="1" stop-color="#A38150"/>
</linearGradient>
<clipPath id="clip0_130_1764">
<rect width="375" height="1609" fill="white"/>
</clipPath>
</defs>
</svg>
