<svg width="1600" height="592" viewBox="0 0 1600 592" fill="none" xmlns="http://www.w3.org/2000/svg">
<g clip-path="url(#clip0_2021_15)">
<g clip-path="url(#clip1_2021_15)">
<rect width="1600" height="1184" transform="translate(0 -592)" fill="black"/>
<path d="M1564.96 480.25C1417.45 467.754 1261.17 487.42 1120.45 528.763C1095.51 535.909 1067.07 545.779 1042.85 554.592C1035.89 557.33 1017.58 564.407 1010.36 567.21L978.423 580.713C971.414 583.916 954.132 591.895 946.999 595.165C926.262 605.251 905.913 615.594 885.927 626.635C873.854 633.078 858.446 642.554 846.467 649.322C858.236 642.201 873.483 632.464 885.303 625.872C911.197 610.98 939.065 596.336 966.692 583.588L977.125 578.647L987.751 574.025C1002.99 567.114 1025.82 557.943 1041.47 551.856C1048.45 549.342 1067.32 542.523 1074.49 539.949C1200.51 496.721 1335.1 474.58 1470.39 474.824C1502.06 475.181 1533.79 476.326 1565.05 480.257L1564.96 480.25Z" fill="url(#paint0_linear_2021_15)"/>
<path d="M1497.34 452.677C1376.17 442.081 1247.73 457.89 1132.02 491.543C1111.52 497.358 1088.13 505.403 1068.21 512.589C1062.49 514.823 1047.43 520.597 1041.49 522.884L1015.22 533.907C1009.46 536.522 995.244 543.039 989.377 545.71C972.318 553.949 955.578 562.402 939.134 571.428C929.202 576.695 916.523 584.446 906.667 589.979C916.351 584.155 928.899 576.19 938.623 570.8C959.929 558.623 982.856 546.654 1005.58 536.242L1014.16 532.206L1022.9 528.432C1035.44 522.788 1054.21 515.305 1067.09 510.339C1072.82 508.289 1088.34 502.729 1094.24 500.63C1197.86 465.396 1308.49 447.506 1419.65 448.008C1445.66 448.372 1471.74 449.383 1497.41 452.682L1497.34 452.677Z" fill="url(#paint1_linear_2021_15)"/>
<path fill-rule="evenodd" clip-rule="evenodd" d="M0 461.191V592.191H1600L1600 514.804C1421.47 507.305 1242.1 524.93 1061.93 542.633C871.553 561.34 680.289 580.134 488.205 569.461C264.067 557.007 158.836 524.773 65.8678 496.294C43.6966 489.503 22.2228 482.925 9.67653e-06 476.88L0 461.191Z" fill="#E2C08D"/>
</g>
</g>
<defs>
<linearGradient id="paint0_linear_2021_15" x1="1209.91" y1="625.47" x2="1201" y2="489.714" gradientUnits="userSpaceOnUse">
<stop stop-color="#E8BF85"/>
<stop offset="0.55" stop-color="#F0D6AF"/>
<stop offset="1" stop-color="#A38150"/>
</linearGradient>
<linearGradient id="paint1_linear_2021_15" x1="1205.33" y1="571.193" x2="1198.31" y2="459.639" gradientUnits="userSpaceOnUse">
<stop stop-color="#E8BF85"/>
<stop offset="0.55" stop-color="#F0D6AF"/>
<stop offset="1" stop-color="#A38150"/>
</linearGradient>
<clipPath id="clip0_2021_15">
<rect width="1600" height="592" fill="white"/>
</clipPath>
<clipPath id="clip1_2021_15">
<rect width="1600" height="1184" fill="white" transform="translate(0 -592)"/>
</clipPath>
</defs>
</svg>
