<svg width="375" height="1403" viewBox="0 0 375 1403" fill="none" xmlns="http://www.w3.org/2000/svg">
<g clip-path="url(#clip0_130_657)">
<rect width="375" height="1403" fill="black"/>
<path fill-rule="evenodd" clip-rule="evenodd" d="M-96 1343.14V1403H471V1362.83C407.734 1358.94 344.168 1368.09 280.322 1377.28C212.856 1386.99 145.078 1396.74 77.0077 1391.2C-2.4213 1384.74 -39.7125 1368 -72.6581 1353.22L-72.6581 1353.22C-80.5151 1349.7 -88.1248 1346.28 -96 1343.14Z" fill="white"/>
<path fill-rule="evenodd" clip-rule="evenodd" d="M471 58L471 -1.85632L-96 -1.85627L-96 38.314C-32.7338 42.207 30.8318 33.0579 94.6779 23.8684C162.144 14.1579 229.922 4.40238 297.992 9.94252C377.421 16.4072 414.712 33.1396 447.658 47.9222L447.658 47.9222C455.515 51.4476 463.125 54.8621 471 58Z" fill="white"/>
<path d="M489.524 1341.33C422.358 1332.94 350.458 1338.5 285.184 1353.91C273.62 1356.56 260.395 1360.34 249.12 1363.73C245.879 1364.8 237.345 1367.55 233.98 1368.64L219.075 1373.95C215.798 1375.22 207.717 1378.38 204.382 1379.68C194.673 1383.71 185.136 1387.85 175.749 1392.31C170.084 1394.91 162.826 1398.77 157.196 1401.51C162.738 1398.61 169.928 1394.63 175.481 1391.96C187.656 1385.93 200.728 1380.04 213.647 1374.98L218.528 1373.01L223.491 1371.19C230.615 1368.45 241.259 1364.87 248.554 1362.5C251.798 1361.54 260.582 1358.91 263.917 1357.92C322.51 1341.4 384.551 1334.32 446.405 1337.08C460.876 1337.86 475.361 1338.99 489.563 1341.34L489.524 1341.33Z" fill="url(#paint0_linear_130_657)"/>
<path d="M444.155 1359.14C389.141 1351.01 329.981 1354.25 276.081 1365.7C266.534 1367.66 255.601 1370.52 246.277 1373.1C243.595 1373.92 236.535 1376.02 233.75 1376.85L221.41 1380.94C218.695 1381.92 211.998 1384.37 209.235 1385.37C201.186 1388.5 193.276 1391.73 185.483 1395.22C180.782 1397.25 174.749 1400.28 170.074 1402.43C174.679 1400.15 180.659 1397.02 185.27 1394.93C195.381 1390.2 206.227 1385.6 216.932 1381.68L220.978 1380.16L225.088 1378.75C230.99 1376.64 239.799 1373.89 245.835 1372.08C248.517 1371.35 255.781 1369.35 258.538 1368.6C306.971 1356.11 358.061 1351.44 408.816 1354.86C420.688 1355.77 432.565 1356.96 444.187 1359.15L444.155 1359.14Z" fill="url(#paint1_linear_130_657)"/>
</g>
<defs>
<linearGradient id="paint0_linear_130_657" x1="323.914" y1="1398.17" x2="322.718" y2="1338.33" gradientUnits="userSpaceOnUse">
<stop stop-color="#E8BF85"/>
<stop offset="0.55" stop-color="#F0D6AF"/>
<stop offset="1" stop-color="#A38150"/>
</linearGradient>
<linearGradient id="paint1_linear_130_657" x1="307.076" y1="1402.77" x2="307.199" y2="1353.6" gradientUnits="userSpaceOnUse">
<stop stop-color="#E8BF85"/>
<stop offset="0.55" stop-color="#F0D6AF"/>
<stop offset="1" stop-color="#A38150"/>
</linearGradient>
<clipPath id="clip0_130_657">
<rect width="375" height="1403" fill="white"/>
</clipPath>
</defs>
</svg>
