<svg width="1600" height="620" viewBox="0 0 1600 620" fill="none" xmlns="http://www.w3.org/2000/svg">
<g clip-path="url(#clip0_2014_13)">
<g clip-path="url(#clip1_2014_13)">
<rect width="1600" height="1240" transform="translate(0 -620)" fill="black"/>
<path d="M1550.99 537.966C1420.43 511.048 1278.61 511.95 1148.37 533.894C1125.31 537.621 1098.83 543.41 1076.23 548.704C1069.72 550.41 1052.59 554.783 1045.84 556.518L1015.84 565.183C1009.24 567.298 992.933 572.588 986.206 574.75C966.589 581.554 947.291 588.63 928.243 596.368C916.761 600.84 901.974 607.668 890.541 612.44C901.824 607.33 916.495 600.252 927.767 595.619C952.508 585.068 978.988 574.95 1005.05 566.501L1014.9 563.197L1024.9 560.198C1039.26 555.646 1060.65 549.883 1075.3 546.112C1081.8 544.608 1099.4 540.526 1106.09 538.989C1223.37 513.791 1346.08 508.361 1467.01 523.02C1495.29 526.719 1523.54 531.13 1551.06 537.981L1550.99 537.966Z" fill="url(#paint0_linear_2014_13)"/>
<path d="M1493.47 506.094C1386.26 483.687 1269.74 484.112 1162.69 501.851C1143.74 504.861 1121.97 509.558 1103.39 513.857C1098.04 515.244 1083.96 518.799 1078.4 520.209L1053.74 527.261C1048.31 528.985 1034.91 533.294 1029.37 535.055C1013.24 540.602 997.374 546.372 981.708 552.687C972.266 556.336 960.102 561.912 950.699 565.808C959.98 561.635 972.048 555.852 981.319 552.071C1001.67 543.458 1023.44 535.204 1044.87 528.32L1052.98 525.628L1061.19 523.186C1073 519.478 1090.59 514.792 1102.63 511.726C1107.97 510.504 1122.45 507.19 1127.94 505.942C1224.35 485.501 1325.18 481.314 1424.5 493.628C1447.73 496.73 1470.93 500.417 1493.53 506.107L1493.47 506.094Z" fill="url(#paint1_linear_2014_13)"/>
<path fill-rule="evenodd" clip-rule="evenodd" d="M1600 620L1600 542.613C1421.47 535.113 1242.1 552.739 1061.93 570.442C871.553 589.149 680.289 607.943 488.205 597.27C264.067 584.816 158.836 552.581 65.8678 524.103C43.6966 517.311 22.2228 510.734 9.67653e-06 504.688L0 489V620H1600Z" fill="white"/>
</g>
</g>
<defs>
<linearGradient id="paint0_linear_2014_13" x1="1218.04" y1="629.908" x2="1224.56" y2="507.579" gradientUnits="userSpaceOnUse">
<stop stop-color="#E8BF85"/>
<stop offset="0.55" stop-color="#F0D6AF"/>
<stop offset="1" stop-color="#A38150"/>
</linearGradient>
<linearGradient id="paint1_linear_2014_13" x1="1219.73" y1="580.89" x2="1225.37" y2="480.402" gradientUnits="userSpaceOnUse">
<stop stop-color="#E8BF85"/>
<stop offset="0.55" stop-color="#F0D6AF"/>
<stop offset="1" stop-color="#A38150"/>
</linearGradient>
<clipPath id="clip0_2014_13">
<rect width="1600" height="620" fill="white"/>
</clipPath>
<clipPath id="clip1_2014_13">
<rect width="1600" height="1240" fill="white" transform="translate(0 -620)"/>
</clipPath>
</defs>
</svg>
