<svg width="767" height="881" viewBox="0 0 767 881" fill="none" xmlns="http://www.w3.org/2000/svg">
<g clip-path="url(#clip0_130_696)">
<rect width="767" height="881" fill="black"/>
<path fill-rule="evenodd" clip-rule="evenodd" d="M767 58L767 -1.85632L-5.23281e-06 -1.85625L-1.72101e-06 38.314C85.5824 42.207 171.57 33.0579 257.936 23.8684C349.199 14.1579 440.886 4.40239 532.967 9.94253C640.413 16.4072 690.858 33.1396 735.425 47.9222L735.425 47.9222C746.053 51.4476 756.347 54.8621 767 58Z" fill="white"/>
<path d="M765.524 819.331C698.358 810.935 626.458 816.504 561.184 831.907C549.62 834.557 536.395 838.336 525.12 841.733C521.879 842.799 513.345 845.55 509.98 846.639L495.075 851.946C491.798 853.216 483.717 856.383 480.382 857.68C470.673 861.705 461.136 865.851 451.749 870.311C446.084 872.905 438.826 876.767 433.196 879.506C438.738 876.608 445.928 872.628 451.481 869.963C463.656 863.927 476.728 858.039 489.647 852.979L494.528 851.013L499.491 849.19C506.615 846.452 517.259 842.871 524.554 840.503C527.798 839.535 536.582 836.91 539.917 835.919C598.51 819.398 660.551 812.315 722.405 815.085C736.876 815.865 751.361 816.993 765.563 819.335L765.524 819.331Z" fill="url(#paint0_linear_130_696)"/>
<path d="M720.155 837.144C665.141 829.007 605.981 832.253 552.081 843.698C542.534 845.661 531.601 848.521 522.277 851.102C519.595 851.919 512.535 854.02 509.75 854.853L497.41 858.937C494.695 859.919 487.998 862.371 485.235 863.375C477.186 866.502 469.276 869.731 461.483 873.22C456.782 875.247 450.749 878.285 446.074 880.431C450.679 878.152 456.659 875.016 461.27 872.93C471.381 868.197 482.227 863.602 492.932 859.685L496.978 858.16L501.088 856.754C506.99 854.637 515.799 851.892 521.835 850.082C524.517 849.347 531.781 847.353 534.538 846.601C582.971 834.113 634.061 829.442 684.816 832.86C696.688 833.768 708.565 834.962 720.187 837.148L720.155 837.144Z" fill="url(#paint1_linear_130_696)"/>
<path fill-rule="evenodd" clip-rule="evenodd" d="M0 821.144V881H767V840.83C681.418 836.937 595.43 846.086 509.064 855.275C417.801 864.986 326.114 874.741 234.033 869.201C126.587 862.737 76.1421 846.004 31.5754 831.221L31.5747 831.221C20.9467 827.696 10.6529 824.282 0 821.144Z" fill="white"/>
</g>
<defs>
<linearGradient id="paint0_linear_130_696" x1="599.914" y1="876.174" x2="598.718" y2="816.332" gradientUnits="userSpaceOnUse">
<stop stop-color="#E8BF85"/>
<stop offset="0.55" stop-color="#F0D6AF"/>
<stop offset="1" stop-color="#A38150"/>
</linearGradient>
<linearGradient id="paint1_linear_130_696" x1="583.076" y1="880.774" x2="583.199" y2="831.599" gradientUnits="userSpaceOnUse">
<stop stop-color="#E8BF85"/>
<stop offset="0.55" stop-color="#F0D6AF"/>
<stop offset="1" stop-color="#A38150"/>
</linearGradient>
<clipPath id="clip0_130_696">
<rect width="767" height="881" fill="white"/>
</clipPath>
</defs>
</svg>
