<svg width="1600" height="1240" viewBox="0 0 1600 1240" fill="none" xmlns="http://www.w3.org/2000/svg">
<g clip-path="url(#clip0_43_120)">
<rect width="1600" height="1240" fill="black"/>
<path fill-rule="evenodd" clip-rule="evenodd" d="M1600 131L1600 -1.52588e-05L0.000110618 0.000124618L-4.687e-06 77.3871C178.529 84.8868 357.903 67.2613 538.068 49.558C728.448 30.8511 919.711 12.0573 1111.79 22.7302C1335.93 35.1842 1441.16 67.4187 1534.13 95.8971C1556.3 102.689 1577.78 109.266 1600 115.312L1600 131Z" fill="white"/>
<path d="M1550.99 1157.97C1420.43 1131.05 1278.61 1131.95 1148.37 1153.89C1125.31 1157.62 1098.83 1163.41 1076.23 1168.7C1069.72 1170.41 1052.59 1174.78 1045.84 1176.52L1015.84 1185.18C1009.24 1187.3 992.933 1192.59 986.206 1194.75C966.589 1201.55 947.291 1208.63 928.243 1216.37C916.761 1220.84 901.974 1227.67 890.541 1232.44C901.824 1227.33 916.495 1220.25 927.767 1215.62C952.508 1205.07 978.988 1194.95 1005.05 1186.5L1014.9 1183.2L1024.9 1180.2C1039.26 1175.65 1060.65 1169.88 1075.3 1166.11C1081.8 1164.61 1099.4 1160.53 1106.09 1158.99C1223.37 1133.79 1346.08 1128.36 1467.01 1143.02C1495.29 1146.72 1523.54 1151.13 1551.06 1157.98L1550.99 1157.97Z" fill="url(#paint0_linear_43_120)"/>
<path d="M1493.47 1126.09C1386.26 1103.69 1269.74 1104.11 1162.69 1121.85C1143.74 1124.86 1121.97 1129.56 1103.39 1133.86C1098.04 1135.24 1083.96 1138.8 1078.4 1140.21L1053.74 1147.26C1048.31 1148.98 1034.91 1153.29 1029.37 1155.06C1013.24 1160.6 997.374 1166.37 981.708 1172.69C972.266 1176.34 960.102 1181.91 950.699 1185.81C959.98 1181.63 972.048 1175.85 981.319 1172.07C1001.67 1163.46 1023.44 1155.2 1044.87 1148.32L1052.98 1145.63L1061.19 1143.19C1073 1139.48 1090.59 1134.79 1102.63 1131.73C1107.97 1130.5 1122.45 1127.19 1127.94 1125.94C1224.35 1105.5 1325.18 1101.31 1424.5 1113.63C1447.73 1116.73 1470.93 1120.42 1493.53 1126.11L1493.47 1126.09Z" fill="url(#paint1_linear_43_120)"/>
<path fill-rule="evenodd" clip-rule="evenodd" d="M0 1109V1240H1600L1600 1162.61C1421.47 1155.11 1242.1 1172.74 1061.93 1190.44C871.553 1209.15 680.289 1227.94 488.205 1217.27C264.067 1204.82 158.836 1172.58 65.8678 1144.1C43.6966 1137.31 22.2228 1130.73 9.67653e-06 1124.69L0 1109Z" fill="white"/>
</g>
<defs>
<linearGradient id="paint0_linear_43_120" x1="1218.04" y1="1249.91" x2="1224.56" y2="1127.58" gradientUnits="userSpaceOnUse">
<stop stop-color="#E8BF85"/>
<stop offset="0.55" stop-color="#F0D6AF"/>
<stop offset="1" stop-color="#A38150"/>
</linearGradient>
<linearGradient id="paint1_linear_43_120" x1="1219.73" y1="1200.89" x2="1225.37" y2="1100.4" gradientUnits="userSpaceOnUse">
<stop stop-color="#E8BF85"/>
<stop offset="0.55" stop-color="#F0D6AF"/>
<stop offset="1" stop-color="#A38150"/>
</linearGradient>
<clipPath id="clip0_43_120">
<rect width="1600" height="1240" fill="white"/>
</clipPath>
</defs>
</svg>
