<svg width="26" height="26" viewBox="0 0 26 26" fill="none" xmlns="http://www.w3.org/2000/svg">
<path d="M13 3.61108C7.82294 3.61108 3.61108 7.82294 3.61108 13C3.61108 14.8214 4.13311 16.5778 5.12457 18.1025L3.66178 21.5163C3.61253 21.6313 3.59884 21.7584 3.62251 21.8812C3.64617 22.004 3.70609 22.117 3.79453 22.2054C3.88298 22.2939 3.9959 22.3538 4.11873 22.3774C4.24155 22.4011 4.36865 22.3874 4.48362 22.3382L7.89742 20.8747C9.41477 21.8651 11.188 22.3913 13 22.3889C18.177 22.3889 22.3889 18.177 22.3889 13C22.3889 7.82294 18.177 3.61108 13 3.61108ZM17.8196 16.3612C17.8196 16.3612 17.0384 17.3621 16.4739 17.5961C15.0405 18.1895 13.0156 17.5961 10.7091 15.2902C8.4038 12.9843 7.80979 10.9595 8.4038 9.52546C8.63789 8.96087 9.63938 8.18097 9.63938 8.18097C9.77736 8.07894 9.9469 8.02884 10.1182 8.03949C10.2894 8.05014 10.4515 8.12085 10.5758 8.23918L11.7087 9.37211C11.8254 9.4897 11.8909 9.64865 11.8909 9.81432C11.8909 9.97999 11.8254 10.1389 11.7087 10.2565L10.997 10.967C10.997 10.967 10.7091 11.8307 12.4385 13.5608C14.1673 15.2902 15.0324 15.0023 15.0324 15.0023L15.7428 14.2913C15.8604 14.1744 16.0195 14.1088 16.1853 14.1088C16.3511 14.1088 16.5102 14.1744 16.6278 14.2913L17.7608 15.4242C18.0036 15.6677 18.0299 16.0889 17.8183 16.3606L17.8196 16.3612Z" fill="url(#paint0_linear_125_1235)"/>
<defs>
<linearGradient id="paint0_linear_125_1235" x1="13" y1="3.61108" x2="13" y2="22.3889" gradientUnits="userSpaceOnUse">
<stop stop-color="#E8BF85"/>
<stop offset="0.55" stop-color="#F0D6AF"/>
<stop offset="1" stop-color="#A38150"/>
</linearGradient>
</defs>
</svg>
